<?xml version="1.0" encoding="UTF-8" standalone="no"?>
<svg
   viewBox="0.0 0.0 348.0 348.0"
   fill="none"
   version="1.1"
   id="svg6"
   sodipodi:docname="Strong Mad Talker.svg"
   inkscape:version="1.1.2 (b8e25be833, 2022-02-05)"
   xmlns:inkscape="http://www.inkscape.org/namespaces/inkscape"
   xmlns:sodipodi="http://sodipodi.sourceforge.net/DTD/sodipodi-0.dtd"
   xmlns="http://www.w3.org/2000/svg"
   xmlns:svg="http://www.w3.org/2000/svg">
  <defs
     id="defs10" />
  <sodipodi:namedview
     id="namedview8"
     pagecolor="#ffffff"
     bordercolor="#666666"
     borderopacity="1.0"
     inkscape:pageshadow="2"
     inkscape:pageopacity="0.0"
     inkscape:pagecheckerboard="0"
     showgrid="false"
     inkscape:zoom="1.5645753"
     inkscape:cx="335.23474"
     inkscape:cy="218.58967"
     inkscape:window-width="1920"
     inkscape:window-height="974"
     inkscape:window-x="-11"
     inkscape:window-y="-11"
     inkscape:window-maximized="1"
     inkscape:current-layer="svg6"
     showguides="false" />
  <path
     d="M5.079 5.776h336.913v337.67H5.08z"
     stroke-width="2"
     stroke="#000"
     id="path2" />
  <path
     d="M282.734 40.554c0-8.376 6.966-15.165 15.56-15.165 4.126 0 8.084 1.597 11.001 4.441 2.918 2.844 4.558 6.702 4.558 10.724 0 8.376-6.966 15.165-15.56 15.165-8.593 0-15.559-6.79-15.559-15.165z"
     stroke-width="2"
     stroke="#000"
     id="path4" />
  <g
     inkscape:groupmode="layer"
     id="layer1"
     inkscape:label="Layer 1">
    <circle
       style="fill:#000000;fill-opacity:0;fill-rule:evenodd;stroke:#000000;stroke-opacity:1"
       id="path58"
       cx="173.77402"
       cy="183.26494"
       r="69.374023" />
    <path
       style="fill:none;stroke:#000000;stroke-width:1.00226px;stroke-linecap:butt;stroke-linejoin:miter;stroke-opacity:1"
       d="m 112.08304,150.95025 c 0,0 61.752,-10.61923 121.57425,-2.25941"
       id="path1308" />
  </g>
  <path
     style="fill:none;stroke:#000000;stroke-width:1.03431px;stroke-linecap:butt;stroke-linejoin:miter;stroke-opacity:1"
     d="m 124.36833,148.92163 c 0,0 3.08048,49.6813 -13.7437,61.89991"
     id="path1423" />
  <path
     style="fill:none;stroke:#000000;stroke-width:1.01368px;stroke-linecap:butt;stroke-linejoin:miter;stroke-opacity:1"
     d="m 129.37611,147.89869 c 0,0 -5.56565,64.44305 41.34485,67.44578"
     id="path1690" />
  <path
     style="fill:none;stroke:#000000;stroke-width:1px;stroke-linecap:butt;stroke-linejoin:miter;stroke-opacity:1"
     d="m 219.75974,147.22208 c 0,0 4.9666,73.76296 -49.03878,68.12239"
     id="path1907" />
  <path
     style="fill:none;stroke:#000000;stroke-width:1px;stroke-linecap:butt;stroke-linejoin:miter;stroke-opacity:1"
     d="m 225.07013,147.67403 c 0,0 1.58182,41.6922 16.4961,50.61818"
     id="path2022" />
  <ellipse
     style="fill:#000000;fill-opacity:0;stroke:#000000;stroke-opacity:1"
     id="path2241"
     cx="176.72527"
     cy="241.35942"
     rx="18.135912"
     ry="10.466099" />
  <path
     style="fill:none;stroke:#000000;stroke-width:1px;stroke-linecap:butt;stroke-linejoin:miter;stroke-opacity:1"
     d="m 167.8171,247.31152 3.43544,-8.02934 5.35289,9.06796 5.23305,-9.74706 4.514,8.94812 c 0,0 12.5034,-8.26902 -2.03729,-13.98143 l -4.07459,-0.31958 -3.63517,9.66716 -5.31294,-9.54732 -3.23571,0.95873 c 0,0 -12.4235,5.55262 -0.31957,12.78302"
     id="path2356" />
  <path
     style="fill:none;stroke:#000000;stroke-width:1px;stroke-linecap:butt;stroke-linejoin:miter;stroke-opacity:1"
     d="m 158.23831,184.67727 c 0,0 4.51948,-13.27597 15.76169,-13.21948 11.24221,0.0565 17.17403,6.9487 16.5526,10.05585 0,0 -9.99935,-2.09026 -15.25325,3.05065"
     id="path2504" />
  <path
     style="fill:none;stroke:#000000;stroke-width:1.03749px;stroke-linecap:butt;stroke-linejoin:miter;stroke-opacity:1"
     d="m 175.79902,184.21268 c 0,0 -10.39198,6.10895 -17.83168,0.11636"
     id="path2506" />
  <path
     style="fill:none;stroke:#000000;stroke-width:1px;stroke-linecap:butt;stroke-linejoin:miter;stroke-opacity:1"
     d="m 173.71753,155.6961 6.15779,5.59286 -5.98831,4.57598"
     id="path2621" />
  <path
     style="fill:#000000;stroke:#000000;stroke-width:1px;stroke-linecap:butt;stroke-linejoin:miter;stroke-opacity:1;fill-opacity:1"
     d="m 156.03507,142.58961 c 0,0 3.10714,-4.49123 6.9487,-0.0565 l 8.02207,7.96559 3.89806,-4.15227 -2.11851,1.29935 -8.16331,-8.64351 c 0,0 -4.06753,-3.0224 -6.27078,0.4237 z"
     id="path3711" />
  <path
     style="fill:#000000;fill-opacity:1;stroke:#000000;stroke-width:0.973411px;stroke-linecap:butt;stroke-linejoin:miter;stroke-opacity:1"
     d="m 193.53506,141.58307 c 0,0 -2.9441,-4.49123 -6.58409,-0.0565 l -7.60114,7.96559 -3.69353,-4.15227 2.00735,1.29935 7.73497,-8.64351 c 0,0 3.85411,-3.0224 5.94175,0.4237 z"
     id="path3711-2" />
  <path
     style="fill:none;stroke:#000000;stroke-width:1px;stroke-linecap:butt;stroke-linejoin:miter;stroke-opacity:1"
     d="m 160.80877,181.88084 c 0,0 2.85292,0.64968 5.81883,-0.25422 0,0 5.87532,2.71169 8.07857,0.36721"
     id="path4114" />
  <path
     style="fill:none;stroke:#000000;stroke-width:1.17951px;stroke-linecap:butt;stroke-linejoin:miter;stroke-opacity:1"
     d="m 174.69478,182.02563 3.3559,0.67082"
     id="path4344" />
  <path
     style="fill:none;stroke:#000000;stroke-width:1.1948px;stroke-linecap:butt;stroke-linejoin:miter;stroke-opacity:1"
     d="m 160.55093,181.43712 0.51567,4.91671"
     id="path4346" />
  <path
     style="fill:none;stroke:#000000;stroke-width:1px;stroke-linecap:butt;stroke-linejoin:miter;stroke-opacity:1"
     d="m 166.6276,181.62662 0.67792,5.19741"
     id="path4348" />
  <path
     style="fill:none;stroke:#000000;stroke-width:1px;stroke-linecap:butt;stroke-linejoin:miter;stroke-opacity:1"
     d="m 174.19773,182.72825 0.28247,2.14675"
     id="path4350" />
  <path
     style="fill:none;stroke:#000000;stroke-width:1.00803px;stroke-linecap:butt;stroke-linejoin:miter;stroke-opacity:1"
     d="m 165.2826,174.99231 c 0,0 1.70842,0.74032 1.67994,1.99316 l -0.48404,4.58423"
     id="path4352" />
  <path
     style="fill:none;stroke:#000000;stroke-width:1px;stroke-linecap:butt;stroke-linejoin:miter;stroke-opacity:1"
     d="m 167.10779,177.0789 c 0,0 5.42338,-9.43442 7.34416,-1.41234 0,0 3.24838,-8.7 7.73961,0.36721"
     id="path4354" />
  <path
     style="fill:none;stroke:#000000;stroke-width:0.986839px;stroke-linecap:butt;stroke-linejoin:miter;stroke-opacity:1"
     d="m 185.75065,174.56433 c -2.31624,-0.24757 -3.67208,1.62298 -3.67208,1.62298 0,0 0.73441,3.57605 0.25422,5.33658"
     id="path4356" />
  <path
     style="fill:none;stroke:#000000;stroke-width:0.924387px;stroke-linecap:butt;stroke-linejoin:miter;stroke-opacity:1"
     d="m 188.45885,176.73634 0.48717,4.44194"
     id="path4358" />
  <path
     style="fill:none;stroke:#000000;stroke-width:1.25707px;stroke-linecap:butt;stroke-linejoin:miter;stroke-opacity:1"
     d="m 174.39753,174.21765 0.30656,7.78138"
     id="path4360" />
  <circle
     style="fill:#000000;fill-opacity:1;stroke:none;stroke-width:1.41026;stroke-linejoin:bevel;stroke-miterlimit:4;stroke-dasharray:none;stroke-dashoffset:0;stroke-opacity:1"
     id="path4464"
     cx="163.34303"
     cy="152.95683"
     r="2.1970818" />
  <circle
     style="fill:#000000;fill-opacity:1;stroke:none;stroke-width:1.41026;stroke-linejoin:bevel;stroke-miterlimit:4;stroke-dasharray:none;stroke-dashoffset:0;stroke-opacity:1"
     id="path4464-3"
     cx="183.35646"
     cy="152.51743"
     r="2.1970818" />
  <ellipse
     style="fill:#000000;fill-opacity:0;stroke:#000000;stroke-width:1.21767;stroke-linejoin:bevel;stroke-miterlimit:4;stroke-dasharray:none;stroke-dashoffset:0;stroke-opacity:1"
     id="path4960"
     cx="89.740608"
     cy="95.751015"
     rx="45.863407"
     ry="18.126429" />
  <ellipse
     style="fill:#000000;fill-opacity:0;stroke:#000000;stroke-width:1.14494;stroke-linejoin:bevel;stroke-miterlimit:4;stroke-dasharray:none;stroke-dashoffset:0;stroke-opacity:1"
     id="path4960-6"
     cx="52.594097"
     cy="180.82468"
     rx="40.466988"
     ry="18.162794" />
  <ellipse
     style="fill:#000000;fill-opacity:0;stroke:#000000;stroke-width:1.14494;stroke-linejoin:bevel;stroke-miterlimit:4;stroke-dasharray:none;stroke-dashoffset:0;stroke-opacity:1"
     id="path4960-6-9"
     cx="294.00949"
     cy="179.60146"
     rx="40.466988"
     ry="18.162794" />
  <ellipse
     style="fill:#000000;fill-opacity:0;stroke:#000000;stroke-width:1.21767;stroke-linejoin:bevel;stroke-miterlimit:4;stroke-dasharray:none;stroke-dashoffset:0;stroke-opacity:1"
     id="path4960-6-5"
     cx="89.921844"
     cy="265.88733"
     rx="45.863407"
     ry="18.126429" />
  <ellipse
     style="fill:#000000;fill-opacity:0;stroke:#000000;stroke-width:1.21767;stroke-linejoin:bevel;stroke-miterlimit:4;stroke-dasharray:none;stroke-dashoffset:0;stroke-opacity:1"
     id="path4960-6-5-6-6"
     cx="257.77634"
     cy="266.54919"
     rx="45.863407"
     ry="18.126429" />
  <ellipse
     style="fill:#000000;fill-opacity:0;stroke:#000000;stroke-width:1.21767;stroke-linejoin:bevel;stroke-miterlimit:4;stroke-dasharray:none;stroke-dashoffset:0;stroke-opacity:1"
     id="path4960-6-5-6-3"
     cx="257.74097"
     cy="96.514839"
     rx="45.863407"
     ry="18.126429" />
  <text
     xml:space="preserve"
     style="font-size:24.393px;line-height:1.25;font-family:ComixHeavy;-inkscape-font-specification:ComixHeavy;fill:#000000;fill-opacity:1;stroke-width:0.609823"
     x="52.669434"
     y="104.7458"
     id="text1869"><tspan
       sodipodi:role="line"
       id="tspan1867"
       x="52.669434"
       y="104.7458"
       style="stroke-width:0.609823">WORD</tspan></text>
  <text
     xml:space="preserve"
     style="font-size:24.393px;line-height:1.25;font-family:ComixHeavy;-inkscape-font-specification:ComixHeavy;fill:#000000;fill-opacity:1;stroke-width:0.609823"
     x="52.669434"
     y="104.7458"
     id="text3345"><tspan
       sodipodi:role="line"
       id="tspan3343"
       x="52.669434"
       y="104.7458"
       style="stroke-width:0.609823">WORD</tspan></text>
  <text
     xml:space="preserve"
     style="font-size:24.393px;line-height:1.25;font-family:ComixHeavy;-inkscape-font-specification:ComixHeavy;fill:#000000;fill-opacity:1;stroke-width:0.609823"
     x="52.669434"
     y="104.7458"
     id="text3349"><tspan
       sodipodi:role="line"
       id="tspan3347"
       x="52.669434"
       y="104.7458"
       style="stroke-width:0.609823">WORD</tspan></text>
  <text
     xml:space="preserve"
     style="font-size:24.393px;line-height:1.25;font-family:ComixHeavy;-inkscape-font-specification:ComixHeavy;fill:#000000;fill-opacity:1;stroke-width:0.609823"
     x="222.5815"
     y="105.16406"
     id="text3349-7"><tspan
       sodipodi:role="line"
       id="tspan3347-1"
       x="222.5815"
       y="105.16406"
       style="stroke-width:0.609823">WORD</tspan></text>
  <text
     xml:space="preserve"
     style="font-size:21.6337px;line-height:1.25;font-family:ComixHeavy;-inkscape-font-specification:ComixHeavy;fill:#000000;fill-opacity:1;stroke-width:0.540841"
     x="258.56094"
     y="189.51271"
     id="text3349-7-6"
     transform="scale(1.0117238,0.98841205)"><tspan
       sodipodi:role="line"
       id="tspan3347-1-7"
       x="258.56094"
       y="189.51271"
       style="stroke-width:0.540841">WORD</tspan></text>
  <text
     xml:space="preserve"
     style="font-size:21.6337px;line-height:1.25;font-family:ComixHeavy;-inkscape-font-specification:ComixHeavy;fill:#000000;fill-opacity:1;stroke-width:0.540841"
     x="18.498007"
     y="190.10704"
     id="text3349-7-6-6"
     transform="scale(1.0117238,0.98841205)"><tspan
       sodipodi:role="line"
       id="tspan3347-1-7-4"
       x="18.498007"
       y="190.10704"
       style="stroke-width:0.540841">WORD</tspan></text>
  <text
     xml:space="preserve"
     style="font-size:24.393px;line-height:1.25;font-family:ComixHeavy;-inkscape-font-specification:ComixHeavy;fill:#000000;fill-opacity:1;stroke-width:0.609823"
     x="52.56731"
     y="273.89996"
     id="text3349-7-8-0"><tspan
       sodipodi:role="line"
       id="tspan3347-1-2-4"
       x="52.56731"
       y="273.89996"
       style="stroke-width:0.609823">WORD</tspan></text>
  <text
     xml:space="preserve"
     style="font-size:24.393px;line-height:1.25;font-family:ComixHeavy;-inkscape-font-specification:ComixHeavy;fill:#000000;fill-opacity:1;stroke-width:0.609823"
     x="221.94235"
     y="275.81741"
     id="text3349-7-8-0-6"><tspan
       sodipodi:role="line"
       id="tspan3347-1-2-4-7"
       x="221.94235"
       y="275.81741"
       style="stroke-width:0.609823">WORD</tspan></text>
  <text
     xml:space="preserve"
     style="font-size:20.9993px;line-height:1.25;font-family:ComixHeavy;-inkscape-font-specification:ComixHeavy;fill:#000000;fill-opacity:1;stroke-width:0.524982"
     x="17.858229"
     y="62.802563"
     id="text4457"><tspan
       sodipodi:role="line"
       id="tspan4455"
       x="17.858229"
       y="62.802563"
       style="stroke-width:0.524982">STRONG MAD TALKER</tspan></text>
  <rect
     style="fill:none;fill-opacity:1;stroke:#000000;stroke-linejoin:bevel"
     id="rect5725"
     width="76.058983"
     height="23.009439"
     x="19.174532"
     y="15.339626" />
  <text
     xml:space="preserve"
     style="font-size:16.5391px;line-height:1.25;font-family:Arial;-inkscape-font-specification:Arial;fill:#000000;fill-opacity:1;stroke-width:0.413477"
     x="29.932621"
     y="31.781677"
     id="text8237"><tspan
       sodipodi:role="line"
       id="tspan8235"
       x="29.932621"
       y="31.781677"
       style="stroke-width:0.413477">Playing</tspan></text>
</svg>
