<?xml version="1.0" encoding="UTF-8" standalone="no"?>
<svg
   viewBox="0.0 0.0 348.0 348.0"
   fill="none"
   version="1.1"
   id="svg6"
   sodipodi:docname="Strong Mad Talker.svg"
   inkscape:version="1.2.1 (9c6d41e410, 2022-07-14)"
   xmlns:inkscape="http://www.inkscape.org/namespaces/inkscape"
   xmlns:sodipodi="http://sodipodi.sourceforge.net/DTD/sodipodi-0.dtd"
   xmlns="http://www.w3.org/2000/svg"
   xmlns:svg="http://www.w3.org/2000/svg">
  <defs
     id="defs10" />
  <sodipodi:namedview
     id="namedview8"
     pagecolor="#ffffff"
     bordercolor="#666666"
     borderopacity="1.0"
     inkscape:pageshadow="2"
     inkscape:pageopacity="0.0"
     inkscape:pagecheckerboard="0"
     showgrid="false"
     inkscape:zoom="2.2126436"
     inkscape:cx="312.97404"
     inkscape:cy="187.55845"
     inkscape:window-width="1920"
     inkscape:window-height="1009"
     inkscape:window-x="1912"
     inkscape:window-y="-8"
     inkscape:window-maximized="1"
     inkscape:current-layer="svg6"
     showguides="false"
     inkscape:showpageshadow="0"
     inkscape:deskcolor="#d1d1d1" />
  <path
     d="M5.079 5.776h336.913v337.67H5.08z"
     stroke-width="2"
     stroke="#000"
     id="path2" />
  <path
     d="M282.734 40.554c0-8.376 6.966-15.165 15.56-15.165 4.126 0 8.084 1.597 11.001 4.441 2.918 2.844 4.558 6.702 4.558 10.724 0 8.376-6.966 15.165-15.56 15.165-8.593 0-15.559-6.79-15.559-15.165z"
     stroke-width="2"
     stroke="#000"
     id="path4" />
  <g
     inkscape:groupmode="layer"
     id="layer1"
     inkscape:label="Layer 1">
    <circle
       style="fill:#000000;fill-opacity:0;fill-rule:evenodd;stroke:#000000;stroke-opacity:1"
       id="path58"
       cx="173.77402"
       cy="183.26494"
       r="69.374023" />
    <path
       style="fill:none;stroke:#000000;stroke-width:1.00226px;stroke-linecap:butt;stroke-linejoin:miter;stroke-opacity:1"
       d="m 112.08304,150.95025 c 0,0 61.752,-10.61923 121.57425,-2.25941"
       id="path1308" />
  </g>
  <path
     style="fill:none;stroke:#000000;stroke-width:1.03431px;stroke-linecap:butt;stroke-linejoin:miter;stroke-opacity:1"
     d="m 124.36833,148.92163 c 0,0 3.08048,49.6813 -13.7437,61.89991"
     id="path1423" />
  <path
     style="fill:none;stroke:#000000;stroke-width:1.01368px;stroke-linecap:butt;stroke-linejoin:miter;stroke-opacity:1"
     d="m 129.37611,147.89869 c 0,0 -5.56565,64.44305 41.34485,67.44578"
     id="path1690" />
  <path
     style="fill:none;stroke:#000000;stroke-width:1px;stroke-linecap:butt;stroke-linejoin:miter;stroke-opacity:1"
     d="m 219.75974,147.22208 c 0,0 4.9666,73.76296 -49.03878,68.12239"
     id="path1907" />
  <path
     style="fill:none;stroke:#000000;stroke-width:1px;stroke-linecap:butt;stroke-linejoin:miter;stroke-opacity:1"
     d="m 225.07013,147.67403 c 0,0 1.58182,41.6922 16.4961,50.61818"
     id="path2022" />
  <ellipse
     style="fill:#000000;fill-opacity:0;stroke:#000000;stroke-opacity:1"
     id="path2241"
     cx="176.72527"
     cy="241.35942"
     rx="18.135912"
     ry="10.466099" />
  <path
     style="fill:none;stroke:#000000;stroke-width:1px;stroke-linecap:butt;stroke-linejoin:miter;stroke-opacity:1"
     d="m 167.8171,247.31152 3.43544,-8.02934 5.35289,9.06796 5.23305,-9.74706 4.514,8.94812 c 0,0 12.5034,-8.26902 -2.03729,-13.98143 l -4.07459,-0.31958 -3.63517,9.66716 -5.31294,-9.54732 -3.23571,0.95873 c 0,0 -12.4235,5.55262 -0.31957,12.78302"
     id="path2356" />
  <path
     style="fill:none;stroke:#000000;stroke-width:1px;stroke-linecap:butt;stroke-linejoin:miter;stroke-opacity:1"
     d="m 158.23831,184.67727 c 0,0 4.51948,-13.27597 15.76169,-13.21948 11.24221,0.0565 17.17403,6.9487 16.5526,10.05585 0,0 -9.99935,-2.09026 -15.25325,3.05065"
     id="path2504" />
  <path
     style="fill:none;stroke:#000000;stroke-width:1.03749px;stroke-linecap:butt;stroke-linejoin:miter;stroke-opacity:1"
     d="m 175.79902,184.21268 c 0,0 -10.39198,6.10895 -17.83168,0.11636"
     id="path2506" />
  <path
     style="fill:none;stroke:#000000;stroke-width:1px;stroke-linecap:butt;stroke-linejoin:miter;stroke-opacity:1"
     d="m 173.71753,155.6961 6.15779,5.59286 -5.98831,4.57598"
     id="path2621" />
  <path
     style="fill:#000000;stroke:#000000;stroke-width:1px;stroke-linecap:butt;stroke-linejoin:miter;stroke-opacity:1;fill-opacity:1"
     d="m 156.03507,142.58961 c 0,0 3.10714,-4.49123 6.9487,-0.0565 l 8.02207,7.96559 3.89806,-4.15227 -2.11851,1.29935 -8.16331,-8.64351 c 0,0 -4.06753,-3.0224 -6.27078,0.4237 z"
     id="path3711" />
  <path
     style="fill:#000000;fill-opacity:1;stroke:#000000;stroke-width:0.973411px;stroke-linecap:butt;stroke-linejoin:miter;stroke-opacity:1"
     d="m 193.53506,141.58307 c 0,0 -2.9441,-4.49123 -6.58409,-0.0565 l -7.60114,7.96559 -3.69353,-4.15227 2.00735,1.29935 7.73497,-8.64351 c 0,0 3.85411,-3.0224 5.94175,0.4237 z"
     id="path3711-2" />
  <path
     style="fill:none;stroke:#000000;stroke-width:1px;stroke-linecap:butt;stroke-linejoin:miter;stroke-opacity:1"
     d="m 160.80877,181.88084 c 0,0 2.85292,0.64968 5.81883,-0.25422 0,0 5.87532,2.71169 8.07857,0.36721"
     id="path4114" />
  <path
     style="fill:none;stroke:#000000;stroke-width:1.17951px;stroke-linecap:butt;stroke-linejoin:miter;stroke-opacity:1"
     d="m 174.69478,182.02563 3.3559,0.67082"
     id="path4344" />
  <path
     style="fill:none;stroke:#000000;stroke-width:1.1948px;stroke-linecap:butt;stroke-linejoin:miter;stroke-opacity:1"
     d="m 160.55093,181.43712 0.51567,4.91671"
     id="path4346" />
  <path
     style="fill:none;stroke:#000000;stroke-width:1px;stroke-linecap:butt;stroke-linejoin:miter;stroke-opacity:1"
     d="m 166.6276,181.62662 0.67792,5.19741"
     id="path4348" />
  <path
     style="fill:none;stroke:#000000;stroke-width:1px;stroke-linecap:butt;stroke-linejoin:miter;stroke-opacity:1"
     d="m 174.19773,182.72825 0.28247,2.14675"
     id="path4350" />
  <path
     style="fill:none;stroke:#000000;stroke-width:1.00803px;stroke-linecap:butt;stroke-linejoin:miter;stroke-opacity:1"
     d="m 165.2826,174.99231 c 0,0 1.70842,0.74032 1.67994,1.99316 l -0.48404,4.58423"
     id="path4352" />
  <path
     style="fill:none;stroke:#000000;stroke-width:1px;stroke-linecap:butt;stroke-linejoin:miter;stroke-opacity:1"
     d="m 167.10779,177.0789 c 0,0 5.42338,-9.43442 7.34416,-1.41234 0,0 3.24838,-8.7 7.73961,0.36721"
     id="path4354" />
  <path
     style="fill:none;stroke:#000000;stroke-width:0.986839px;stroke-linecap:butt;stroke-linejoin:miter;stroke-opacity:1"
     d="m 185.75065,174.56433 c -2.31624,-0.24757 -3.67208,1.62298 -3.67208,1.62298 0,0 0.73441,3.57605 0.25422,5.33658"
     id="path4356" />
  <path
     style="fill:none;stroke:#000000;stroke-width:0.924387px;stroke-linecap:butt;stroke-linejoin:miter;stroke-opacity:1"
     d="m 188.45885,176.73634 0.48717,4.44194"
     id="path4358" />
  <path
     style="fill:none;stroke:#000000;stroke-width:1.25707px;stroke-linecap:butt;stroke-linejoin:miter;stroke-opacity:1"
     d="m 174.39753,174.21765 0.30656,7.78138"
     id="path4360" />
  <circle
     style="fill:#000000;fill-opacity:1;stroke:none;stroke-width:1.41026;stroke-linejoin:bevel;stroke-miterlimit:4;stroke-dasharray:none;stroke-dashoffset:0;stroke-opacity:1"
     id="path4464"
     cx="163.34303"
     cy="152.95683"
     r="2.1970818" />
  <circle
     style="fill:#000000;fill-opacity:1;stroke:none;stroke-width:1.41026;stroke-linejoin:bevel;stroke-miterlimit:4;stroke-dasharray:none;stroke-dashoffset:0;stroke-opacity:1"
     id="path4464-3"
     cx="183.35646"
     cy="152.51743"
     r="2.1970818" />
  <ellipse
     style="fill:#000000;fill-opacity:0;stroke:#000000;stroke-width:1.21767;stroke-linejoin:bevel;stroke-miterlimit:4;stroke-dasharray:none;stroke-dashoffset:0;stroke-opacity:1"
     id="path4960"
     cx="89.740608"
     cy="95.751015"
     rx="45.863407"
     ry="18.126429" />
  <ellipse
     style="fill:#000000;fill-opacity:0;stroke:#000000;stroke-width:1.14494;stroke-linejoin:bevel;stroke-miterlimit:4;stroke-dasharray:none;stroke-dashoffset:0;stroke-opacity:1"
     id="path4960-6"
     cx="52.594097"
     cy="180.82468"
     rx="40.466988"
     ry="18.162794" />
  <ellipse
     style="fill:#000000;fill-opacity:0;stroke:#000000;stroke-width:1.14494;stroke-linejoin:bevel;stroke-miterlimit:4;stroke-dasharray:none;stroke-dashoffset:0;stroke-opacity:1"
     id="path4960-6-9"
     cx="294.00949"
     cy="179.60146"
     rx="40.466988"
     ry="18.162794" />
  <ellipse
     style="fill:#000000;fill-opacity:0;stroke:#000000;stroke-width:1.21767;stroke-linejoin:bevel;stroke-miterlimit:4;stroke-dasharray:none;stroke-dashoffset:0;stroke-opacity:1"
     id="path4960-6-5"
     cx="89.921844"
     cy="265.88733"
     rx="45.863407"
     ry="18.126429" />
  <ellipse
     style="fill:#000000;fill-opacity:0;stroke:#000000;stroke-width:1.21767;stroke-linejoin:bevel;stroke-miterlimit:4;stroke-dasharray:none;stroke-dashoffset:0;stroke-opacity:1"
     id="path4960-6-5-6-6"
     cx="257.77634"
     cy="266.54919"
     rx="45.863407"
     ry="18.126429" />
  <ellipse
     style="fill:#000000;fill-opacity:0;stroke:#000000;stroke-width:1.21767;stroke-linejoin:bevel;stroke-miterlimit:4;stroke-dasharray:none;stroke-dashoffset:0;stroke-opacity:1"
     id="path4960-6-5-6-3"
     cx="257.74097"
     cy="96.514839"
     rx="45.863407"
     ry="18.126429" />
  <g
     aria-label="WORD"
     id="text1869"
     style="font-size:24.393px;font-family:ComixHeavy;-inkscape-font-specification:ComixHeavy;fill:#000000;stroke-width:0.609823">
    <path
       d="m 75.525674,91.232074 -8.122869,14.513836 -4.683456,-8.659516 -6.75686,9.586446 -3.073518,-17.611743 6.878825,-1.927047 v 9.440091 l 3.097911,-7.391079 3.561378,7.025184 3.683343,-7.537437 z"
       id="path1034" />
    <path
       d="m 93.722833,96.452176 q 0,3.536985 -2.829588,5.927504 -2.805195,2.36612 -6.683682,2.36612 -3.536985,0 -6.025071,-2.36612 -2.488086,-2.36613 -2.488086,-5.805539 0,-3.976059 2.390514,-6.83004 2.488086,-2.951553 6.122643,-2.951553 v 0.658611 q 4.561491,0 7.098363,2.561265 2.414907,2.4393 2.414907,6.439752 z m -5.951892,1.000113 q 0,-1.268436 -0.658611,-2.097798 -0.780576,-0.97572 -2.219763,-0.97572 l -0.683004,0.07318 v -0.48786 q -1.268436,0.268323 -2.024619,1.268436 -0.73179,1.000113 -0.73179,2.463693 0,1.390401 1.000113,2.317331 1.000113,0.92694 2.512479,0.92694 1.268436,0 2.024619,-0.92694 0.780576,-0.951323 0.780576,-2.561261 z"
       id="path1036" />
    <path
       d="m 111.94439,100.52581 -6.70808,4.95178 -3.36623,-7.220332 -2.195372,1.46358 0.658612,4.683452 -4.415134,1.7563 -1.390401,-17.392209 q 1.292829,-0.609825 3.366234,-0.97572 2.097798,-0.390288 3.976061,-0.390288 3.78091,0 4.97617,1.21965 0.75618,0.780576 0.75618,2.780802 0,2.219763 -2.00022,4.293168 z m -8.63512,-8.244837 q 0,-0.536646 -0.26833,-0.902541 -0.26832,-0.390288 -0.85375,-0.439074 -0.3659,0 -1.02451,0.292716 -0.63422,0.268323 -2.000225,1.024506 l 1.024505,2.902767 q 1.34162,-0.463467 2.14659,-1.122078 0.97572,-0.804969 0.97572,-1.756296 z"
       id="path1038" />
    <path
       d="m 127.55588,95.6716 q 0,4.317561 -3.58577,7.22033 -3.41502,2.7808 -8.04969,2.7808 -0.75618,0 -1.41479,-0.0732 -0.63422,-0.0732 -1.34161,-0.26832 l -0.92694,-16.00181 q 3.24427,-1.195257 6.80565,-1.195257 3.95166,0 6.12264,1.756296 2.39051,1.927047 2.39051,5.781141 z m -6.2446,-0.195144 q 0,-1.95144 -1.07329,-2.805195 -0.92694,-0.73179 -2.8052,-0.73179 v 7.537437 q 1.78069,-0.536646 2.7808,-1.487973 1.09769,-1.048899 1.09769,-2.512479 z"
       id="path1040" />
  </g>
  <text
     xml:space="preserve"
     style="font-size:24.393px;line-height:1.25;font-family:ComixHeavy;-inkscape-font-specification:ComixHeavy;fill:#000000;fill-opacity:1;stroke-width:0.609823"
     x="52.669434"
     y="104.7458"
     id="text3345"><tspan
       sodipodi:role="line"
       id="tspan3343"
       x="52.669434"
       y="104.7458"
       style="stroke-width:0.609823" /></text>
  <text
     xml:space="preserve"
     style="font-size:24.393px;line-height:1.25;font-family:ComixHeavy;-inkscape-font-specification:ComixHeavy;fill:#000000;fill-opacity:1;stroke-width:0.609823"
     x="52.669434"
     y="104.7458"
     id="text3349"><tspan
       sodipodi:role="line"
       id="tspan3347"
       x="52.669434"
       y="104.7458"
       style="stroke-width:0.609823" /></text>
  <g
     aria-label="WORD"
     id="text3349-7"
     style="font-size:24.393px;font-family:ComixHeavy;-inkscape-font-specification:ComixHeavy;fill:#000000;stroke-width:0.609823">
    <path
       d="m 245.43774,91.650341 -8.12287,14.513839 -4.68346,-8.659519 -6.75686,9.586449 -3.07352,-17.611746 6.87883,-1.927047 v 9.440091 l 3.09791,-7.391079 3.56138,7.025184 3.68334,-7.537437 z"
       id="path1202" />
    <path
       d="m 263.6349,96.870443 q 0,3.536987 -2.82959,5.927497 -2.8052,2.36612 -6.68368,2.36612 -3.53699,0 -6.02507,-2.36612 -2.48809,-2.36612 -2.48809,-5.805532 0,-3.976059 2.39051,-6.83004 2.48809,-2.951553 6.12265,-2.951553 v 0.658611 q 4.56149,0 7.09836,2.561265 2.41491,2.4393 2.41491,6.439752 z m -5.9519,1.000113 q 0,-1.268436 -0.65861,-2.097798 -0.78057,-0.97572 -2.21976,-0.97572 l -0.683,0.07318 v -0.48786 q -1.26844,0.268323 -2.02462,1.268436 -0.73179,1.000113 -0.73179,2.463693 0,1.390401 1.00011,2.317334 1.00011,0.92693 2.51248,0.92693 1.26844,0 2.02462,-0.92693 0.78057,-0.951326 0.78057,-2.561264 z"
       id="path1204" />
    <path
       d="m 281.85645,100.94407 -6.70807,4.95178 -3.36624,-7.220325 -2.19537,1.463575 0.65861,4.68346 -4.41513,1.7563 -1.3904,-17.392212 q 1.29283,-0.609825 3.36623,-0.97572 2.0978,-0.390288 3.97606,-0.390288 3.78092,0 4.97617,1.21965 0.75619,0.780576 0.75619,2.780802 0,2.219763 -2.00023,4.293168 z m -8.63512,-8.24483 q 0,-0.536646 -0.26832,-0.902541 -0.26833,-0.390288 -0.85376,-0.439074 -0.36589,0 -1.02451,0.292716 -0.63421,0.268323 -2.00022,1.024506 l 1.0245,2.902767 q 1.34162,-0.463467 2.14659,-1.122078 0.97572,-0.804969 0.97572,-1.756296 z"
       id="path1206" />
    <path
       d="m 297.46795,96.089867 q 0,4.317563 -3.58577,7.220323 -3.41502,2.78081 -8.04969,2.78081 -0.75619,0 -1.4148,-0.0732 -0.63421,-0.0732 -1.34161,-0.26833 l -0.92694,-16.001803 q 3.24427,-1.195257 6.80565,-1.195257 3.95167,0 6.12264,1.756296 2.39052,1.927047 2.39052,5.781141 z m -6.24461,-0.195144 q 0,-1.95144 -1.07329,-2.805195 -0.92694,-0.73179 -2.8052,-0.73179 v 7.537437 q 1.78069,-0.536646 2.78081,-1.487973 1.09768,-1.048899 1.09768,-2.512479 z"
       id="path1208" />
  </g>
  <g
     aria-label="WORD"
     transform="scale(1.0117238,0.98841205)"
     id="text3349-7-6"
     style="font-size:21.6337px;font-family:ComixHeavy;-inkscape-font-specification:ComixHeavy;fill:#000000;stroke-width:0.540841">
    <path
       d="m 278.83172,177.52764 -7.20402,12.87205 -4.15367,-7.67996 -5.99254,8.50204 -2.72584,-15.61953 6.1007,-1.70906 v 8.37224 l 2.74748,-6.55501 3.15852,6.23051 3.26669,-6.68482 z"
       id="path1219" />
    <path
       d="m 294.97044,182.15725 q 0,3.13689 -2.50951,5.25699 -2.48787,2.09847 -5.92763,2.09847 -3.13689,0 -5.34352,-2.09847 -2.20664,-2.09847 -2.20664,-5.14882 0,-3.52629 2.1201,-6.05743 2.20664,-2.61768 5.43006,-2.61768 v 0.58411 q 4.0455,0 6.29541,2.27154 2.14173,2.16337 2.14173,5.71129 z m -5.27862,0.88698 q 0,-1.12495 -0.58411,-1.86049 -0.69228,-0.86535 -1.96867,-0.86535 l -0.60574,0.0649 v -0.43267 q -1.12495,0.23797 -1.7956,1.12495 -0.64901,0.88698 -0.64901,2.185 0,1.23312 0.88698,2.0552 0.88699,0.82208 2.22828,0.82208 1.12495,0 1.79559,-0.82208 0.69228,-0.84371 0.69228,-2.27154 z"
       id="path1221" />
    <path
       d="m 311.1308,185.77008 -5.94927,4.39164 -2.98545,-6.40357 -1.94703,1.29802 0.58411,4.15367 -3.9157,1.55763 -1.23312,-15.42483 q 1.14659,-0.54085 2.98545,-0.86535 1.8605,-0.34614 3.52629,-0.34614 3.35323,0 4.41328,1.08169 0.67064,0.69227 0.67064,2.46624 0,1.96866 -1.77396,3.80753 z m -7.65833,-7.31219 q 0,-0.47594 -0.23797,-0.80045 -0.23797,-0.34614 -0.75718,-0.3894 -0.3245,0 -0.90861,0.2596 -0.56248,0.23797 -1.77397,0.90862 l 0.90862,2.57441 q 1.18985,-0.41104 1.90376,-0.99515 0.86535,-0.71392 0.86535,-1.55763 z"
       id="path1223" />
    <path
       d="m 324.97635,181.46497 q 0,3.82917 -3.18015,6.40358 -3.02872,2.46624 -7.13912,2.46624 -0.67065,0 -1.25476,-0.0649 -0.56247,-0.0649 -1.18985,-0.23797 l -0.82208,-14.19171 q 2.87728,-1.06005 6.0358,-1.06005 3.50466,0 5.43006,1.55763 2.1201,1.70906 2.1201,5.12718 z m -5.53823,-0.17307 q 0,-1.73069 -0.95188,-2.48787 -0.82208,-0.64901 -2.48787,-0.64901 v 6.68481 q 1.57926,-0.47594 2.46624,-1.31965 0.97351,-0.93025 0.97351,-2.22828 z"
       id="path1225" />
  </g>
  <g
     aria-label="WORD"
     transform="scale(1.0117238,0.98841205)"
     id="text3349-7-6-6"
     style="font-size:21.6337px;font-family:ComixHeavy;-inkscape-font-specification:ComixHeavy;fill:#000000;stroke-width:0.540841">
    <path
       d="m 38.768783,178.12197 -7.204022,12.87205 -4.15367,-7.67996 -5.992535,8.50204 -2.725846,-15.61953 6.100703,-1.70906 v 8.37224 l 2.74748,-6.55501 3.15852,6.23051 3.266689,-6.68482 z"
       id="path1236" />
    <path
       d="m 54.907507,182.75158 q 0,3.13689 -2.509509,5.25699 -2.487876,2.09847 -5.927634,2.09847 -3.136886,0 -5.343523,-2.09847 -2.206638,-2.09847 -2.206638,-5.14882 0,-3.52629 2.120103,-6.05743 2.206637,-2.61768 5.430058,-2.61768 v 0.58411 q 4.045502,0 6.295407,2.27154 2.141736,2.16337 2.141736,5.71129 z m -5.278623,0.88698 q 0,-1.12495 -0.584109,-1.86049 -0.692279,-0.86535 -1.968667,-0.86535 l -0.605744,0.0649 v -0.43267 q -1.124952,0.23797 -1.795597,1.12495 -0.649011,0.88698 -0.649011,2.185 0,1.23312 0.886982,2.0552 0.886982,0.82208 2.228271,0.82208 1.124952,0 1.795597,-0.82208 0.692278,-0.84371 0.692278,-2.27154 z"
       id="path1238" />
    <path
       d="m 71.067865,186.36441 -5.949267,4.39164 -2.985451,-6.40357 -1.947033,1.29802 0.58411,4.15367 -3.9157,1.55762 -1.23312,-15.42482 q 1.146586,-0.54085 2.98545,-0.86535 1.860498,-0.34614 3.526293,-0.34614 3.353224,0 4.413275,1.08169 0.670645,0.69227 0.670645,2.46624 0,1.96866 -1.773964,3.80753 z m -7.65833,-7.31219 q 0,-0.47594 -0.23797,-0.80045 -0.237971,-0.34614 -0.75718,-0.3894 -0.324505,0 -0.908615,0.2596 -0.562476,0.23797 -1.773963,0.90862 l 0.908615,2.57441 q 1.189853,-0.41104 1.903765,-0.99515 0.865348,-0.71392 0.865348,-1.55763 z"
       id="path1240" />
    <path
       d="m 84.913415,182.0593 q 0,3.82917 -3.180154,6.40358 -3.028718,2.46624 -7.139121,2.46624 -0.670644,0 -1.254754,-0.0649 -0.562476,-0.0649 -1.189854,-0.23797 l -0.82208,-14.19171 q 2.877282,-1.06005 6.035802,-1.06005 3.504659,0 5.430059,1.55763 2.120102,1.70906 2.120102,5.12718 z m -5.538227,-0.17307 q 0,-1.73069 -0.951883,-2.48787 -0.82208,-0.64901 -2.487875,-0.64901 v 6.68481 q 1.57926,-0.47594 2.466242,-1.31965 0.973516,-0.93025 0.973516,-2.22828 z"
       id="path1242" />
  </g>
  <g
     aria-label="WORD"
     id="text3349-7-8-0"
     style="font-size:24.393px;font-family:ComixHeavy;-inkscape-font-specification:ComixHeavy;fill:#000000;stroke-width:0.609823">
    <path
       d="m 75.423551,260.38624 -8.122869,14.51384 -4.683456,-8.65952 -6.756861,9.58645 -3.073518,-17.61175 6.878826,-1.92704 v 9.44009 l 3.097911,-7.39108 3.561378,7.02518 3.683343,-7.53743 z"
       id="path1253" />
    <path
       d="m 93.620709,265.60634 q 0,3.53699 -2.829588,5.9275 -2.805195,2.36612 -6.683682,2.36612 -3.536985,0 -6.025071,-2.36612 -2.488086,-2.36612 -2.488086,-5.80553 0,-3.97606 2.390514,-6.83004 2.488086,-2.95155 6.122643,-2.95155 v 0.65861 q 4.561491,0 7.098363,2.56126 2.414907,2.4393 2.414907,6.43975 z m -5.951892,1.00012 q 0,-1.26844 -0.658611,-2.0978 -0.780576,-0.97572 -2.219763,-0.97572 l -0.683004,0.0732 v -0.48786 q -1.268436,0.26832 -2.024619,1.26843 -0.73179,1.00012 -0.73179,2.4637 0,1.3904 1.000113,2.31733 1.000113,0.92694 2.512479,0.92694 1.268436,0 2.024619,-0.92694 0.780576,-0.95133 0.780576,-2.56126 z"
       id="path1255" />
    <path
       d="m 111.84226,269.67997 -6.70807,4.95178 -3.36624,-7.22032 -2.195365,1.46358 0.658615,4.68345 -4.415137,1.7563 -1.390401,-17.39221 q 1.292829,-0.60983 3.366234,-0.97572 2.097798,-0.39029 3.976054,-0.39029 3.78092,0 4.97618,1.21965 0.75618,0.78058 0.75618,2.7808 0,2.21977 -2.00023,4.29317 z m -8.63512,-8.24483 q 0,-0.53665 -0.26832,-0.90254 -0.26832,-0.39029 -0.85376,-0.43907 -0.36589,0 -1.0245,0.29271 -0.63422,0.26832 -2.000228,1.02451 l 1.024508,2.90276 q 1.34161,-0.46346 2.14658,-1.12207 0.97572,-0.80497 0.97572,-1.7563 z"
       id="path1257" />
    <path
       d="m 127.45376,264.82577 q 0,4.31756 -3.58577,7.22033 -3.41502,2.7808 -8.04969,2.7808 -0.75618,0 -1.41479,-0.0732 -0.63422,-0.0732 -1.34162,-0.26832 l -0.92693,-16.00181 q 3.24427,-1.19526 6.80564,-1.19526 3.95167,0 6.12265,1.7563 2.39051,1.92704 2.39051,5.78114 z m -6.24461,-0.19515 q 0,-1.95144 -1.07329,-2.80519 -0.92693,-0.73179 -2.80519,-0.73179 v 7.53744 q 1.78069,-0.53665 2.7808,-1.48798 1.09768,-1.0489 1.09768,-2.51248 z"
       id="path1259" />
  </g>
  <g
     aria-label="WORD"
     id="text3349-7-8-0-6"
     style="font-size:24.393px;font-family:ComixHeavy;-inkscape-font-specification:ComixHeavy;fill:#000000;stroke-width:0.609823">
    <path
       d="m 244.79859,262.30369 -8.12287,14.51384 -4.68345,-8.65952 -6.75686,9.58645 -3.07352,-17.61175 6.87883,-1.92704 v 9.44009 l 3.09791,-7.39108 3.56137,7.02518 3.68335,-7.53743 z"
       id="path1270" />
    <path
       d="m 262.99575,267.52379 q 0,3.53699 -2.82959,5.9275 -2.80519,2.36612 -6.68368,2.36612 -3.53698,0 -6.02507,-2.36612 -2.48809,-2.36612 -2.48809,-5.80553 0,-3.97606 2.39052,-6.83004 2.48808,-2.95155 6.12264,-2.95155 v 0.65861 q 4.56149,0 7.09836,2.56126 2.41491,2.4393 2.41491,6.43975 z m -5.95189,1.00012 q 0,-1.26844 -0.65861,-2.0978 -0.78058,-0.97572 -2.21976,-0.97572 l -0.68301,0.0732 v -0.48786 q -1.26843,0.26832 -2.02462,1.26843 -0.73179,1.00012 -0.73179,2.4637 0,1.3904 1.00012,2.31733 1.00011,0.92694 2.51247,0.92694 1.26844,0 2.02462,-0.92694 0.78058,-0.95133 0.78058,-2.56126 z"
       id="path1272" />
    <path
       d="m 281.21731,271.59742 -6.70808,4.95178 -3.36623,-7.22032 -2.19537,1.46358 0.65861,4.68345 -4.41514,1.7563 -1.3904,-17.39221 q 1.29283,-0.60983 3.36624,-0.97572 2.0978,-0.39029 3.97606,-0.39029 3.78091,0 4.97617,1.21965 0.75618,0.78058 0.75618,2.7808 0,2.21977 -2.00022,4.29317 z m -8.63513,-8.24483 q 0,-0.53665 -0.26832,-0.90254 -0.26832,-0.39029 -0.85375,-0.43907 -0.3659,0 -1.02451,0.29271 -0.63422,0.26832 -2.00023,1.02451 l 1.02451,2.90276 q 1.34161,-0.46346 2.14658,-1.12207 0.97572,-0.80497 0.97572,-1.7563 z"
       id="path1274" />
    <path
       d="m 296.8288,266.74322 q 0,4.31756 -3.58577,7.22033 -3.41502,2.7808 -8.04969,2.7808 -0.75618,0 -1.41479,-0.0732 -0.63422,-0.0732 -1.34162,-0.26832 L 281.51,260.40104 q 3.24427,-1.19526 6.80565,-1.19526 3.95166,0 6.12264,1.7563 2.39051,1.92704 2.39051,5.78114 z m -6.2446,-0.19515 q 0,-1.95144 -1.0733,-2.80519 -0.92693,-0.73179 -2.80519,-0.73179 v 7.53744 q 1.78069,-0.53665 2.7808,-1.48798 1.09769,-1.0489 1.09769,-2.51248 z"
       id="path1276" />
  </g>
  <g
     aria-label="STRONG MAD TALKER"
     id="text4457"
     style="font-size:20.9993px;font-family:ComixHeavy;-inkscape-font-specification:ComixHeavy;fill:#000000;stroke-width:0.524982">
    <path
       d="m 32.80973,57.468741 q 0,2.708909 -2.246925,4.47285 -2.162928,1.700944 -5.312823,1.700944 -2.624912,0 -4.157861,-0.524983 -1.721943,-0.58798 -3.275891,-2.183927 l 2.498917,-4.78784 q 0.713976,0.88197 2.057931,1.448951 1.364955,0.566981 2.750908,0.566981 0.860972,0 1.385954,-0.251991 0.524983,-0.272991 0.524983,-0.818973 0,-1.301956 -1.910937,-1.994933 -1.78494,-0.524983 -3.548881,-1.070965 -1.931936,-0.776974 -1.931936,-2.288923 0,-1.679944 1.80594,-2.624913 1.406953,-0.734975 4.031866,-1.049965 1.78494,-0.209993 4.094863,-0.209993 v 3.128896 q -1.259958,-0.461985 -1.910936,-0.60898 -0.629979,-0.146995 -1.19696,-0.146995 -0.692977,0 -1.049965,0.272991 -0.356988,0.251992 -0.356988,0.839972 0,0.167994 2.225925,0.440985 2.225926,0.272991 3.506883,1.19696 2.015933,1.427953 2.015933,4.493851 z"
       id="path1141" />
    <path
       d="m 45.535314,52.6809 -4.535849,0.839972 1.133963,9.512683 -4.640846,0.944969 V 54.48684 l -3.800873,0.335989 V 48.18705 l 11.843605,0.650978 z"
       id="path1143" />
    <path
       d="m 61.074803,59.169684 -5.774807,4.262858 -2.897904,-6.215793 -1.889937,1.259958 0.566981,4.031866 -3.800873,1.511949 -1.19696,-14.972501 q 1.112963,-0.524982 2.897903,-0.839972 1.80594,-0.335989 3.422886,-0.335989 3.254892,0 4.283857,1.049965 0.650979,0.671978 0.650979,2.393921 0,1.910936 -1.721943,3.695876 z M 53.641051,52.07192 q 0,-0.461984 -0.230992,-0.776974 -0.230993,-0.335988 -0.734976,-0.377987 -0.314989,0 -0.88197,0.251992 -0.545982,0.230992 -1.721943,0.88197 l 0.881971,2.498917 q 1.154961,-0.398987 1.847938,-0.965968 0.839972,-0.692977 0.839972,-1.51195 z"
       id="path1145" />
    <path
       d="m 76.656264,55.662801 q 0,3.044898 -2.435919,5.10283 -2.41492,2.036932 -5.753808,2.036932 -3.044899,0 -5.186827,-2.036932 -2.141929,-2.036932 -2.141929,-4.997834 0,-3.422886 2.057931,-5.879804 2.141929,-2.540915 5.270825,-2.540915 v 0.566981 q 3.926869,0 6.110796,2.204927 2.078931,2.09993 2.078931,5.543815 z m -5.123829,0.860971 q 0,-1.091964 -0.566982,-1.80594 -0.671977,-0.839972 -1.910936,-0.839972 l -0.58798,0.063 v -0.419986 q -1.091964,0.230992 -1.742942,1.091964 -0.629979,0.860971 -0.629979,2.120929 0,1.19696 0.860971,1.994934 0.860971,0.797973 2.162928,0.797973 1.091964,0 1.742942,-0.797973 0.671978,-0.818973 0.671978,-2.204927 z"
       id="path1147" />
    <path
       d="M 92.82571,47.998056 89.024837,64.39851 82.34706,55.557804 v 6.929769 l -4.51485,-1.49095 0.29399,-10.772641 4.829839,-1.49095 3.61188,7.034765 v -6.173794 z"
       id="path1149" />
    <path
       d="m 108.74317,56.397776 -1.74294,0.335989 q 0,2.729909 -2.03694,4.682844 -2.03693,1.952935 -4.74584,1.952935 -2.813904,0 -4.871835,-2.267925 -2.036932,-2.288923 -2.036932,-5.438818 0,-2.960902 1.952934,-5.10283 1.952935,-2.141929 4.745843,-2.141929 1.78494,0 2.9189,0.398987 1.13396,0.398987 2.33092,1.532949 l -2.58291,2.876904 q -0.62998,-0.398987 -1.25996,-0.797973 -0.54598,-0.293991 -0.90297,-0.293991 -1.070962,0 -1.742939,0.986967 -0.650979,0.986968 -0.650979,2.456919 0,1.511949 0.629979,2.666911 0.566981,1.049965 1.511949,1.049965 0.77697,0 1.36496,-0.587981 0.60898,-0.58798 0.75597,-1.553948 l -1.86894,0.209993 -0.10499,-2.246925 8.23172,-1.175961 z"
       id="path1151" />
    <path
       d="m 140.4941,63.453541 -5.83781,-0.881971 -0.62998,-8.294723 -4.22086,8.10573 -1.84794,-0.230993 -4.11586,-8.315722 -0.105,9.197693 -5.14482,-0.545982 2.58291,-14.40552 5.43882,0.335989 3.29689,6.173794 3.61188,-5.102829 4.61984,-0.650979 z"
       id="path1153" />
    <path
       d="m 155.2986,62.487573 -4.61984,-0.104996 -1.13396,-3.842872 h -2.03694 l -0.62998,3.611879 -5.8588,1.301957 3.61188,-16.106463 5.64881,0.965968 z m -5.8588,-6.089797 -2.03693,-5.333822 -1.02897,5.228826 z"
       id="path1155" />
    <path
       d="m 169.07415,54.990823 q 0,3.716876 -3.08689,6.215793 -2.93991,2.39392 -6.92977,2.39392 -0.65098,0 -1.21796,-0.063 -0.54598,-0.063 -1.15496,-0.230992 l -0.79798,-13.775541 q 2.79291,-1.028966 5.85881,-1.028966 3.40188,0 5.27082,1.51195 2.05793,1.658945 2.05793,4.976834 z m -5.37582,-0.167994 q 0,-1.679944 -0.92397,-2.41492 -0.79797,-0.629979 -2.41492,-0.629979 v 6.488784 q 1.53295,-0.461985 2.39392,-1.280957 0.94497,-0.90297 0.94497,-2.162928 z"
       id="path1157" />
    <path
       d="m 190.85039,52.6809 -4.53584,0.839972 1.13396,9.512683 -4.64085,0.944969 V 54.48684 l -3.80087,0.335989 V 48.18705 l 11.8436,0.650978 z"
       id="path1159" />
    <path
       d="m 205.42392,62.487573 -4.61985,-0.104996 -1.13396,-3.842872 h -2.03693 l -0.62998,3.611879 -5.85881,1.301957 3.61188,-16.106463 5.64881,0.965968 z m -5.85881,-6.089797 -2.03693,-5.333822 -1.02897,5.228826 z"
       id="path1161" />
    <path
       d="m 215.92357,63.117552 -9.47069,0.440986 -0.41998,-14.615513 6.0688,-0.524983 -1.02897,10.562648 4.85084,-0.230992 z"
       id="path1163" />
    <path
       d="m 231.84102,61.941591 -6.67778,1.280958 -3.38088,-4.577848 -1.34396,5.10283 -3.0869,-1.595947 0.31499,-13.733542 5.94281,0.650979 -1.32296,6.173794 4.30486,-5.333822 4.95583,0.104996 -5.66981,6.089797 z"
       id="path1165" />
    <path
       d="m 242.40365,63.327545 -8.81971,-1.175961 -1.04996,-13.733542 8.33672,-1.070964 0.20999,3.086897 -4.43085,0.524983 0.31499,2.792906 2.8769,-0.230992 0.31499,2.351922 -2.16292,0.860971 0.20999,1.070964 3.90587,-0.335988 z"
       id="path1167" />
    <path
       d="m 257.98513,59.169684 -5.77481,4.262858 -2.8979,-6.215793 -1.88994,1.259958 0.56698,4.031866 -3.80087,1.511949 -1.19696,-14.972501 q 1.11296,-0.524982 2.8979,-0.839972 1.80594,-0.335989 3.42289,-0.335989 3.25489,0 4.28386,1.049965 0.65097,0.671978 0.65097,2.393921 0,1.910936 -1.72194,3.695876 z m -7.43375,-7.097764 q 0,-0.461984 -0.231,-0.776974 -0.23099,-0.335988 -0.73497,-0.377987 -0.31499,0 -0.88197,0.251992 -0.54598,0.230992 -1.72194,0.88197 l 0.88197,2.498917 q 1.15496,-0.398987 1.84793,-0.965968 0.83998,-0.692977 0.83998,-1.51195 z"
       id="path1169" />
  </g>
  <rect
     style="fill:none;fill-opacity:1;stroke:#000000;stroke-linejoin:bevel"
     id="rect5725"
     width="76.058983"
     height="23.009439"
     x="19.174532"
     y="15.339626" />
  <g
     aria-label="Playing"
     id="text8237"
     style="font-size:16.5391px;font-family:Arial;-inkscape-font-specification:Arial;fill:#000000;stroke-width:0.413477">
    <path
       d="M 31.208587,31.781677 V 19.942653 h 4.46588 q 1.179057,0 1.800888,0.11306 0.87218,0.145364 1.461708,0.557226 0.589528,0.403787 0.944861,1.138678 0.363408,0.734892 0.363408,1.615147 0,1.510162 -0.961012,2.560007 -0.961013,1.04177 -3.472566,1.04177 h -3.036475 v 4.813136 z m 1.566692,-6.210238 h 3.060703 q 1.518237,0 2.15622,-0.565302 0.637983,-0.565301 0.637983,-1.590919 0,-0.742967 -0.379559,-1.26789 -0.371484,-0.532998 -0.98524,-0.702589 -0.395711,-0.104984 -1.461707,-0.104984 h -3.0284 z"
       id="path1112" />
    <path
       d="M 42.021993,31.781677 V 19.942653 h 1.453632 v 11.839024 z"
       id="path1114" />
    <path
       d="m 51.325237,30.723756 q -0.807573,0.686438 -1.558616,0.969088 -0.742967,0.282651 -1.598995,0.282651 -1.413253,0 -2.172372,-0.686437 -0.759119,-0.694513 -0.759119,-1.768586 0,-0.629907 0.282651,-1.146754 0.290726,-0.524923 0.751043,-0.839876 0.468392,-0.314954 1.049845,-0.476468 0.428014,-0.113061 1.292117,-0.218045 1.76051,-0.209969 2.59231,-0.500696 0.0081,-0.298802 0.0081,-0.379559 0,-0.888331 -0.411862,-1.251739 -0.557226,-0.492619 -1.655525,-0.492619 -1.025618,0 -1.518238,0.363408 -0.484544,0.355332 -0.71874,1.26789 l -1.421329,-0.193818 q 0.193817,-0.912558 0.637983,-1.469783 0.444165,-0.565302 1.284041,-0.864104 0.839876,-0.306878 1.946252,-0.306878 1.098299,0 1.784737,0.258424 0.686437,0.258423 1.009466,0.654134 0.323029,0.387635 0.452241,0.98524 0.07268,0.371483 0.07268,1.340571 v 1.938176 q 0,2.027009 0.08883,2.568083 0.09691,0.532999 0.371484,1.025618 h -1.518238 q -0.226121,-0.452241 -0.290727,-1.057921 z m -0.121136,-3.246444 q -0.791421,0.323029 -2.374265,0.54915 -0.896406,0.129211 -1.26789,0.290726 -0.371484,0.161515 -0.573377,0.476468 -0.201893,0.306878 -0.201893,0.686437 0,0.581453 0.436089,0.969088 0.444166,0.387636 1.292117,0.387636 0.839877,0 1.494011,-0.363408 0.654134,-0.371484 0.961012,-1.009467 0.234196,-0.49262 0.234196,-1.453632 z"
       id="path1116" />
    <path
       d="m 54.862408,35.084652 -0.161515,-1.364799 q 0.476469,0.129212 0.831801,0.129212 0.484544,0 0.77527,-0.161515 0.290727,-0.161514 0.476469,-0.452241 0.137287,-0.218045 0.444165,-1.082148 0.04038,-0.121136 0.129212,-0.355332 l -3.254521,-8.59258 h 1.566692 l 1.784737,4.966576 q 0.347257,0.94486 0.621832,1.98663 0.250347,-1.001391 0.597604,-1.954327 l 1.833191,-4.998879 h 1.453632 l -3.262596,8.721791 q -0.524922,1.413254 -0.815649,1.946252 -0.387635,0.71874 -0.88833,1.049845 -0.500696,0.339181 -1.195209,0.339181 -0.419938,0 -0.936785,-0.177666 z"
       id="path1118" />
    <path
       d="m 63.204642,21.61433 v -1.671677 h 1.453632 v 1.671677 z m 0,10.167347 v -8.576428 h 1.453632 v 8.576428 z"
       id="path1120" />
    <path
       d="m 66.871024,31.781677 v -8.576428 h 1.308268 v 1.219436 q 0.944861,-1.413254 2.729598,-1.413254 0.77527,0 1.421329,0.282651 0.654134,0.274575 0.977164,0.726816 0.323029,0.452241 0.452241,1.074073 0.08076,0.403786 0.08076,1.413253 v 5.273453 h -1.453632 v -5.216923 q 0,-0.888331 -0.16959,-1.32442 -0.169591,-0.444166 -0.60568,-0.702589 -0.428014,-0.266499 -1.009467,-0.266499 -0.928709,0 -1.607071,0.589528 -0.670285,0.589529 -0.670285,2.236978 v 4.683925 z"
       id="path1122" />
    <path
       d="m 75.802782,32.492342 1.413253,0.209969 q 0.08883,0.654134 0.49262,0.952936 0.541074,0.403787 1.477859,0.403787 1.009467,0 1.558616,-0.403787 0.54915,-0.403786 0.742968,-1.130602 0.11306,-0.444166 0.104984,-1.865495 -0.952936,1.122527 -2.374265,1.122527 -1.768585,0 -2.737673,-1.275966 -0.969088,-1.275965 -0.969088,-3.060702 0,-1.227512 0.444165,-2.261205 0.444165,-1.04177 1.284041,-1.607071 0.847952,-0.565302 1.986631,-0.565302 1.518237,0 2.503477,1.227512 v -1.033694 h 1.340572 v 7.413523 q 0,2.002781 -0.411863,2.834582 -0.403786,0.839876 -1.292117,1.32442 -0.880255,0.484544 -2.172372,0.484544 -1.534389,0 -2.47925,-0.694513 -0.944861,-0.686437 -0.912558,-2.075463 z m 1.203284,-5.152318 q 0,1.687828 0.670286,2.463099 0.670286,0.77527 1.679752,0.77527 1.001391,0 1.679753,-0.767195 0.678361,-0.77527 0.678361,-2.422719 0,-1.574768 -0.702588,-2.374266 -0.694513,-0.799497 -1.679753,-0.799497 -0.969088,0 -1.647449,0.791421 -0.678362,0.783347 -0.678362,2.333887 z"
       id="path1124" />
  </g>
</svg>
