<?xml version="1.0" encoding="UTF-8" standalone="no"?>
<svg xmlns:xlink="http://www.w3.org/1999/xlink" height="2000.0px" width="2750.0px" xmlns="http://www.w3.org/2000/svg">
  <g transform="matrix(5.0, 0.0, 0.0, 5.0, 0.0, 0.0)">
    <use data-characterId="16" height="367.35" id="teeth" transform="matrix(1.0, 0.0, 0.0, 1.0, 29.65, -95.05)" width="676.1" xlink:href="#sprite0"/>
    <use data-characterId="23" height="256.35" id="floor" transform="matrix(1.0, 0.0, 0.0, 1.0, 6.8, 192.25)" width="581.9" xlink:href="#sprite1"/>
    <use data-characterId="7" height="423.4" transform="matrix(1.0, 0.0, 0.0, 1.0, -8.6, -10.3)" width="572.5" xlink:href="#shape5"/>
  </g>
  <defs>
    <g id="sprite0" transform="matrix(1.0, 0.0, 0.0, 1.0, 276.55, 213.15)">
      <use data-characterId="9" height="355.9" transform="matrix(1.0, 0.0, 0.0, 1.0, -267.75, -213.15)" width="531.8" xlink:href="#shape0"/>
      <use data-characterId="11" height="215.0" transform="matrix(1.0, 0.0, 0.0, 1.0, -215.95, -82.0)" width="615.5" xlink:href="#text0"/>
      <use data-characterId="12" height="141.65" transform="matrix(0.9529, 0.0, 0.0, 0.9364, -272.0517, -58.1819)" width="575.75" xlink:href="#shape1"/>
      <use data-characterId="13" height="141.5" transform="matrix(0.9529, 0.0, 0.0, 0.9364, -276.5736, -74.4662)" width="567.4" xlink:href="#shape2"/>
    </g>
    <g id="shape0" transform="matrix(1.0, 0.0, 0.0, 1.0, 267.75, 213.15)">
      <path d="M264.05 142.75 L-267.75 142.75 -267.75 -213.15 264.05 -213.15 264.05 142.75" fill="#ffffff" fill-rule="evenodd" stroke="none"/>
    </g>
    <g id="shape1" transform="matrix(1.0, 0.0, 0.0, 1.0, 272.5, 269.75)">
      <path d="M161.95 -200.25 L184.2 -200.25 182.75 -206.05 162.75 -206.05 170.0 -256.7 194.65 -158.8 200.6 -200.25 210.75 -200.25 224.45 -145.7 232.25 -200.25 242.9 -200.25 243.1 -199.45 243.2 -200.25 262.7 -200.25 269.3 -173.95 273.05 -200.25 285.1 -200.25 284.95 -200.85 303.25 -128.1 -272.5 -128.1 -258.5 -226.05 -253.45 -206.05 -261.35 -206.05 -262.15 -200.25 -252.0 -200.25 -245.9 -176.1 -242.45 -200.25 -224.85 -200.25 -224.95 -200.85 -212.1 -149.7 -204.9 -200.25 -186.8 -200.25 -183.15 -185.75 -178.25 -220.15 -174.7 -206.05 -180.25 -206.05 -181.05 -200.25 -173.2 -200.25 -167.5 -177.5 -164.25 -200.25 -147.55 -200.25 -134.1 -146.85 -126.45 -200.25 -113.0 -200.25 -113.15 -200.85 -108.25 -181.4 -105.55 -200.25 -78.15 -200.25 -78.3 -200.8 -77.05 -195.8 -76.4 -200.25 -64.35 -200.25 -64.5 -200.85 -52.05 -151.3 -45.05 -200.25 -28.35 -200.25 -18.85 -162.55 -13.45 -200.25 -2.35 -200.25 4.45 -173.3 8.3 -200.25 24.5 -200.25 27.75 -187.5 29.55 -200.25 39.25 -200.25 37.8 -206.05 30.4 -206.05 33.05 -224.85 50.05 -157.35 56.2 -200.25 73.8 -200.25 76.75 -188.5 78.45 -200.25 90.0 -200.25 90.7 -197.4 91.1 -200.25 97.05 -200.25 108.25 -155.9 114.55 -200.25 127.55 -200.25 131.0 -186.55 132.95 -200.25 144.05 -200.25 146.85 -189.05 148.45 -200.25 159.1 -200.25 158.95 -200.8 160.9 -193.0 161.95 -200.25 M201.4 -206.05 L204.25 -226.0 209.3 -206.05 201.4 -206.05 M241.45 -206.05 L233.1 -206.05 236.1 -227.2 241.45 -206.05 M261.25 -206.05 L244.05 -206.05 250.25 -249.6 261.25 -206.05 M273.9 -206.05 L277.4 -230.75 283.65 -206.05 273.9 -206.05 M9.1 -206.05 L14.15 -241.4 23.05 -206.05 9.1 -206.05 M57.0 -206.05 L62.55 -244.9 72.35 -206.05 57.0 -206.05 M79.25 -206.05 L82.6 -229.55 88.5 -206.05 79.25 -206.05 M95.6 -206.05 L91.9 -206.05 93.25 -215.4 95.6 -206.05 M115.4 -206.05 L119.25 -233.1 126.1 -206.05 115.4 -206.05 M133.75 -206.05 L136.95 -228.4 142.6 -206.05 133.75 -206.05 M149.3 -206.05 L152.3 -227.2 157.65 -206.05 149.3 -206.05 M-125.65 -206.05 L-121.6 -234.35 -114.45 -206.05 -125.65 -206.05 M-163.4 -206.05 L-158.2 -242.6 -149.0 -206.05 -163.4 -206.05 M-104.75 -206.05 L-95.65 -269.75 -79.6 -206.05 -104.75 -206.05 M-75.6 -206.05 L-72.05 -230.8 -65.8 -206.05 -75.6 -206.05 M-44.2 -206.05 L-39.0 -242.6 -29.8 -206.05 -44.2 -206.05 M-3.8 -206.05 L-12.65 -206.05 -9.45 -228.4 -3.8 -206.05 M-241.65 -206.05 L-236.1 -245.0 -226.3 -206.05 -241.65 -206.05 M-204.05 -206.05 L-198.35 -246.15 -188.25 -206.05 -204.05 -206.05" fill="url(#gradient0)" fill-rule="evenodd" stroke="none"/>
      <path d="M162.75 -206.05 L182.75 -206.05 184.2 -200.25 161.95 -200.25 162.75 -206.05 M158.95 -200.8 L159.1 -200.25 148.45 -200.25 149.3 -206.05 157.65 -206.05 158.9 -200.95 158.95 -200.8 M144.05 -200.25 L132.95 -200.25 133.75 -206.05 142.6 -206.05 143.85 -200.95 143.9 -200.8 144.05 -200.25 M127.55 -200.25 L114.55 -200.25 115.4 -206.05 126.1 -206.05 127.55 -200.25 M97.05 -200.25 L91.1 -200.25 91.9 -206.05 95.6 -206.05 96.7 -201.7 96.9 -200.85 97.05 -200.25 M90.0 -200.25 L78.45 -200.25 79.25 -206.05 88.5 -206.05 90.0 -200.25 M73.8 -200.25 L56.2 -200.25 57.0 -206.05 72.35 -206.05 72.45 -205.65 72.5 -205.4 73.8 -200.25 M30.4 -206.05 L37.8 -206.05 39.25 -200.25 29.55 -200.25 30.4 -206.05 M24.5 -200.25 L8.3 -200.25 9.1 -206.05 23.05 -206.05 24.15 -201.7 24.35 -200.85 24.5 -200.25 M-2.35 -200.25 L-13.45 -200.25 -12.65 -206.05 -3.8 -206.05 -2.7 -201.7 -2.5 -200.85 -2.35 -200.25 M-28.35 -200.25 L-45.05 -200.25 -44.2 -206.05 -29.8 -206.05 -28.7 -201.7 -28.5 -200.85 -28.35 -200.25 M-64.5 -200.85 L-64.35 -200.25 -76.4 -200.25 -75.6 -206.05 -65.8 -206.05 -64.7 -201.7 -64.5 -200.85 M-78.3 -200.8 L-78.15 -200.25 -105.55 -200.25 -104.75 -206.05 -79.6 -206.05 -78.35 -200.95 -78.3 -200.8 M-113.15 -200.85 L-113.0 -200.25 -126.45 -200.25 -125.65 -206.05 -114.45 -206.05 -113.35 -201.7 -113.15 -200.85 M-147.55 -200.25 L-164.25 -200.25 -163.4 -206.05 -149.0 -206.05 -147.9 -201.7 -147.7 -200.85 -147.55 -200.25 M-173.2 -200.25 L-181.05 -200.25 -180.25 -206.05 -174.7 -206.05 -174.5 -205.2 -173.2 -200.25 M-186.8 -200.25 L-204.9 -200.25 -204.05 -206.05 -188.25 -206.05 -186.95 -200.95 -186.95 -200.8 -186.8 -200.25 M-224.95 -200.85 L-224.85 -200.25 -242.45 -200.25 -241.65 -206.05 -226.3 -206.05 -225.2 -201.7 -224.95 -200.85 M-252.0 -200.25 L-262.15 -200.25 -261.35 -206.05 -253.45 -206.05 -252.0 -200.25 M284.95 -200.85 L285.1 -200.25 273.05 -200.25 273.9 -206.05 283.65 -206.05 284.75 -201.7 284.95 -200.85 M262.7 -200.25 L243.2 -200.25 244.05 -206.05 261.25 -206.05 262.7 -200.25 M242.9 -200.25 L232.25 -200.25 233.1 -206.05 241.45 -206.05 242.9 -200.25 M210.75 -200.25 L200.6 -200.25 201.4 -206.05 209.3 -206.05 210.4 -201.7 210.6 -200.85 210.75 -200.25" fill="#ffffff" fill-rule="evenodd" stroke="none"/>
      <path d="M145.5 -194.45 L146.85 -189.05 147.65 -194.45 160.55 -194.45 160.9 -193.0 161.1 -194.35 161.1 -194.45 185.7 -194.45 187.15 -188.65 131.3 -188.65 132.1 -194.45 145.5 -194.45 M130.45 -188.65 L112.9 -188.65 113.75 -194.45 129.0 -194.45 130.45 -188.65 M99.95 -188.65 L76.8 -188.65 77.6 -194.45 98.5 -194.45 99.95 -188.65 M42.15 -188.65 L27.9 -188.65 28.75 -194.45 40.7 -194.45 42.15 -188.65 M55.35 -194.45 L75.25 -194.45 76.75 -188.65 54.5 -188.65 55.35 -194.45 M7.45 -194.45 L26.0 -194.45 27.45 -188.65 6.6 -188.65 7.45 -194.45 M288.0 -188.65 L271.4 -188.65 272.25 -194.45 286.55 -194.45 288.0 -188.65 M265.6 -188.65 L230.6 -188.65 231.45 -194.45 264.15 -194.45 265.6 -188.65 M213.65 -188.65 L198.9 -188.65 199.75 -194.45 212.2 -194.45 213.65 -188.65 M-183.85 -188.65 L-206.55 -188.65 -205.7 -194.45 -185.3 -194.45 -183.85 -188.65 M-182.75 -188.65 L-181.9 -194.45 -171.75 -194.45 -170.3 -188.65 -182.75 -188.65 M-165.05 -194.45 L-146.1 -194.45 -144.65 -188.65 -165.9 -188.65 -165.05 -194.45 M-221.95 -188.65 L-244.15 -188.65 -243.3 -194.45 -223.4 -194.45 -221.95 -188.65 M-15.15 -188.65 L-14.3 -194.45 -0.9 -194.45 0.55 -188.65 -15.15 -188.65 M-249.1 -188.65 L-263.85 -188.65 -263.0 -194.45 -250.55 -194.45 -249.1 -188.65 M-25.4 -188.65 L-46.7 -188.65 -45.85 -194.45 -26.85 -194.45 -25.4 -188.65 M-61.45 -188.65 L-107.25 -188.65 -106.4 -194.45 -62.9 -194.45 -61.45 -188.65 M-110.1 -188.65 L-128.15 -188.65 -127.3 -194.45 -111.55 -194.45 -110.1 -188.65" fill="#ffff00" fill-rule="evenodd" stroke="none"/>
    </g>
    <linearGradient gradientTransform="matrix(2.0E-4, -0.0373, 0.0865, 5.0E-4, 11.8, -156.45)" gradientUnits="userSpaceOnUse" id="gradient0" spreadMethod="pad" x1="-819.2" x2="819.2">
      <stop offset="0.0" stop-color="#ff6cb6"/>
      <stop offset="1.0" stop-color="#ffaed7"/>
    </linearGradient>
    <g id="shape2" transform="matrix(1.0, 0.0, 0.0, 1.0, 283.7, 81.45)">
      <path d="M18.5 -23.6 Q18.4 -20.3 20.45 -22.4 L20.45 -23.05 18.7 -24.5 18.5 -23.6 M18.7 -50.45 L18.5 -49.55 Q18.4 -46.3 20.45 -48.4 L20.45 -49.0 18.7 -50.45 M0.4 -61.4 L0.4 -62.0 -1.35 -63.45 -1.55 -62.55 Q-1.65 -59.25 0.4 -61.4 M10.25 -57.8 Q10.15 -54.55 12.2 -56.65 L12.2 -57.3 Q11.45 -58.15 10.45 -58.7 L10.25 -57.8 M56.3 -51.9 Q56.15 -48.65 58.25 -50.75 L58.25 -51.4 56.45 -52.8 Q56.3 -52.4 56.3 -51.9 M40.95 -64.9 Q40.8 -61.65 42.9 -63.75 L42.9 -64.35 41.1 -65.8 Q40.95 -65.35 40.95 -64.9 M144.85 -14.7 L140.35 16.7 137.4 4.95 137.35 4.8 130.45 -22.65 124.5 19.2 112.75 -27.35 106.4 17.1 101.75 49.85 90.4 4.9 90.2 4.05 89.1 -0.3 86.75 -9.65 84.2 8.35 76.1 -23.8 70.25 17.25 66.0 0.35 65.95 0.1 56.05 -39.15 48.0 17.1 48.05 17.1 43.55 48.4 32.6 4.9 32.4 4.05 31.3 -0.3 26.55 -19.1 21.4 17.1 21.25 18.25 20.9 17.0 20.15 14.0 17.85 4.9 17.65 4.05 16.55 -0.3 7.65 -35.65 0.1 17.1 0.15 17.1 -2.05 32.45 -9.0 4.9 -9.2 4.05 -10.3 -0.3 -15.95 -22.65 -21.65 17.1 -21.6 17.1 -25.35 43.2 -35.0 4.9 -35.2 4.05 -36.3 -0.3 -45.5 -36.85 -53.2 17.1 -58.55 54.45 -71.0 4.9 -71.2 4.05 -72.3 -0.3 -78.55 -25.05 -83.55 9.95 -84.8 4.95 -84.85 4.8 -102.15 -64.0 -114.75 24.35 -116.7 16.55 -116.6 17.1 -119.65 4.9 -119.85 4.05 -120.95 -0.3 -128.1 -28.6 -134.65 17.1 -134.6 17.1 -140.6 58.9 -154.2 4.9 -154.4 4.05 -155.5 -0.3 -164.7 -36.85 -172.4 17.1 -174.0 28.25 -179.7 5.5 -181.0 0.55 -184.75 -14.4 -189.65 20.0 -193.45 4.95 -193.45 4.8 -194.75 -0.3 -204.85 -40.4 -213.05 17.1 -218.6 56.05 -231.45 4.9 -231.7 4.05 -232.8 -0.3 -242.6 -39.25 -250.65 17.1 -250.6 17.1 -252.4 29.65 -265.0 -20.3 -273.45 38.85 -273.45 -35.4 -273.45 -36.05 -273.45 -81.45 283.7 -81.45 283.7 25.8 278.45 4.9 278.25 4.05 277.15 -0.3 270.9 -25.0 264.9 17.1 262.8 31.8 243.75 -43.85 236.6 6.3 229.6 -21.45 224.1 17.1 217.95 60.05 204.1 4.9 203.9 4.05 202.8 -0.3 197.75 -20.25 192.4 17.1 192.45 17.1 188.15 46.95 177.55 4.9 177.35 4.05 176.25 -0.3 163.5 -50.95 154.6 11.3 154.6 11.4 154.5 12.05 154.4 12.75 152.45 4.95 152.4 4.8 151.15 -0.3 145.8 -21.45 145.1 -16.45 143.8 -17.4 143.65 -16.5 Q143.55 -13.9 144.85 -14.7 M126.7 -38.4 L124.95 -39.85 124.75 -38.9 Q124.65 -35.65 126.7 -37.75 L126.7 -38.4 M130.25 -46.65 Q129.5 -47.5 128.45 -48.1 128.3 -47.65 128.3 -47.2 128.15 -43.95 130.25 -46.05 L130.25 -46.65 M145.6 -28.35 L145.6 -28.95 143.8 -30.4 143.65 -29.5 Q143.5 -26.2 145.6 -28.35 M103.1 -8.25 L103.1 -8.9 101.3 -10.35 101.15 -9.4 Q101.0 -6.15 103.1 -8.25 M94.05 -48.35 Q93.95 -45.1 96.0 -47.2 L96.0 -47.85 94.25 -49.3 94.05 -48.35 M101.9 -33.05 L101.9 -33.65 100.15 -35.1 99.95 -34.2 Q99.85 -30.95 101.9 -33.05 M110.75 -38.65 Q110.6 -38.2 110.6 -37.75 110.45 -34.5 112.55 -36.6 L112.55 -37.2 110.75 -38.65 M116.1 -44.85 Q116.25 -45.3 116.05 -45.5 L114.3 -46.9 Q114.15 -46.45 114.15 -46.0 114.0 -42.75 116.1 -44.85 M109.4 -53.1 Q109.3 -49.85 111.35 -51.95 L111.35 -52.55 109.6 -54.0 109.4 -53.1 M86.55 -63.75 L86.55 -64.35 84.8 -65.8 84.6 -64.9 Q84.5 -61.65 86.55 -63.75 M147.35 -63.45 Q147.2 -63.0 147.2 -62.55 147.05 -59.25 149.15 -61.4 149.3 -61.8 149.1 -62.0 148.4 -62.85 147.35 -63.45 M123.15 -68.45 L123.15 -69.1 121.4 -70.55 121.2 -69.6 Q121.1 -66.35 123.15 -68.45 M160.95 -76.7 Q161.1 -77.15 160.9 -77.35 L159.15 -78.8 159.0 -77.9 Q158.85 -74.6 160.95 -76.7 M71.65 -35.4 Q71.5 -32.1 73.6 -34.25 73.75 -34.65 73.55 -34.85 L71.8 -36.3 71.65 -35.4 M43.3 -31.85 Q43.2 -28.6 45.25 -30.7 L45.25 -31.3 43.5 -32.75 43.3 -31.85 M-255.35 -30.65 Q-255.45 -27.4 -253.4 -29.5 -253.25 -29.95 -253.4 -30.15 L-255.15 -31.55 -255.35 -30.65 M-264.8 -67.25 Q-264.9 -64.0 -262.85 -66.1 -262.7 -66.55 -262.85 -66.7 -263.55 -67.6 -264.6 -68.15 L-264.8 -67.25 M-258.7 -50.45 L-258.9 -49.55 Q-259.0 -46.3 -256.95 -48.4 -256.8 -48.85 -256.95 -49.0 -257.65 -49.85 -258.7 -50.45 M263.65 -28.35 Q263.8 -28.75 263.6 -28.95 L261.85 -30.4 261.7 -29.5 Q261.55 -26.2 263.65 -28.35 M270.7 -47.2 L270.7 -47.85 268.95 -49.3 268.75 -48.35 Q268.65 -45.1 270.7 -47.2 M274.25 -73.8 L272.5 -75.25 272.3 -74.35 Q272.2 -71.1 274.25 -73.2 L274.25 -73.8 M209.3 -1.8 L207.55 -3.25 207.4 -2.35 Q207.25 0.95 209.35 -1.2 209.5 -1.6 209.3 -1.8 M211.1 -12.7 L210.9 -11.8 Q210.8 -8.5 212.85 -10.6 L212.85 -11.25 211.1 -12.7 M214.45 -42.45 Q214.35 -39.2 216.4 -41.3 L216.4 -41.95 214.65 -43.4 214.45 -42.45 M229.4 -25.95 L229.4 -26.6 227.65 -28.05 227.45 -27.1 Q227.35 -23.85 229.4 -25.95 M177.45 -10.05 L175.7 -11.5 175.5 -10.6 Q175.4 -7.35 177.45 -9.45 L177.45 -10.05 M197.55 -37.75 L197.5 -38.4 195.75 -39.85 195.6 -38.9 Q195.45 -35.65 197.55 -37.75 M189.25 -28.35 L189.25 -28.95 187.5 -30.4 187.3 -29.5 Q187.2 -26.2 189.25 -28.35 M184.55 -51.95 L184.55 -52.55 182.75 -54.0 Q182.6 -53.55 182.6 -53.1 182.45 -49.85 184.55 -51.95 M180.4 -75.25 L180.25 -74.35 Q180.1 -71.1 182.2 -73.2 182.35 -73.6 182.15 -73.8 L180.4 -75.25 M240.6 -62.25 Q240.45 -61.8 240.45 -61.35 240.3 -58.1 242.4 -60.2 242.55 -60.65 242.35 -60.8 241.65 -61.65 240.6 -62.25 M203.85 -64.9 Q203.7 -61.65 205.8 -63.75 L205.8 -64.35 204.0 -65.8 Q203.85 -65.35 203.85 -64.9 M-140.65 6.2 L-140.85 7.1 Q-140.95 10.35 -138.9 8.25 -138.75 7.8 -138.9 7.65 L-140.65 6.2 M-19.65 -33.05 Q-19.5 -33.5 -19.7 -33.65 L-21.45 -35.1 -21.6 -34.2 Q-21.75 -30.95 -19.65 -33.05 M-4.35 -43.1 L-6.1 -44.55 -6.3 -43.65 Q-6.4 -40.4 -4.3 -42.5 -4.2 -42.95 -4.35 -43.1 M-51.55 -20.05 Q-51.4 -20.5 -51.55 -20.7 L-53.3 -22.15 -53.5 -21.2 Q-53.6 -17.95 -51.55 -20.05 M-58.2 -4.7 Q-58.35 -1.45 -56.25 -3.55 -56.1 -4.0 -56.25 -4.15 -57.0 -5.0 -58.05 -5.6 L-58.2 -4.7 M-63.35 -29.5 Q-63.2 -29.95 -63.35 -30.15 L-65.1 -31.55 -65.3 -30.65 Q-65.4 -27.4 -63.35 -29.5 M-42.85 -51.9 Q-43.0 -48.65 -40.9 -50.75 -40.75 -51.2 -40.9 -51.4 -41.65 -52.25 -42.7 -52.8 L-42.85 -51.9 M-69.25 -69.1 L-71.0 -70.55 -71.2 -69.6 Q-71.3 -66.35 -69.25 -68.45 -69.1 -68.9 -69.25 -69.1 M-72.8 -62.0 Q-73.5 -62.85 -74.55 -63.45 L-74.75 -62.55 Q-74.85 -59.25 -72.8 -61.4 -72.65 -61.8 -72.8 -62.0 M-26.35 -67.25 Q-26.45 -64.0 -24.4 -66.1 -24.25 -66.55 -24.4 -66.7 L-26.15 -68.15 -26.35 -67.25 M-117.25 -25.95 Q-117.35 -22.7 -115.3 -24.8 -115.15 -25.25 -115.3 -25.4 L-117.05 -26.85 -117.25 -25.95 M-136.55 -0.6 L-138.3 -2.05 -138.5 -1.15 Q-138.6 2.1 -136.55 0.0 -136.4 -0.45 -136.55 -0.6 M-143.6 -33.65 L-145.4 -35.1 -145.55 -34.2 Q-145.7 -30.95 -143.6 -33.05 -143.45 -33.5 -143.6 -33.65 M-146.0 -28.95 L-147.75 -30.4 -147.95 -29.5 Q-148.05 -26.2 -145.95 -28.35 -145.8 -28.75 -146.0 -28.95 M-157.35 -33.0 Q-157.5 -29.75 -155.4 -31.85 -155.25 -32.3 -155.4 -32.5 L-157.2 -33.95 -157.35 -33.0 M-122.35 -50.75 Q-122.2 -51.2 -122.35 -51.4 L-124.15 -52.8 -124.3 -51.9 Q-124.45 -48.65 -122.35 -50.75 M-137.3 -56.65 Q-137.4 -53.35 -135.35 -55.5 -135.2 -55.9 -135.35 -56.1 -136.1 -56.95 -137.1 -57.55 L-137.3 -56.65 M-126.5 -72.9 L-126.7 -72.0 Q-126.8 -68.7 -124.7 -70.8 -124.6 -71.25 -124.75 -71.45 -125.45 -72.3 -126.5 -72.9 M-93.65 -51.9 Q-93.75 -48.65 -91.65 -50.75 -91.55 -51.2 -91.7 -51.4 -92.4 -52.25 -93.45 -52.8 L-93.65 -51.9 M-83.4 -52.55 Q-84.15 -53.4 -85.2 -54.0 L-85.35 -53.1 Q-85.5 -49.85 -83.4 -51.95 -83.25 -52.4 -83.4 -52.55 M-107.8 -69.6 Q-107.9 -66.35 -105.85 -68.45 -105.7 -68.9 -105.85 -69.1 -106.6 -69.95 -107.6 -70.55 L-107.8 -69.6 M-171.95 -16.5 Q-171.8 -16.95 -171.95 -17.15 L-173.7 -18.6 -173.9 -17.7 Q-174.0 -14.4 -171.95 -16.5 M-186.9 -16.5 Q-187.0 -13.25 -184.95 -15.35 -184.8 -15.8 -184.95 -15.95 -185.65 -16.8 -186.7 -17.4 L-186.9 -16.5 M-192.0 -30.7 Q-191.85 -31.15 -192.0 -31.3 L-193.8 -32.75 -193.95 -31.85 Q-194.1 -28.6 -192.0 -30.7 M-186.1 -42.5 Q-185.95 -42.95 -186.1 -43.1 -186.85 -43.95 -187.9 -44.55 L-188.05 -43.65 Q-188.2 -40.4 -186.1 -42.5 M-214.45 -9.45 Q-214.3 -9.9 -214.45 -10.05 -215.15 -10.9 -216.2 -11.5 L-216.4 -10.6 Q-216.5 -7.35 -214.45 -9.45 M-229.8 -43.65 Q-229.65 -44.1 -229.8 -44.3 L-231.55 -45.75 -231.75 -44.85 Q-231.85 -41.55 -229.8 -43.65 M-219.75 -28.05 L-219.95 -27.1 Q-220.05 -23.85 -218.0 -25.95 -217.85 -26.4 -218.0 -26.6 L-219.75 -28.05 M-233.9 -61.1 L-234.1 -60.15 Q-234.2 -56.9 -232.15 -59.0 -232.0 -59.45 -232.15 -59.65 L-233.9 -61.1 M-209.7 -69.1 L-211.5 -70.55 -211.65 -69.6 Q-211.8 -66.35 -209.7 -68.45 -209.55 -68.9 -209.7 -69.1 M-170.75 -55.5 Q-170.6 -55.9 -170.75 -56.1 L-172.55 -57.55 -172.7 -56.65 Q-172.85 -53.4 -170.75 -55.5 M-164.45 -64.9 Q-164.55 -61.65 -162.5 -63.75 -162.35 -64.2 -162.5 -64.35 L-164.25 -65.8 -164.45 -64.9 M-200.25 -54.3 Q-200.1 -54.75 -200.3 -54.9 L-202.05 -56.35 -202.25 -55.45 Q-202.35 -52.2 -200.25 -54.3 M-196.15 -68.15 L-196.35 -67.25 Q-196.45 -64.0 -194.35 -66.1 -194.2 -66.55 -194.4 -66.7 -195.1 -67.6 -196.15 -68.15" fill="#000000" fill-rule="evenodd" stroke="none"/>
      <path d="M40.95 -64.9 Q40.95 -65.35 41.1 -65.8 L42.9 -64.35 42.9 -63.75 Q40.8 -61.65 40.95 -64.9 M56.3 -51.9 Q56.3 -52.4 56.45 -52.8 L58.25 -51.4 58.25 -50.75 Q56.15 -48.65 56.3 -51.9 M10.25 -57.8 L10.45 -58.7 Q11.45 -58.15 12.2 -57.3 L12.2 -56.65 Q10.15 -54.55 10.25 -57.8 M0.4 -61.4 Q-1.65 -59.25 -1.55 -62.55 L-1.35 -63.45 0.4 -62.0 0.4 -61.4 M18.7 -50.45 L20.45 -49.0 20.45 -48.4 Q18.4 -46.3 18.5 -49.55 L18.7 -50.45 M18.5 -23.6 L18.7 -24.5 20.45 -23.05 20.45 -22.4 Q18.4 -20.3 18.5 -23.6 M144.85 -14.7 Q143.55 -13.9 143.65 -16.5 L143.8 -17.4 145.1 -16.45 144.85 -14.7 M-273.45 -36.05 L-273.45 -35.4 Q-275.55 -33.3 -275.4 -36.55 L-275.25 -37.45 -273.45 -36.05 M43.3 -31.85 L43.5 -32.75 45.25 -31.3 45.25 -30.7 Q43.2 -28.6 43.3 -31.85 M71.65 -35.4 L71.8 -36.3 73.55 -34.85 Q73.75 -34.65 73.6 -34.25 71.5 -32.1 71.65 -35.4 M160.95 -76.7 Q158.85 -74.6 159.0 -77.9 L159.15 -78.8 160.9 -77.35 Q161.1 -77.15 160.95 -76.7 M123.15 -68.45 Q121.1 -66.35 121.2 -69.6 L121.4 -70.55 123.15 -69.1 123.15 -68.45 M147.35 -63.45 Q148.4 -62.85 149.1 -62.0 149.3 -61.8 149.15 -61.4 147.05 -59.25 147.2 -62.55 147.2 -63.0 147.35 -63.45 M86.55 -63.75 Q84.5 -61.65 84.6 -64.9 L84.8 -65.8 86.55 -64.35 86.55 -63.75 M109.4 -53.1 L109.6 -54.0 111.35 -52.55 111.35 -51.95 Q109.3 -49.85 109.4 -53.1 M116.1 -44.85 Q114.0 -42.75 114.15 -46.0 114.15 -46.45 114.3 -46.9 L116.05 -45.5 Q116.25 -45.3 116.1 -44.85 M110.75 -38.65 L112.55 -37.2 112.55 -36.6 Q110.45 -34.5 110.6 -37.75 110.6 -38.2 110.75 -38.65 M101.9 -33.05 Q99.85 -30.95 99.95 -34.2 L100.15 -35.1 101.9 -33.65 101.9 -33.05 M94.05 -48.35 L94.25 -49.3 96.0 -47.85 96.0 -47.2 Q93.95 -45.1 94.05 -48.35 M103.1 -8.25 Q101.0 -6.15 101.15 -9.4 L101.3 -10.35 103.1 -8.9 103.1 -8.25 M145.6 -28.35 Q143.5 -26.2 143.65 -29.5 L143.8 -30.4 145.6 -28.95 145.6 -28.35 M130.25 -46.65 L130.25 -46.05 Q128.15 -43.95 128.3 -47.2 128.3 -47.65 128.45 -48.1 129.5 -47.5 130.25 -46.65 M126.7 -38.4 L126.7 -37.75 Q124.65 -35.65 124.75 -38.9 L124.95 -39.85 126.7 -38.4 M203.85 -64.9 Q203.85 -65.35 204.0 -65.8 L205.8 -64.35 205.8 -63.75 Q203.7 -61.65 203.85 -64.9 M240.6 -62.25 Q241.65 -61.65 242.35 -60.8 242.55 -60.65 242.4 -60.2 240.3 -58.1 240.45 -61.35 240.45 -61.8 240.6 -62.25 M180.4 -75.25 L182.15 -73.8 Q182.35 -73.6 182.2 -73.2 180.1 -71.1 180.25 -74.35 L180.4 -75.25 M184.55 -51.95 Q182.45 -49.85 182.6 -53.1 182.6 -53.55 182.75 -54.0 L184.55 -52.55 184.55 -51.95 M189.25 -28.35 Q187.2 -26.2 187.3 -29.5 L187.5 -30.4 189.25 -28.95 189.25 -28.35 M197.55 -37.75 Q195.45 -35.65 195.6 -38.9 L195.75 -39.85 197.5 -38.4 197.55 -37.75 M177.45 -10.05 L177.45 -9.45 Q175.4 -7.35 175.5 -10.6 L175.7 -11.5 177.45 -10.05 M229.4 -25.95 Q227.35 -23.85 227.45 -27.1 L227.65 -28.05 229.4 -26.6 229.4 -25.95 M214.45 -42.45 L214.65 -43.4 216.4 -41.95 216.4 -41.3 Q214.35 -39.2 214.45 -42.45 M211.1 -12.7 L212.85 -11.25 212.85 -10.6 Q210.8 -8.5 210.9 -11.8 L211.1 -12.7 M209.3 -1.8 Q209.5 -1.6 209.35 -1.2 207.25 0.95 207.4 -2.35 L207.55 -3.25 209.3 -1.8 M274.25 -73.8 L274.25 -73.2 Q272.2 -71.1 272.3 -74.35 L272.5 -75.25 274.25 -73.8 M270.7 -47.2 Q268.65 -45.1 268.75 -48.35 L268.95 -49.3 270.7 -47.85 270.7 -47.2 M263.65 -28.35 Q261.55 -26.2 261.7 -29.5 L261.85 -30.4 263.6 -28.95 Q263.8 -28.75 263.65 -28.35 M-258.7 -50.45 Q-257.65 -49.85 -256.95 -49.0 -256.8 -48.85 -256.95 -48.4 -259.0 -46.3 -258.9 -49.55 L-258.7 -50.45 M-264.8 -67.25 L-264.6 -68.15 Q-263.55 -67.6 -262.85 -66.7 -262.7 -66.55 -262.85 -66.1 -264.9 -64.0 -264.8 -67.25 M-255.35 -30.65 L-255.15 -31.55 -253.4 -30.15 Q-253.25 -29.95 -253.4 -29.5 -255.45 -27.4 -255.35 -30.65 M-281.75 -25.4 Q-281.55 -25.25 -281.7 -24.8 -283.8 -22.7 -283.7 -25.95 L-283.5 -26.85 -281.75 -25.4 M-196.15 -68.15 Q-195.1 -67.6 -194.4 -66.7 -194.2 -66.55 -194.35 -66.1 -196.45 -64.0 -196.35 -67.25 L-196.15 -68.15 M-200.25 -54.3 Q-202.35 -52.2 -202.25 -55.45 L-202.05 -56.35 -200.3 -54.9 Q-200.1 -54.75 -200.25 -54.3 M-164.45 -64.9 L-164.25 -65.8 -162.5 -64.35 Q-162.35 -64.2 -162.5 -63.75 -164.55 -61.65 -164.45 -64.9 M-170.75 -55.5 Q-172.85 -53.4 -172.7 -56.65 L-172.55 -57.55 -170.75 -56.1 Q-170.6 -55.9 -170.75 -55.5 M-209.7 -69.1 Q-209.55 -68.9 -209.7 -68.45 -211.8 -66.35 -211.65 -69.6 L-211.5 -70.55 -209.7 -69.1 M-233.9 -61.1 L-232.15 -59.65 Q-232.0 -59.45 -232.15 -59.0 -234.2 -56.9 -234.1 -60.15 L-233.9 -61.1 M-219.75 -28.05 L-218.0 -26.6 Q-217.85 -26.4 -218.0 -25.95 -220.05 -23.85 -219.95 -27.1 L-219.75 -28.05 M-229.8 -43.65 Q-231.85 -41.55 -231.75 -44.85 L-231.55 -45.75 -229.8 -44.3 Q-229.65 -44.1 -229.8 -43.65 M-214.45 -9.45 Q-216.5 -7.35 -216.4 -10.6 L-216.2 -11.5 Q-215.15 -10.9 -214.45 -10.05 -214.3 -9.9 -214.45 -9.45 M-186.1 -42.5 Q-188.2 -40.4 -188.05 -43.65 L-187.9 -44.55 Q-186.85 -43.95 -186.1 -43.1 -185.95 -42.95 -186.1 -42.5 M-192.0 -30.7 Q-194.1 -28.6 -193.95 -31.85 L-193.8 -32.75 -192.0 -31.3 Q-191.85 -31.15 -192.0 -30.7 M-186.9 -16.5 L-186.7 -17.4 Q-185.65 -16.8 -184.95 -15.95 -184.8 -15.8 -184.95 -15.35 -187.0 -13.25 -186.9 -16.5 M-171.95 -16.5 Q-174.0 -14.4 -173.9 -17.7 L-173.7 -18.6 -171.95 -17.15 Q-171.8 -16.95 -171.95 -16.5 M-107.8 -69.6 L-107.6 -70.55 Q-106.6 -69.95 -105.85 -69.1 -105.7 -68.9 -105.85 -68.45 -107.9 -66.35 -107.8 -69.6 M-83.4 -52.55 Q-83.25 -52.4 -83.4 -51.95 -85.5 -49.85 -85.35 -53.1 L-85.2 -54.0 Q-84.15 -53.4 -83.4 -52.55 M-93.65 -51.9 L-93.45 -52.8 Q-92.4 -52.25 -91.7 -51.4 -91.55 -51.2 -91.65 -50.75 -93.75 -48.65 -93.65 -51.9 M-126.5 -72.9 Q-125.45 -72.3 -124.75 -71.45 -124.6 -71.25 -124.7 -70.8 -126.8 -68.7 -126.7 -72.0 L-126.5 -72.9 M-137.3 -56.65 L-137.1 -57.55 Q-136.1 -56.95 -135.35 -56.1 -135.2 -55.9 -135.35 -55.5 -137.4 -53.35 -137.3 -56.65 M-122.35 -50.75 Q-124.45 -48.65 -124.3 -51.9 L-124.15 -52.8 -122.35 -51.4 Q-122.2 -51.2 -122.35 -50.75 M-157.35 -33.0 L-157.2 -33.95 -155.4 -32.5 Q-155.25 -32.3 -155.4 -31.85 -157.5 -29.75 -157.35 -33.0 M-146.0 -28.95 Q-145.8 -28.75 -145.95 -28.35 -148.05 -26.2 -147.95 -29.5 L-147.75 -30.4 -146.0 -28.95 M-143.6 -33.65 Q-143.45 -33.5 -143.6 -33.05 -145.7 -30.95 -145.55 -34.2 L-145.4 -35.1 -143.6 -33.65 M-136.55 -0.6 Q-136.4 -0.45 -136.55 0.0 -138.6 2.1 -138.5 -1.15 L-138.3 -2.05 -136.55 -0.6 M-117.25 -25.95 L-117.05 -26.85 -115.3 -25.4 Q-115.15 -25.25 -115.3 -24.8 -117.35 -22.7 -117.25 -25.95 M-26.35 -67.25 L-26.15 -68.15 -24.4 -66.7 Q-24.25 -66.55 -24.4 -66.1 -26.45 -64.0 -26.35 -67.25 M-72.8 -62.0 Q-72.65 -61.8 -72.8 -61.4 -74.85 -59.25 -74.75 -62.55 L-74.55 -63.45 Q-73.5 -62.85 -72.8 -62.0 M-69.25 -69.1 Q-69.1 -68.9 -69.25 -68.45 -71.3 -66.35 -71.2 -69.6 L-71.0 -70.55 -69.25 -69.1 M-42.85 -51.9 L-42.7 -52.8 Q-41.65 -52.25 -40.9 -51.4 -40.75 -51.2 -40.9 -50.75 -43.0 -48.65 -42.85 -51.9 M-63.35 -29.5 Q-65.4 -27.4 -65.3 -30.65 L-65.1 -31.55 -63.35 -30.15 Q-63.2 -29.95 -63.35 -29.5 M-58.2 -4.7 L-58.05 -5.6 Q-57.0 -5.0 -56.25 -4.15 -56.1 -4.0 -56.25 -3.55 -58.35 -1.45 -58.2 -4.7 M-51.55 -20.05 Q-53.6 -17.95 -53.5 -21.2 L-53.3 -22.15 -51.55 -20.7 Q-51.4 -20.5 -51.55 -20.05 M-4.35 -43.1 Q-4.2 -42.95 -4.3 -42.5 -6.4 -40.4 -6.3 -43.65 L-6.1 -44.55 -4.35 -43.1 M-19.65 -33.05 Q-21.75 -30.95 -21.6 -34.2 L-21.45 -35.1 -19.7 -33.65 Q-19.5 -33.5 -19.65 -33.05 M-140.65 6.2 L-138.9 7.65 Q-138.75 7.8 -138.9 8.25 -140.95 10.35 -140.85 7.1 L-140.65 6.2" fill="#ffffff" fill-rule="evenodd" stroke="none"/>
    </g>
    <g id="sprite1" transform="matrix(1.0, 0.0, 0.0, 1.0, 284.4, 120.0)">
      <use data-characterId="17" height="227.1" transform="matrix(1.0, 0.0, 0.0, 1.0, -258.85, -120.0)" width="522.35" xlink:href="#shape3"/>
      <use data-characterId="18" height="256.35" transform="matrix(1.0, 0.0, 0.0, 1.0, -284.4, -120.0)" width="581.9" xlink:href="#shape4"/>
    </g>
    <g id="shape3" transform="matrix(1.0, 0.0, 0.0, 1.0, 258.85, 120.0)">
      <path d="M49.05 -120.0 L83.05 -113.05 128.25 -113.05 210.55 -102.1 136.9 -102.1 83.05 -113.05 54.7 -113.05 35.35 -120.0 49.05 -120.0 M54.7 -113.05 L85.4 -102.1 136.9 -102.1 196.65 -89.95 263.5 -89.95 263.5 -76.35 196.65 -89.95 119.45 -89.95 85.4 -102.1 54.75 -102.1 76.85 -89.95 48.65 -89.95 34.7 -102.1 20.5 -102.1 29.25 -89.95 48.65 -89.95 69.0 -72.1 109.2 -72.1 76.85 -89.95 119.45 -89.95 119.7 -89.85 169.4 -72.1 263.5 -72.1 263.5 -47.8 237.4 -47.8 169.4 -72.1 109.2 -72.1 153.25 -47.8 96.8 -47.8 131.15 -17.8 81.0 -17.8 59.45 -47.8 31.6 -47.8 44.05 -17.8 81.0 -17.8 107.1 18.65 59.2 18.65 76.7 60.85 137.4 60.85 107.1 18.65 172.8 18.65 131.15 -17.8 207.7 -17.8 263.5 13.0 263.5 18.65 172.8 18.65 221.1 60.85 263.5 60.85 263.5 97.95 221.1 60.85 137.4 60.85 170.55 107.1 95.9 107.1 76.7 60.85 24.85 60.85 31.95 107.1 -31.85 107.1 -26.75 60.85 -90.5 60.85 -72.95 18.65 -22.1 18.65 -18.1 -17.8 -57.8 -17.8 -45.35 -47.8 -14.8 -47.8 -12.15 -72.1 -35.25 -72.1 -27.9 -89.85 -27.85 -89.95 -10.2 -89.95 -8.85 -102.1 -22.8 -102.1 -18.25 -113.05 -27.45 -113.05 -35.3 -102.1 -50.9 -102.1 -64.8 -89.95 -95.25 -89.95 -73.15 -102.1 -50.9 -102.1 -38.35 -113.05 -53.3 -113.05 -73.15 -102.1 -107.05 -102.1 -141.15 -89.95 -95.25 -89.95 -127.6 -72.1 -85.2 -72.1 -64.8 -89.95 -44.0 -89.95 -35.3 -102.1 -22.8 -102.1 -27.85 -89.95 -44.0 -89.95 -56.8 -72.1 -35.25 -72.1 -45.35 -47.8 -74.25 -47.8 -95.75 -17.8 -147.3 -17.8 -113.0 -47.8 -171.65 -47.8 -127.6 -72.1 -191.05 -72.1 -141.15 -89.95 -226.05 -89.75 -258.15 -83.25 -258.15 -89.95 -226.05 -89.75 -165.6 -102.1 -258.15 -102.1 -258.85 -102.1 -258.15 -102.15 -165.6 -113.05 -258.15 -113.05 -258.15 -113.6 -174.7 -120.0 -113.55 -120.0 -165.6 -113.05 -111.8 -113.05 -77.75 -120.0 -57.0 -120.0 -76.4 -113.05 -53.3 -113.05 -40.75 -120.0 -30.4 -120.0 -38.35 -113.05 -27.45 -113.05 -22.45 -120.0 -15.35 -120.0 -18.25 -113.05 -7.65 -113.05 -6.9 -120.0 -2.95 -120.0 -1.9 -113.05 -7.65 -113.05 -8.85 -102.1 -0.2 -102.1 -1.9 -113.05 4.5 -113.05 1.6 -120.0 7.7 -120.0 12.65 -113.05 4.5 -113.05 9.05 -102.1 -0.2 -102.1 1.65 -89.95 14.1 -89.95 9.05 -102.1 20.5 -102.1 12.65 -113.05 22.15 -113.05 14.25 -120.0 22.35 -120.0 Q28.65 -116.55 34.9 -113.05 L54.7 -113.05 M263.5 -95.05 L210.55 -102.1 263.5 -102.1 263.5 -95.05 M263.5 -108.95 L209.55 -113.05 128.25 -113.05 76.15 -120.0 119.0 -120.0 209.55 -113.05 263.5 -113.05 263.5 -108.95 M34.7 -102.1 L54.75 -102.1 34.9 -113.05 22.15 -113.05 34.7 -102.1 M42.05 -72.1 L59.45 -47.8 96.8 -47.8 69.0 -72.1 42.05 -72.1 29.25 -89.95 14.1 -89.95 14.15 -89.85 21.5 -72.1 42.05 -72.1 M1.7 -89.85 L1.65 -89.95 -10.2 -89.95 -10.2 -89.85 -12.15 -72.1 4.4 -72.1 1.7 -89.85 M4.4 -72.1 L8.15 -47.8 31.6 -47.8 21.5 -72.1 4.4 -72.1 M8.15 -47.8 L-14.8 -47.8 -18.1 -17.8 12.75 -17.8 8.15 -47.8 M12.75 -17.8 L18.35 18.65 59.2 18.65 44.05 -17.8 12.75 -17.8 M263.5 -38.45 L263.5 -17.8 207.7 -17.8 153.25 -47.8 237.4 -47.8 263.5 -38.45 M-109.65 107.1 L-185.3 107.1 -152.15 60.85 -90.5 60.85 -109.65 107.1 M-258.15 79.15 L-258.15 60.85 -237.3 60.85 -258.15 79.15 M-258.15 18.65 L-258.15 -0.1 -226.1 -17.8 -147.3 -17.8 -188.95 18.65 -121.9 18.65 -152.15 60.85 -237.3 60.85 -188.95 18.65 -258.15 18.65 M-258.15 -17.8 L-258.15 -47.8 -171.65 -47.8 -226.1 -17.8 -258.15 -17.8 M-258.15 -48.1 L-258.15 -72.1 -191.05 -72.1 -258.15 -48.1 M18.35 18.65 L-22.1 18.65 -26.75 60.85 24.85 60.85 18.35 18.65 M-113.0 -47.8 L-74.25 -47.8 -56.8 -72.1 -85.2 -72.1 -113.0 -47.8 M-76.4 -113.05 L-111.8 -113.05 -165.6 -102.1 -107.05 -102.1 -76.4 -113.05 M-95.75 -17.8 L-57.8 -17.8 -72.95 18.65 -121.9 18.65 -95.75 -17.8" fill="#bff2ff" fill-rule="evenodd" stroke="none"/>
      <path d="M83.05 -113.05 L136.9 -102.1 210.55 -102.1 128.25 -113.05 83.05 -113.05 49.05 -120.0 76.15 -120.0 128.25 -113.05 209.55 -113.05 263.5 -108.95 263.5 -102.1 210.55 -102.1 263.5 -95.05 263.5 -89.95 196.65 -89.95 136.9 -102.1 85.4 -102.1 54.7 -113.05 83.05 -113.05 M35.35 -120.0 L54.7 -113.05 34.9 -113.05 54.75 -102.1 34.7 -102.1 48.65 -89.95 76.85 -89.95 54.75 -102.1 85.4 -102.1 119.45 -89.95 196.65 -89.95 263.5 -76.35 263.5 -72.1 169.4 -72.1 119.7 -89.85 119.45 -89.95 76.85 -89.95 109.2 -72.1 69.0 -72.1 48.65 -89.95 29.25 -89.95 20.5 -102.1 34.7 -102.1 22.15 -113.05 34.9 -113.05 Q28.65 -116.55 22.35 -120.0 L35.35 -120.0 M1.6 -120.0 L4.5 -113.05 12.65 -113.05 7.7 -120.0 14.25 -120.0 22.15 -113.05 12.65 -113.05 20.5 -102.1 9.05 -102.1 4.5 -113.05 -1.9 -113.05 -0.2 -102.1 9.05 -102.1 14.1 -89.95 1.65 -89.95 -0.2 -102.1 -8.85 -102.1 -7.65 -113.05 -18.25 -113.05 -15.35 -120.0 -6.9 -120.0 -7.65 -113.05 -1.9 -113.05 -2.95 -120.0 1.6 -120.0 M81.0 -17.8 L44.05 -17.8 31.6 -47.8 59.45 -47.8 81.0 -17.8 131.15 -17.8 96.8 -47.8 153.25 -47.8 109.2 -72.1 169.4 -72.1 237.4 -47.8 263.5 -47.8 263.5 -38.45 237.4 -47.8 153.25 -47.8 207.7 -17.8 263.5 -17.8 263.5 13.0 207.7 -17.8 131.15 -17.8 172.8 18.65 263.5 18.65 263.5 60.85 221.1 60.85 172.8 18.65 107.1 18.65 137.4 60.85 76.7 60.85 59.2 18.65 107.1 18.65 81.0 -17.8 M8.15 -47.8 L12.75 -17.8 -18.1 -17.8 -14.8 -47.8 8.15 -47.8 4.4 -72.1 21.5 -72.1 31.6 -47.8 8.15 -47.8 M1.7 -89.85 L4.4 -72.1 -12.15 -72.1 -10.2 -89.85 -10.2 -89.95 1.65 -89.95 1.7 -89.85 M42.05 -72.1 L21.5 -72.1 14.15 -89.85 14.1 -89.95 29.25 -89.95 42.05 -72.1 69.0 -72.1 96.8 -47.8 59.45 -47.8 42.05 -72.1 M12.75 -17.8 L44.05 -17.8 59.2 18.65 18.35 18.65 12.75 -17.8 M119.0 -120.0 L263.5 -120.0 263.5 -113.05 209.55 -113.05 119.0 -120.0 M263.5 97.95 L263.5 107.1 170.55 107.1 137.4 60.85 221.1 60.85 263.5 97.95 M95.9 107.1 L31.95 107.1 24.85 60.85 76.7 60.85 95.9 107.1 M-31.85 107.1 L-109.65 107.1 -90.5 60.85 -152.15 60.85 -185.3 107.1 -258.15 107.1 -258.15 79.15 -237.3 60.85 -258.15 60.85 -258.15 18.65 -188.95 18.65 -147.3 -17.8 -226.1 -17.8 -258.15 -0.1 -258.15 -17.8 -226.1 -17.8 -171.65 -47.8 -258.15 -47.8 -258.15 -48.1 -191.05 -72.1 -258.15 -72.1 -258.15 -83.25 -226.05 -89.75 -141.15 -89.95 -191.05 -72.1 -127.6 -72.1 -171.65 -47.8 -113.0 -47.8 -147.3 -17.8 -95.75 -17.8 -74.25 -47.8 -45.35 -47.8 -35.25 -72.1 -56.8 -72.1 -44.0 -89.95 -27.85 -89.95 -22.8 -102.1 -35.3 -102.1 -27.45 -113.05 -38.35 -113.05 -30.4 -120.0 -22.45 -120.0 -27.45 -113.05 -18.25 -113.05 -22.8 -102.1 -8.85 -102.1 -10.2 -89.95 -27.85 -89.95 -27.9 -89.85 -35.25 -72.1 -12.15 -72.1 -14.8 -47.8 -45.35 -47.8 -57.8 -17.8 -18.1 -17.8 -22.1 18.65 -72.95 18.65 -90.5 60.85 -26.75 60.85 -31.85 107.1 M-258.15 -89.95 L-258.15 -102.1 -165.6 -102.1 -226.05 -89.75 -258.15 -89.95 M-258.15 -102.15 L-258.15 -113.05 -165.6 -113.05 -258.15 -102.15 M-258.15 -113.6 L-258.15 -120.0 -174.7 -120.0 -258.15 -113.6 M-113.55 -120.0 L-77.75 -120.0 -111.8 -113.05 -165.6 -113.05 -113.55 -120.0 M-57.0 -120.0 L-40.75 -120.0 -53.3 -113.05 -76.4 -113.05 -57.0 -120.0 M18.35 18.65 L24.85 60.85 -26.75 60.85 -22.1 18.65 18.35 18.65 M-73.15 -102.1 L-53.3 -113.05 -38.35 -113.05 -50.9 -102.1 -73.15 -102.1 -95.25 -89.95 -64.8 -89.95 -50.9 -102.1 -35.3 -102.1 -44.0 -89.95 -64.8 -89.95 -85.2 -72.1 -127.6 -72.1 -95.25 -89.95 -141.15 -89.95 -107.05 -102.1 -73.15 -102.1 M-113.0 -47.8 L-85.2 -72.1 -56.8 -72.1 -74.25 -47.8 -113.0 -47.8 M-76.4 -113.05 L-107.05 -102.1 -165.6 -102.1 -111.8 -113.05 -76.4 -113.05 M-95.75 -17.8 L-121.9 18.65 -72.95 18.65 -57.8 -17.8 -95.75 -17.8 M-121.9 18.65 L-188.95 18.65 -237.3 60.85 -152.15 60.85 -121.9 18.65" fill="#ffffff" fill-rule="evenodd" stroke="none"/>
    </g>
    <g id="shape4" transform="matrix(1.0, 0.0, 0.0, 1.0, 284.4, 120.0)">
      <path d="M-275.25 -120.0 L288.1 -120.0 297.5 136.35 -284.4 135.2 -275.25 -120.0" fill="url(#gradient1)" fill-rule="evenodd" stroke="none"/>
    </g>
    <linearGradient gradientTransform="matrix(0.0, 0.0801, -0.0396, 0.0, -18.55, -103.95)" gradientUnits="userSpaceOnUse" id="gradient1" spreadMethod="pad" x1="-819.2" x2="819.2">
      <stop offset="0.0" stop-color="#000000" stop-opacity="0.5019608"/>
      <stop offset="1.0" stop-color="#010101" stop-opacity="0.0"/>
    </linearGradient>
    <g id="shape5" transform="matrix(1.0, 0.0, 0.0, 1.0, 8.6, 10.3)">
      <path d="M563.9 -10.3 L563.9 413.1 -8.6 413.1 -8.6 -10.3 563.9 -10.3 M537.55 3.0 L12.4 3.0 Q8.05 3.0 5.0 6.05 2.0 9.1 2.0 13.4 L2.0 386.7 Q2.0 391.0 5.0 394.05 8.05 397.1 12.4 397.1 L537.55 397.1 Q541.8 397.1 544.85 394.05 547.9 391.0 547.9 386.7 L547.9 13.4 Q547.9 9.1 544.85 6.05 541.8 3.0 537.55 3.0" fill="#000000" fill-rule="evenodd" stroke="none"/>
    </g>
  </defs>
</svg>
