<?xml version="1.0" encoding="UTF-8" standalone="no"?>
<svg
   viewBox="0 0 600 600"
   version="1.1"
   id="svg63"
   sodipodi:docname="Bronco Trolleys.svg"
   inkscape:version="1.3 (0e150ed6c4, 2023-07-21)"
   xml:space="preserve"
   xmlns:inkscape="http://www.inkscape.org/namespaces/inkscape"
   xmlns:sodipodi="http://sodipodi.sourceforge.net/DTD/sodipodi-0.dtd"
   xmlns="http://www.w3.org/2000/svg"
   xmlns:svg="http://www.w3.org/2000/svg"><defs
     id="defs67" /><sodipodi:namedview
     id="namedview65"
     pagecolor="#505050"
     bordercolor="#eeeeee"
     borderopacity="1"
     inkscape:pageshadow="0"
     inkscape:pageopacity="0"
     inkscape:pagecheckerboard="0"
     showgrid="false"
     inkscape:zoom="0.47140451"
     inkscape:cx="277.89297"
     inkscape:cy="391.38361"
     inkscape:window-width="1280"
     inkscape:window-height="648"
     inkscape:window-x="311"
     inkscape:window-y="1080"
     inkscape:window-maximized="1"
     inkscape:current-layer="svg63"
     inkscape:showpageshadow="0"
     inkscape:deskcolor="#505050" /><path
     fill="none"
     stroke="#000"
     stroke-width="5.43"
     d="M5.27 5.28h589.69v589.68H5.26z"
     id="path39" /><path
     fill="none"
     stroke="#000"
     stroke-linejoin="round"
     stroke-width="4"
     d="M396.65 34.86h175.18v87.6H396.65z"
     id="path45" /><g
     style="line-height:1.25;-inkscape-font-specification:'Special Elite';text-align:center"
     text-anchor="middle"
     word-spacing="0"
     id="g49"><path
       d="M296.1 93.01h-8.52v16.16h-7.4V93.01h-27.5v-8.87l27.8-32.39h7.1v35.1h8.53zm-15.92-6.17V60.93l-22.25 25.91zm64.82-6.4q0 15.47-4.86 22.72-4.82 7.2-15 7.2-10.33 0-15.11-7.32-4.75-7.33-4.75-22.52 0-15.31 4.82-22.6 4.82-7.33 15.04-7.33 10.34 0 15.08 7.45 4.78 7.4 4.78 22.4zm-10.14 17.51q1.35-3.12 1.81-7.33.5-4.24.5-10.18 0-5.86-.5-10.18-.46-4.32-1.85-7.32-1.35-2.97-3.7-4.48-2.31-1.5-5.98-1.5-3.62 0-6.01 1.5-2.36 1.5-3.74 4.55-1.31 2.86-1.82 7.44-.46 4.6-.46 10.07 0 6.02.43 10.06.42 4.05 1.8 7.25 1.28 3.01 3.6 4.6 2.35 1.57 6.2 1.57 3.63 0 6.02-1.5 2.39-1.5 3.7-4.55z"
       style="-inkscape-font-specification:sans-serif"
       stroke-width="4.23"
       aria-label="40"
       font-family="sans-serif"
       font-size="78.98"
       font-weight="400"
       letter-spacing="0"
       id="path47" /></g><path
     fill="none"
     stroke="#000"
     stroke-linecap="round"
     stroke-linejoin="round"
     stroke-width="4"
     d="m396.8 122.31 38.19-87.3m3.7 87.3 38.2-87.3m3.69 87.3 38.2-87.3m-291.09-.51h144.63v89.39H227.69zm295.21 87.81 38.19-87.3"
     id="path51" /><path
     fill="none"
     stroke="#000"
     stroke-linejoin="round"
     stroke-width="4"
     d="M29.99 35.77h175.18v87.6H30z"
     id="path53" /><path
     fill="none"
     stroke="#000"
     stroke-linecap="round"
     stroke-linejoin="round"
     stroke-width="4"
     d="m30.13 123.22 38.2-87.3m3.7 87.3 38.2-87.3m3.69 87.3 38.2-87.3m4.11 87.3 38.2-87.3"
     id="path55" /><rect
     style="fill:none;stroke:#000000;stroke-opacity:1;stroke-width:4;stroke-dasharray:none"
     id="rect1"
     width="552.28558"
     height="368.42502"
     x="23.073074"
     y="166.56262"
     ry="26.257736" /><rect
     style="fill:none;stroke:#000000;stroke-width:4.34;stroke-miterlimit:3.2;stroke-dasharray:none"
     id="rect2"
     width="196.87054"
     height="78.236504"
     x="192.73433"
     y="183.27475"
     ry="19.15309" /><path
     d="m 434.75516,209.32715 q 0,5.328 -5.568,8.976 -5.328,3.504 -12.576,3.504 -3.216,0 -5.52,-1.104 -2.256,-1.104 -5.952,-4.272 l 5.76,-9.984 q 1.632,3.984 6.288,3.984 2.832,0 4.416,-1.104 1.632,-1.104 1.632,-3.456 0,-1.632 -3.984,-2.928 -6.048,-1.968 -7.392,-2.736 -3.984,-2.208 -3.984,-6 0,-4.08 4.752,-6.96 4.752,-2.928 10.608,-2.928 3.456,0 5.76,0.72 2.304,0.672 4.896,2.64 l -5.424,7.968 q -0.432,-1.68 -1.536,-2.688 -1.104,-1.008 -2.88,-1.008 -1.92,0 -3.312,0.816 -1.344,0.768 -1.344,2.352 0,1.296 3.984,2.544 5.232,1.632 7.392,3.264 3.984,2.976 3.984,8.4 z m 26.87998,7.104 q -2.208,2.16 -4.464,3.12 -2.256,1.008 -5.136,1.008 -6.576,0 -11.088,-5.04 -4.464,-5.088 -4.464,-12.432 0,-7.728 3.648,-12.96 3.888,-5.568 10.032,-5.568 2.496,0 3.552,0.192 1.056,0.144 3.024,1.008 v 13.44 q -1.104,-0.72 -2.784,-0.72 -2.304,0 -4.032,1.152 -1.68,1.152 -1.68,3.168 0,1.632 1.584,2.784 1.584,1.152 3.888,1.152 1.2,0 2.112,-0.336 0.96,-0.384 1.584,-1.392 z m 30.24002,-14.544 q 0,2.448 -0.768,5.664 -1.248,5.184 -3.792,8.304 -3.504,4.272 -8.976,4.272 -6.144,0 -10.368,-4.944 -4.224,-4.944 -4.224,-11.904 0,-7.776 3.936,-13.2 4.176,-5.76 10.656,-5.76 5.808,0 9.648,5.136 3.888,5.136 3.888,12.432 z m -8.784,-3.456 q 0,-1.584 -1.056,-2.736 -1.056,-1.152 -2.544,-1.152 -2.112,0 -3.888,1.728 -2.016,1.968 -2.016,5.04 0,1.776 1.008,2.976 1.056,1.152 2.64,1.152 2.016,0 3.936,-2.304 1.92,-2.304 1.92,-4.704 z m 43.29598,11.184 -10.128,11.328 -11.808,-13.056 -2.736,11.664 h -6.864 l -1.056,-32.976 q 1.92,-1.2 4.752,-1.872 2.88,-0.672 6,-0.672 6.528,0 10.608,2.496 4.368,2.688 4.368,7.392 0,2.832 -1.776,5.232 -1.776,2.352 -5.04,4.176 z m -17.808,-13.152 q 0,-1.44 -1.248,-2.496 -1.248,-1.056 -2.832,-1.056 -0.864,0 -1.68,0.48 l 1.104,7.104 q 0.576,0.096 0.816,0.096 1.536,0 2.688,-1.2 1.152,-1.2 1.152,-2.928 z m 40.12801,-11.472 -0.24,12.72 -12.192,0.432 v 3.696 l 6.768,-0.24 v 4.368 l -5.376,0.48 v 3.408 l 10.128,0.24 0.672,6.336 -18.768,3.936 -0.96,-33.648 z"
     id="text1"
     style="font-size:48px;font-family:ComixHeavy;-inkscape-font-specification:ComixHeavy;text-align:center;text-anchor:middle;stroke-width:4;stroke-miterlimit:3.2"
     aria-label="score" /><text
     xml:space="preserve"
     style="font-style:normal;font-variant:normal;font-weight:normal;font-stretch:normal;font-size:69.3333px;font-family:ComixHeavy;-inkscape-font-specification:ComixHeavy;text-align:center;text-anchor:middle;fill:#000000;fill-opacity:1;stroke:none;stroke-width:4;stroke-miterlimit:3.2"
     x="425.52182"
     y="281.52502"
     id="text2"><tspan
       sodipodi:role="line"
       id="tspan1"
       x="425.52182"
       y="281.52502">3</tspan></text><rect
     style="fill:none;fill-opacity:1;stroke:#000000;stroke-width:2.8675;stroke-miterlimit:3.2;stroke-opacity:1"
     id="rect3"
     width="104.67895"
     height="85.706528"
     x="213.50319"
     y="323.93057"
     ry="11.462266"
     transform="matrix(0.9812275,0.19285379,-0.30375886,0.95274895,0,0)" /><g
     id="text3"
     style="font-size:34.8682px;line-height:0.9;font-family:C059;-inkscape-font-specification:C059;text-align:center;text-anchor:middle;fill:none;stroke:#000000;stroke-width:2.01163;stroke-miterlimit:3.2"
     aria-label="BRONCO&#10;TROLLEY"><path
       d="m 213.10548,195.19482 v 1.63881 h 0.62763 c 1.98748,0.0349 2.64998,0.13947 2.92892,0.48815 0.20921,0.31381 0.20921,0.38355 0.20921,2.16183 v 16.59726 c 0,1.77828 0,1.84802 -0.20921,2.16183 -0.27894,0.34868 -0.94144,0.48815 -2.92892,0.48815 h -0.62763 v 1.63881 h 12.65715 c 6.0322,0 9.65849,-2.54538 9.65849,-6.83417 0,-3.48682 -2.19669,-5.4743 -6.97364,-6.31114 1.67368,-0.34868 2.44078,-0.6625 3.34735,-1.32499 1.4296,-1.08092 2.3013,-2.78946 2.3013,-4.53287 0,-2.26643 -1.39472,-4.46313 -3.41708,-5.33483 -1.25526,-0.55789 -2.99867,-0.83684 -5.05589,-0.83684 z m 7.671,11.33216 v -7.94994 c 0,-1.35986 0.45329,-1.70855 2.3013,-1.74341 h 1.39473 c 1.60394,0 2.92893,0.27894 3.66116,0.73223 1.25526,0.7671 1.91775,2.23156 1.91775,4.18418 0,3.45195 -1.67367,4.77694 -6.17167,4.77694 z m 0,1.63881 h 3.0684 c 5.33484,0 7.28746,1.4296 7.28746,5.2651 0,2.23156 -0.7671,3.8355 -2.12696,4.498 -1.08092,0.55789 -2.54538,0.80196 -4.74208,0.80196 h -1.46446 c -1.74341,0 -2.0921,-0.34868 -2.02236,-2.19669 z m 25.03537,0 h 2.02236 c 3.52168,0.13947 4.91641,1.56907 5.29996,5.40457 l 0.17434,1.77828 c 0.41842,3.94011 1.70855,5.54404 4.46313,5.54404 2.8592,0 4.21906,-1.91775 4.32366,-6.10193 h -1.46446 c -0.13948,2.4059 -0.5579,3.45195 -1.49934,3.45195 -0.80197,0 -1.15065,-0.59276 -1.74341,-2.99867 l -0.55789,-2.19669 c -0.7671,-3.20788 -2.12696,-4.67234 -4.84668,-5.3697 5.02102,-0.69737 7.42693,-2.71972 7.42693,-6.24141 0,-3.97498 -3.34735,-6.24141 -9.20521,-6.24141 h -12.06439 v 1.63881 h 0.62763 c 1.98748,0.0349 2.64998,0.13947 2.92892,0.48815 0.20921,0.31381 0.20921,0.38355 0.20921,2.16183 v 16.63213 c 0,1.74341 0,1.81315 -0.20921,2.16183 -0.27894,0.34868 -0.94144,0.45328 -2.92892,0.45328 h -0.62763 v 1.63881 h 11.43677 v -1.63881 h -0.62763 c -1.98749,0 -2.64998,-0.1046 -2.92893,-0.45328 -0.20921,-0.34868 -0.20921,-0.41842 -0.20921,-2.16183 z m 0,-1.63881 v -7.671 c -0.0697,-1.91775 0.10461,-2.05722 2.40591,-2.02235 h 1.88288 c 3.45195,0 5.02102,1.46446 5.02102,4.63747 0,1.77827 -0.45329,3.13813 -1.35986,3.87037 -0.8717,0.73223 -2.44077,1.18551 -4.11445,1.18551 z m 30.09124,-11.85518 c -3.10327,0 -5.75325,0.97631 -7.88021,2.92893 -2.68485,2.47564 -4.25392,6.2414 -4.25392,10.21638 0,3.90524 1.60393,7.70587 4.25392,10.14664 2.09209,1.91775 4.74207,2.92893 7.74074,2.92893 6.83416,0 11.99466,-5.64865 11.99466,-13.11044 0,-7.39206 -5.1605,-13.11044 -11.85519,-13.11044 z m -0.0349,1.6388 c 2.33617,0 4.28879,1.08092 5.54405,2.99867 1.29012,2.05722 1.74341,4.18418 1.74341,8.47297 0,4.25392 -0.45329,6.38088 -1.74341,8.47297 -1.25526,1.95262 -3.17301,2.99867 -5.64865,2.99867 -2.47564,0 -4.3934,-1.01118 -5.64865,-2.99867 -1.32499,-2.09209 -1.74341,-4.21905 -1.74341,-8.54271 0,-4.21905 0.45329,-6.31114 1.74341,-8.40323 1.29012,-2.02236 3.13814,-2.99867 5.75325,-2.99867 z m 21.30447,-1.11578 h -7.18285 v 1.63881 h 0.87171 c 1.98748,0.0697 2.64998,0.31381 3.20787,1.15065 v 14.81898 c 0,4.74208 -0.6625,5.75325 -4.04471,5.92759 v 1.63881 h 9.93744 v -1.63881 c -3.34735,-0.17434 -4.00985,-1.18551 -4.00985,-5.92759 v -12.9361 l 15.55122,20.99065 h 1.46446 v -18.09659 c 0,-4.74208 0.6625,-5.75325 4.04471,-5.92759 v -1.63881 h -9.93743 v 1.63881 c 3.34735,0.17434 4.00984,1.15065 4.00984,5.92759 v 10.94861 z m 42.08595,-0.24408 h -1.32499 l -1.39472,2.05723 c -2.54538,-1.84802 -3.83551,-2.33617 -6.24141,-2.33617 -3.31248,0 -6.13681,1.39473 -8.47297,4.18418 -2.23157,2.64998 -3.27762,5.57891 -3.27762,9.17034 0,7.53153 4.91642,12.86636 11.78546,12.86636 5.57891,0 9.13546,-3.27761 9.93743,-9.13547 l -1.6388,-0.27894 c -0.94144,5.19536 -3.59143,7.77561 -7.88022,7.77561 -5.16049,0 -7.60126,-3.55656 -7.60126,-11.08809 0,-3.97497 0.52302,-6.59009 1.70854,-8.68218 1.08091,-1.95262 3.20787,-3.17301 5.47431,-3.17301 2.44077,0 4.6026,1.29013 5.92759,3.52169 0.6625,1.15065 1.15065,2.44077 1.98749,5.19536 h 1.5342 z m 16.45781,-0.27894 c -3.10327,0 -5.75326,0.97631 -7.88022,2.92893 -2.68485,2.47564 -4.25392,6.2414 -4.25392,10.21638 0,3.90524 1.60394,7.70587 4.25392,10.14664 2.09209,1.91775 4.74208,2.92893 7.74074,2.92893 6.83417,0 11.99466,-5.64865 11.99466,-13.11044 0,-7.39206 -5.16049,-13.11044 -11.85518,-13.11044 z m -0.0349,1.6388 c 2.33617,0 4.28879,1.08092 5.54404,2.99867 1.29012,2.05722 1.74341,4.18418 1.74341,8.47297 0,4.25392 -0.45329,6.38088 -1.74341,8.47297 -1.25525,1.95262 -3.17301,2.99867 -5.64865,2.99867 -2.47564,0 -4.39339,-1.01118 -5.64865,-2.99867 -1.32499,-2.09209 -1.74341,-4.21905 -1.74341,-8.54271 0,-4.21905 0.45329,-6.31114 1.74341,-8.40323 1.29013,-2.02236 3.13814,-2.99867 5.75326,-2.99867 z"
       id="path5" /><path
       d="m 226.49487,226.5762 h -20.88605 l -0.52302,9.69336 h 1.49933 c 0.24408,-1.74341 0.52302,-3.0684 0.94144,-4.18419 0.90657,-2.58024 2.58025,-3.87037 4.95128,-3.87037 1.15066,0 1.63881,0.38355 1.63881,1.25526 v 17.99199 c 0,1.77828 0,1.84801 -0.20921,2.16183 -0.27894,0.34868 -0.94144,0.48815 -2.92893,0.48815 h -0.90657 v 1.63881 h 11.95979 v -1.63881 h -0.90657 c -1.95262,0 -2.61512,-0.13947 -2.89406,-0.48815 -0.20921,-0.31382 -0.20921,-0.38355 -0.20921,-2.16183 v -17.99199 c 0,-0.87171 0.48815,-1.25526 1.6388,-1.25526 2.12696,0 3.83551,1.18552 4.70721,3.27761 0.52302,1.29013 0.87171,2.78946 1.15065,4.77695 h 1.49933 z m 10.32101,12.97097 h 2.02235 c 3.52169,0.13947 4.91642,1.56907 5.29997,5.40457 l 0.17434,1.77828 c 0.41842,3.9401 1.70854,5.54404 4.46313,5.54404 2.85919,0 4.21905,-1.91775 4.32366,-6.10193 h -1.46447 c -0.13947,2.4059 -0.55789,3.45195 -1.49933,3.45195 -0.80197,0 -1.15065,-0.59276 -1.74341,-2.99867 l -0.55789,-2.19669 c -0.7671,-3.20788 -2.12696,-4.67234 -4.84668,-5.36971 5.02102,-0.69736 7.42692,-2.71972 7.42692,-6.2414 0,-3.97498 -3.34734,-6.24141 -9.2052,-6.24141 h -12.0644 v 1.6388 h 0.62763 c 1.98749,0.0349 2.64998,0.13948 2.92893,0.48816 0.20921,0.31381 0.20921,0.38355 0.20921,2.16183 v 16.63213 c 0,1.74341 0,1.81314 -0.20921,2.16183 -0.27895,0.34868 -0.94144,0.45328 -2.92893,0.45328 h -0.62763 v 1.63881 h 11.43677 v -1.63881 h -0.62763 c -1.98748,0 -2.64998,-0.1046 -2.92892,-0.45328 -0.20921,-0.34869 -0.20921,-0.41842 -0.20921,-2.16183 z m 0,-1.63881 v -7.671 c -0.0697,-1.91775 0.1046,-2.05722 2.4059,-2.02236 h 1.88288 c 3.45196,0 5.02103,1.46447 5.02103,4.63747 0,1.77828 -0.45329,3.13814 -1.35986,3.87037 -0.87171,0.73224 -2.44078,1.18552 -4.11445,1.18552 z m 30.09124,-11.85519 c -3.10327,0 -5.75325,0.97631 -7.88021,2.92893 -2.68485,2.47565 -4.25392,6.24141 -4.25392,10.21639 0,3.90523 1.60393,7.70587 4.25392,10.14664 2.09209,1.91775 4.74207,2.92893 7.74074,2.92893 6.83416,0 11.99466,-5.64865 11.99466,-13.11044 0,-7.39206 -5.1605,-13.11045 -11.85519,-13.11045 z m -0.0349,1.63881 c 2.33617,0 4.28879,1.08091 5.54405,2.99867 1.29012,2.05722 1.7434,4.18418 1.7434,8.47297 0,4.25392 -0.45328,6.38088 -1.7434,8.47297 -1.25526,1.95262 -3.17301,2.99866 -5.64865,2.99866 -2.47565,0 -4.3934,-1.01117 -5.64865,-2.99866 -1.32499,-2.09209 -1.74341,-4.21905 -1.74341,-8.54271 0,-4.21905 0.45329,-6.31114 1.74341,-8.40323 1.29012,-2.02236 3.13814,-2.99867 5.75325,-2.99867 z m 35.98397,14.50517 h -1.5342 c -1.15065,6.27628 -2.71972,7.81048 -8.12429,7.91508 h -1.46446 c -2.09209,-0.0697 -2.61512,-0.41842 -2.51051,-1.67367 v -17.57357 c 0,-1.74341 0,-1.84802 0.20921,-2.16183 0.27894,-0.34868 0.94144,-0.45329 2.92893,-0.48816 h 0.62762 v -1.6388 h -11.43677 v 1.6388 h 0.62763 c 1.98749,0.0349 2.64998,0.13948 2.92893,0.48816 0.20921,0.31381 0.20921,0.38355 0.20921,2.16183 v 16.59726 c 0,1.77828 0,1.84801 -0.20921,2.16183 -0.27895,0.34868 -0.94144,0.48815 -2.92893,0.48815 h -0.62763 v 1.63881 h 20.57224 z m 23.25709,0 h -1.5342 c -1.15065,6.27628 -2.71972,7.81048 -8.12429,7.91508 h -1.46446 c -2.0921,-0.0697 -2.61512,-0.41842 -2.51051,-1.67367 v -17.57357 c 0,-1.74341 0,-1.84802 0.2092,-2.16183 0.27895,-0.34868 0.94145,-0.45329 2.92893,-0.48816 h 0.62763 v -1.6388 h -11.43677 v 1.6388 h 0.62763 c 1.98749,0.0349 2.64998,0.13948 2.92893,0.48816 0.20921,0.31381 0.20921,0.38355 0.20921,2.16183 v 16.59726 c 0,1.77828 0,1.84801 -0.20921,2.16183 -0.27895,0.34868 -0.94144,0.48815 -2.92893,0.48815 h -0.62763 v 1.63881 h 20.57224 z M 348.8125,226.5762 h -20.95579 v 1.6388 h 0.62763 c 1.98749,0.0349 2.64998,0.13948 2.92893,0.48816 0.20921,0.31381 0.20921,0.38355 0.20921,2.16183 v 16.59726 c 0,1.77828 0,1.84801 -0.20921,2.16183 -0.27895,0.34868 -0.94144,0.48815 -2.92893,0.48815 h -0.62763 v 1.63881 h 21.40908 l 0.69736,-9.30981 h -1.5342 c -1.32499,6.20654 -2.75459,7.53153 -8.08942,7.671 h -2.3013 c -2.0921,-0.0697 -2.61512,-0.41842 -2.51051,-1.67367 v -8.89139 h 0.69736 c 3.59142,-0.13948 4.88155,1.15065 5.02102,5.02102 h 1.63881 v -11.43677 h -1.63881 c -0.20921,3.41708 -1.56907,4.77694 -4.88155,4.77694 h -0.83683 v -7.94995 c -0.0349,-1.46446 0.31381,-1.70854 2.19669,-1.74341 h 1.81315 c 5.71838,-0.0349 7.14798,1.22039 8.26376,7.25259 h 1.49933 z m 16.98084,12.72689 -5.85786,-9.44928 c -0.27895,-0.41842 -0.38355,-0.73223 -0.38355,-0.97631 0,-0.45329 0.41842,-0.6625 1.35986,-0.6625 h 2.05722 v -1.6388 h -11.19269 v 1.6388 h 0.7671 c 1.56907,0.0349 1.98749,0.24408 2.82432,1.60394 l 7.53153,11.92492 v 5.71839 c 0,1.77828 0,1.84801 -0.2092,2.16183 -0.27895,0.34868 -0.94145,0.48815 -2.92893,0.48815 h -0.90658 v 1.63881 h 11.9598 v -1.63881 h -0.90658 c -1.98748,-0.0349 -2.61511,-0.13947 -2.89406,-0.48815 -0.20921,-0.31382 -0.20921,-0.34868 -0.20921,-2.16183 v -6.1368 l 5.19536,-9.37955 c 1.49934,-2.78946 2.58025,-3.62629 4.81182,-3.7309 h 0.27894 v -1.6388 h -9.90257 v 1.6388 h 0.80197 c 1.88288,0 2.68485,0.45329 2.68485,1.56907 0,0.52303 -0.20921,1.22039 -0.55789,1.81315 z"
       id="path6" /></g><g
     id="g8"><rect
       style="fill:none;fill-opacity:1;stroke:#000000;stroke-width:1.42906;stroke-miterlimit:3.2;stroke-opacity:1"
       id="rect3-3"
       width="57.690723"
       height="38.624439"
       x="772.091"
       y="496.47226"
       ry="5.165576"
       transform="matrix(0.99188916,0.12710585,-0.64054969,0.76791672,0,0)" /><rect
       style="fill:none;fill-opacity:1;stroke:#000000;stroke-width:1.20745;stroke-miterlimit:3.2;stroke-opacity:1"
       id="rect3-3-5"
       width="48.744549"
       height="32.634895"
       x="776.11993"
       y="497.91031"
       ry="4.3645434"
       transform="matrix(0.99188916,0.12710585,-0.64054969,0.76791672,0,0)" /><ellipse
       style="fill:none;fill-opacity:1;stroke:#000000;stroke-width:1.2354;stroke-miterlimit:3.2;stroke-opacity:1"
       id="path7"
       cx="767.39825"
       cy="244.31264"
       rx="15.284813"
       ry="17.490776"
       transform="matrix(0.87677236,0.48090563,-0.85674111,0.51574671,0,0)" /></g><g
     id="g9"
     transform="translate(0,-43.803505)"><rect
       style="fill:none;fill-opacity:1;stroke:#000000;stroke-width:1.42906;stroke-miterlimit:3.2;stroke-opacity:1"
       id="rect8"
       width="57.690723"
       height="38.624439"
       x="772.091"
       y="496.47226"
       ry="5.165576"
       transform="matrix(0.99188916,0.12710585,-0.64054969,0.76791672,0,0)" /><rect
       style="fill:none;fill-opacity:1;stroke:#000000;stroke-width:1.20745;stroke-miterlimit:3.2;stroke-opacity:1"
       id="rect9"
       width="48.744549"
       height="32.634895"
       x="776.11993"
       y="497.91031"
       ry="4.3645434"
       transform="matrix(0.99188916,0.12710585,-0.64054969,0.76791672,0,0)" /><ellipse
       style="fill:none;fill-opacity:1;stroke:#000000;stroke-width:1.2354;stroke-miterlimit:3.2;stroke-opacity:1"
       id="ellipse9"
       cx="767.39825"
       cy="244.31264"
       rx="15.284813"
       ry="17.490776"
       transform="matrix(0.87677236,0.48090563,-0.85674111,0.51574671,0,0)" /></g><g
     id="g11"
     transform="translate(0,-84.255417)"><rect
       style="fill:none;fill-opacity:1;stroke:#000000;stroke-width:1.42906;stroke-miterlimit:3.2;stroke-opacity:1"
       id="rect10"
       width="57.690723"
       height="38.624439"
       x="772.091"
       y="496.47226"
       ry="5.165576"
       transform="matrix(0.99188916,0.12710585,-0.64054969,0.76791672,0,0)" /><rect
       style="fill:none;fill-opacity:1;stroke:#000000;stroke-width:1.20745;stroke-miterlimit:3.2;stroke-opacity:1"
       id="rect11"
       width="48.744549"
       height="32.634895"
       x="776.11993"
       y="497.91031"
       ry="4.3645434"
       transform="matrix(0.99188916,0.12710585,-0.64054969,0.76791672,0,0)" /><ellipse
       style="fill:none;fill-opacity:1;stroke:#000000;stroke-width:1.2354;stroke-miterlimit:3.2;stroke-opacity:1"
       id="ellipse11"
       cx="767.39825"
       cy="244.31264"
       rx="15.284813"
       ry="17.490776"
       transform="matrix(0.87677236,0.48090563,-0.85674111,0.51574671,0,0)" /></g></svg>
