<?xml version="1.0" encoding="UTF-8" standalone="no"?>
<svg
   viewBox="0.0 0.0 348.0 348.0"
   fill="none"
   version="1.1"
   id="svg2"
   sodipodi:docname="Main Page.svg"
   inkscape:version="1.3 (0e150ed6c4, 2023-07-21)"
   xmlns:inkscape="http://www.inkscape.org/namespaces/inkscape"
   xmlns:sodipodi="http://sodipodi.sourceforge.net/DTD/sodipodi-0.dtd"
   xmlns="http://www.w3.org/2000/svg"
   xmlns:svg="http://www.w3.org/2000/svg">
  <defs
     id="defs2" />
  <sodipodi:namedview
     id="namedview2"
     pagecolor="#505050"
     bordercolor="#eeeeee"
     borderopacity="1"
     inkscape:showpageshadow="0"
     inkscape:pageopacity="0"
     inkscape:pagecheckerboard="0"
     inkscape:deskcolor="#505050"
     inkscape:zoom="1.295977"
     inkscape:cx="174"
     inkscape:cy="174"
     inkscape:window-width="1280"
     inkscape:window-height="648"
     inkscape:window-x="0"
     inkscape:window-y="0"
     inkscape:window-maximized="1"
     inkscape:current-layer="svg2" />
  <path
     d="M5.079 5.776h336.913v337.67H5.08z"
     stroke-width="2"
     stroke="#000"
     id="path1" />
  <path
     d="m 23.14186,311.95655 c 0,-8.376 6.966,-15.165 15.56,-15.165 4.126,0 8.084,1.597 11.001,4.441 2.918,2.844 4.558,6.702 4.558,10.724 0,8.376 -6.966,15.165 -15.56,15.165 -8.593,0 -15.559,-6.79 -15.559,-15.165 z"
     stroke-width="2"
     stroke="#000000"
     id="path2" />
  <circle
     style="fill:none;stroke:#000000;stroke-width:2;stroke-miterlimit:3.2"
     id="path3"
     cx="39.169064"
     cy="249.83104"
     r="12.997893" />
  <path
     d="m 41.579443,240.74729 v 17.77346 h -5.039069 v -17.77346 z"
     id="text3"
     style="-inkscape-font-specification:'Bauhaus 93, ';fill:#000000;stroke-width:2;stroke-miterlimit:3.2"
     aria-label="1" />
  <circle
     style="fill:none;stroke:#000000;stroke-width:2;stroke-miterlimit:3.2"
     id="circle5"
     cx="69.16906"
     cy="249.83104"
     r="12.997893" />
  <path
     d="m 75.342461,253.37752 v 5.14323 h -11.48439 l 5.703133,-10.70314 0.195312,-0.36458 q 0.234376,-0.42969 0.234376,-0.84636 0,-1.05468 -1.236981,-1.05468 -0.481771,0 -0.846355,0.36458 -0.351563,0.35156 -0.351563,0.83333 0,0.54688 0.46875,0.98959 l -2.278648,4.0625 q -1.432294,-0.88541 -2.200524,-2.2526 -0.76823,-1.36719 -0.76823,-3.02084 0,-2.56511 1.809898,-4.38803 1.809898,-1.83594 4.375006,-1.83594 2.578128,0 4.375005,1.8099 1.809898,1.8099 1.809898,4.40105 0,1.48438 -0.664063,2.76042 l -2.109378,4.10157 z"
     id="text5"
     style="-inkscape-font-specification:'Bauhaus 93, ';fill:#000000;stroke-width:2;stroke-miterlimit:3.2"
     aria-label="2" />
  <text
     xml:space="preserve"
     style="font-style:normal;font-variant:normal;font-weight:normal;font-stretch:normal;font-size:26.6667px;font-family:'Bauhaus 93';-inkscape-font-specification:'Bauhaus 93, ';text-align:center;text-anchor:middle;fill:#000000;fill-opacity:1;stroke:none;stroke-width:2;stroke-miterlimit:3.2"
     x="85.88253"
     y="261.02484"
     id="text6"><tspan
       sodipodi:role="line"
       id="tspan6"
       x="85.88253"
       y="261.02484" /></text>
  <circle
     style="fill:none;stroke:#000000;stroke-width:2;stroke-miterlimit:3.2"
     id="circle7"
     cx="99.16906"
     cy="249.83104"
     r="12.997893" />
  <path
     d="m 94.339843,240.74729 h 9.414077 l -2.90365,6.83595 q 1.5625,1.05469 2.26563,2.31771 0.71614,1.25 0.71614,2.96875 0,2.56511 -1.88802,4.33595 -1.88802,1.75781 -4.648444,1.75781 -1.52344,0 -3.020837,-0.57292 v -5.02604 q 1.132814,0.70312 1.966148,0.70312 0.911459,0 1.523439,-0.65104 0.625001,-0.65104 0.625001,-1.61459 0,-1.10677 -0.92448,-1.75781 -0.924481,-0.66406 -2.473962,-0.66406 l 1.315106,-3.50261 h -1.966148 z"
     id="text7"
     style="-inkscape-font-specification:'Bauhaus 93, ';fill:#000000;stroke-width:2;stroke-miterlimit:3.2"
     aria-label="3" />
  <text
     xml:space="preserve"
     style="font-style:normal;font-variant:normal;font-weight:normal;font-stretch:normal;font-size:26.6667px;font-family:'Bauhaus 93';-inkscape-font-specification:'Bauhaus 93, ';text-align:center;text-anchor:middle;fill:#000000;fill-opacity:1;stroke:none;stroke-width:2;stroke-miterlimit:3.2"
     x="115.88253"
     y="261.02484"
     id="text8"><tspan
       sodipodi:role="line"
       id="tspan8"
       x="115.88253"
       y="261.02484" /></text>
  <circle
     style="fill:none;stroke:#000000;stroke-width:2;stroke-miterlimit:3.2"
     id="circle9"
     cx="129.16905"
     cy="249.83104"
     r="12.997893" />
  <path
     d="m 135.58986,240.74729 v 17.77346 h -5.00001 v -13.56772 l -2.21354,4.40104 h 1.09375 v 3.8672 h -6.94012 l 5.26043,-12.47398 z"
     id="text9"
     style="-inkscape-font-specification:'Bauhaus 93, ';fill:#000000;stroke-width:2;stroke-miterlimit:3.2"
     aria-label="4" />
  <text
     xml:space="preserve"
     style="font-style:normal;font-variant:normal;font-weight:normal;font-stretch:normal;font-size:26.6667px;font-family:'Bauhaus 93';-inkscape-font-specification:'Bauhaus 93, ';text-align:center;text-anchor:middle;fill:#000000;fill-opacity:1;stroke:none;stroke-width:2;stroke-miterlimit:3.2"
     x="145.88254"
     y="261.02484"
     id="text10"><tspan
       sodipodi:role="line"
       id="tspan10"
       x="145.88254"
       y="261.02484" /></text>
  <circle
     style="fill:none;stroke:#000000;stroke-width:2;stroke-miterlimit:3.2"
     id="circle11"
     cx="159.16905"
     cy="249.83104"
     r="12.997893" />
  <path
     d="m 163.88411,240.74729 v 5.10418 h -4.37501 l -0.23437,0.80729 q 2.39584,0.6901 3.54167,1.99219 1.57552,1.77083 1.57552,4.24479 0,2.6172 -1.92708,4.34897 -1.91407,1.71875 -4.83074,1.71875 -1.96615,0 -3.88021,-1.02865 v -4.375 q 1.52344,0.74219 2.68229,0.74219 1.19792,0 1.88803,-0.54688 0.70312,-0.54687 0.70312,-1.48438 0,-1.05468 -1.08073,-1.78385 -1.06771,-0.72917 -2.64323,-0.72917 -0.59896,0 -1.58854,0.22135 l 1.91406,-9.23178 z"
     id="text11"
     style="-inkscape-font-specification:'Bauhaus 93, ';fill:#000000;stroke-width:2;stroke-miterlimit:3.2"
     aria-label="5" />
  <text
     xml:space="preserve"
     style="font-style:normal;font-variant:normal;font-weight:normal;font-stretch:normal;font-size:26.6667px;font-family:'Bauhaus 93';-inkscape-font-specification:'Bauhaus 93, ';text-align:center;text-anchor:middle;fill:#000000;fill-opacity:1;stroke:none;stroke-width:2;stroke-miterlimit:3.2"
     x="175.88252"
     y="261.02484"
     id="text12"><tspan
       sodipodi:role="line"
       id="tspan12"
       x="175.88252"
       y="261.02484" /></text>
  <circle
     style="fill:none;stroke:#000000;stroke-width:2;stroke-miterlimit:3.2"
     id="circle13"
     cx="189.16905"
     cy="249.83104"
     r="12.997893" />
  <path
     d="m 186.21483,240.22646 4.67449,1.65365 -3.46355,9.71355 q -0.15625,0.41667 -0.15625,0.74219 0,0.70312 0.52083,1.21094 0.52084,0.50781 1.23698,0.50781 0.71615,0 1.21094,-0.50781 0.50782,-0.52084 0.50782,-1.25 0,-0.72917 -0.50782,-1.23698 -0.49479,-0.50782 -1.21094,-0.50782 -0.16927,0 -0.50781,0.0521 l 2.1224,-5.10418 q 2.76042,1.19792 3.97136,2.76042 1.22396,1.54948 1.22396,3.85417 0,2.89063 -1.97917,4.8698 -1.96615,1.97917 -4.83074,1.97917 -2.70833,0 -4.73959,-1.97917 -2.01823,-1.99219 -2.01823,-4.64844 0,-1.22396 0.95052,-3.85417 z"
     id="text13"
     style="-inkscape-font-specification:'Bauhaus 93, ';fill:#000000;stroke-width:2;stroke-miterlimit:3.2"
     aria-label="6" />
  <text
     xml:space="preserve"
     style="font-style:normal;font-variant:normal;font-weight:normal;font-stretch:normal;font-size:26.6667px;font-family:'Bauhaus 93';-inkscape-font-specification:'Bauhaus 93, ';text-align:center;text-anchor:middle;fill:#000000;fill-opacity:1;stroke:none;stroke-width:2;stroke-miterlimit:3.2"
     x="205.88252"
     y="261.02484"
     id="text14"><tspan
       sodipodi:role="line"
       id="tspan14"
       x="205.88252"
       y="261.02484" /></text>
  <circle
     style="fill:none;stroke:#000000;stroke-width:2;stroke-miterlimit:3.2"
     id="circle15"
     cx="219.16905"
     cy="249.83104"
     r="12.997893" />
  <path
     d="m 225.056,240.74729 -5.16928,17.77346 h -5.40365 l 4.02344,-12.66928 h -5.44271 v -5.10418 z"
     id="text15"
     style="-inkscape-font-specification:'Bauhaus 93, ';fill:#000000;stroke-width:2;stroke-miterlimit:3.2"
     aria-label="7" />
  <text
     xml:space="preserve"
     style="font-style:normal;font-variant:normal;font-weight:normal;font-stretch:normal;font-size:26.6667px;font-family:'Bauhaus 93';-inkscape-font-specification:'Bauhaus 93, ';text-align:center;text-anchor:middle;fill:#000000;fill-opacity:1;stroke:none;stroke-width:2;stroke-miterlimit:3.2"
     x="235.88254"
     y="261.02484"
     id="text16"><tspan
       sodipodi:role="line"
       id="tspan16"
       x="235.88254"
       y="261.02484" /></text>
  <circle
     style="fill:none;stroke:#000000;stroke-width:2;stroke-miterlimit:3.2"
     id="circle17"
     cx="249.16907"
     cy="249.83104"
     r="12.997893" />
  <path
     d="m 253.41536,248.32543 q 1.10677,1.14583 1.52344,2.10937 0.41667,0.96355 0.41667,2.34376 0,2.64323 -1.8099,4.41407 -1.79688,1.77083 -4.49219,1.77083 -2.70834,0 -4.51824,-1.77083 -1.79688,-1.77084 -1.79688,-4.41407 0,-1.34115 0.42969,-2.34376 0.44271,-1.0026 1.51042,-2.10937 -0.96354,-1.27605 -0.96354,-2.83855 0,-2.25261 1.49739,-3.71094 1.4974,-1.47136 3.81511,-1.47136 2.34376,0 3.84115,1.45834 1.51042,1.45833 1.51042,3.73698 0,1.53646 -0.96354,2.82553 z m -4.42709,-4.20574 q -0.58594,0 -1.01563,0.42969 -0.41666,0.42969 -0.41666,1.00261 0,0.66406 0.41666,1.09375 0.41667,0.42968 1.06771,0.42968 0.58594,0 1.00261,-0.4427 0.42969,-0.44271 0.42969,-1.04167 0,-0.625 -0.42969,-1.04167 -0.42969,-0.42969 -1.05469,-0.42969 z m 0.0391,6.62761 q -0.88541,0 -1.52344,0.62501 -0.625,0.61198 -0.625,1.48437 0,0.95052 0.61198,1.58855 0.61198,0.625 1.53646,0.625 0.92448,0 1.53646,-0.625 0.61198,-0.63803 0.61198,-1.58855 0,-0.85937 -0.63802,-1.48437 -0.63802,-0.62501 -1.51042,-0.62501 z"
     id="text17"
     style="-inkscape-font-specification:'Bauhaus 93, ';fill:#000000;stroke-width:2;stroke-miterlimit:3.2"
     aria-label="8" />
  <text
     xml:space="preserve"
     style="font-style:normal;font-variant:normal;font-weight:normal;font-stretch:normal;font-size:26.6667px;font-family:'Bauhaus 93';-inkscape-font-specification:'Bauhaus 93, ';text-align:center;text-anchor:middle;fill:#000000;fill-opacity:1;stroke:none;stroke-width:2;stroke-miterlimit:3.2"
     x="265.88251"
     y="261.02484"
     id="text18"><tspan
       sodipodi:role="line"
       id="tspan18"
       x="265.88251"
       y="261.02484" /></text>
  <circle
     style="fill:none;stroke:#000000;stroke-width:2;stroke-miterlimit:3.2"
     id="circle19"
     cx="279.16907"
     cy="249.83104"
     r="12.997893" />
  <path
     d="m 281.90494,259.04159 -4.67448,-1.65365 3.46354,-9.71356 q 0.14323,-0.41666 0.14323,-0.75521 0,-0.70312 -0.52083,-1.21093 -0.52084,-0.50782 -1.23698,-0.50782 -0.71615,0 -1.22396,0.52084 -0.4948,0.50781 -0.4948,1.23698 0,0.74219 0.4948,1.25 0.50781,0.50781 1.23698,0.50781 0.15625,0 0.49479,-0.0521 l -2.10938,5.10417 q -2.77344,-1.21094 -3.9974,-2.76042 -1.21094,-1.54948 -1.21094,-3.86719 0,-2.87761 1.96615,-4.85678 1.97917,-1.97917 4.84376,-1.97917 2.70833,0 4.72657,1.99219 2.03125,1.97917 2.03125,4.63543 0,1.23698 -0.95052,3.85417 z"
     id="text19"
     style="-inkscape-font-specification:'Bauhaus 93, ';fill:#000000;stroke-width:2;stroke-miterlimit:3.2"
     aria-label="9" />
  <text
     xml:space="preserve"
     style="font-style:normal;font-variant:normal;font-weight:normal;font-stretch:normal;font-size:26.6667px;font-family:'Bauhaus 93';-inkscape-font-specification:'Bauhaus 93, ';text-align:center;text-anchor:middle;fill:#000000;fill-opacity:1;stroke:none;stroke-width:2;stroke-miterlimit:3.2"
     x="295.88251"
     y="261.02484"
     id="text20"><tspan
       sodipodi:role="line"
       id="tspan20"
       x="295.88251"
       y="261.02484" /></text>
  <text
     xml:space="preserve"
     style="font-style:normal;font-variant:normal;font-weight:normal;font-stretch:normal;font-size:26.6667px;font-family:'Bauhaus 93';-inkscape-font-specification:'Bauhaus 93, ';text-align:center;text-anchor:middle;fill:#000000;fill-opacity:1;stroke:none;stroke-width:2;stroke-miterlimit:3.2"
     x="85.88253"
     y="291.02484"
     id="text22"><tspan
       sodipodi:role="line"
       id="tspan22"
       x="85.88253"
       y="291.02484" /></text>
  <text
     xml:space="preserve"
     style="font-style:normal;font-variant:normal;font-weight:normal;font-stretch:normal;font-size:26.6667px;font-family:'Bauhaus 93';-inkscape-font-specification:'Bauhaus 93, ';text-align:center;text-anchor:middle;fill:#000000;fill-opacity:1;stroke:none;stroke-width:2;stroke-miterlimit:3.2"
     x="115.88253"
     y="291.02484"
     id="text24"><tspan
       sodipodi:role="line"
       id="tspan24"
       x="115.88253"
       y="291.02484" /></text>
  <text
     xml:space="preserve"
     style="font-style:normal;font-variant:normal;font-weight:normal;font-stretch:normal;font-size:26.6667px;font-family:'Bauhaus 93';-inkscape-font-specification:'Bauhaus 93, ';text-align:center;text-anchor:middle;fill:#000000;fill-opacity:1;stroke:none;stroke-width:2;stroke-miterlimit:3.2"
     x="145.88254"
     y="291.02484"
     id="text26"><tspan
       sodipodi:role="line"
       id="tspan26"
       x="145.88254"
       y="291.02484" /></text>
  <text
     xml:space="preserve"
     style="font-style:normal;font-variant:normal;font-weight:normal;font-stretch:normal;font-size:26.6667px;font-family:'Bauhaus 93';-inkscape-font-specification:'Bauhaus 93, ';text-align:center;text-anchor:middle;fill:#000000;fill-opacity:1;stroke:none;stroke-width:2;stroke-miterlimit:3.2"
     x="175.88252"
     y="291.02484"
     id="text28"><tspan
       sodipodi:role="line"
       id="tspan28"
       x="175.88252"
       y="291.02484" /></text>
  <text
     xml:space="preserve"
     style="font-style:normal;font-variant:normal;font-weight:normal;font-stretch:normal;font-size:26.6667px;font-family:'Bauhaus 93';-inkscape-font-specification:'Bauhaus 93, ';text-align:center;text-anchor:middle;fill:#000000;fill-opacity:1;stroke:none;stroke-width:2;stroke-miterlimit:3.2"
     x="205.88252"
     y="291.02484"
     id="text30"><tspan
       sodipodi:role="line"
       id="tspan30"
       x="205.88252"
       y="291.02484" /></text>
  <text
     xml:space="preserve"
     style="font-style:normal;font-variant:normal;font-weight:normal;font-stretch:normal;font-size:26.6667px;font-family:'Bauhaus 93';-inkscape-font-specification:'Bauhaus 93, ';text-align:center;text-anchor:middle;fill:#000000;fill-opacity:1;stroke:none;stroke-width:2;stroke-miterlimit:3.2"
     x="235.88254"
     y="291.02484"
     id="text32"><tspan
       sodipodi:role="line"
       id="tspan32"
       x="235.88254"
       y="291.02484" /></text>
  <text
     xml:space="preserve"
     style="font-style:normal;font-variant:normal;font-weight:normal;font-stretch:normal;font-size:26.6667px;font-family:'Bauhaus 93';-inkscape-font-specification:'Bauhaus 93, ';text-align:center;text-anchor:middle;fill:#000000;fill-opacity:1;stroke:none;stroke-width:2;stroke-miterlimit:3.2"
     x="265.88251"
     y="291.02484"
     id="text34"><tspan
       sodipodi:role="line"
       id="tspan34"
       x="265.88251"
       y="291.02484" /></text>
  <text
     xml:space="preserve"
     style="font-style:normal;font-variant:normal;font-weight:normal;font-stretch:normal;font-size:26.6667px;font-family:'Bauhaus 93';-inkscape-font-specification:'Bauhaus 93, ';text-align:center;text-anchor:middle;fill:#000000;fill-opacity:1;stroke:none;stroke-width:2;stroke-miterlimit:3.2"
     x="295.88251"
     y="291.02484"
     id="text36"><tspan
       sodipodi:role="line"
       id="tspan36"
       x="295.88251"
       y="291.02484" /></text>
  <text
     xml:space="preserve"
     style="font-style:normal;font-variant:normal;font-weight:normal;font-stretch:normal;font-size:26.6667px;font-family:'Bauhaus 93';-inkscape-font-specification:'Bauhaus 93, ';text-align:center;text-anchor:middle;fill:#000000;fill-opacity:1;stroke:none;stroke-width:2;stroke-miterlimit:3.2"
     x="115.88253"
     y="321.02484"
     id="text38"><tspan
       sodipodi:role="line"
       id="tspan38"
       x="115.88253"
       y="321.02484" /></text>
  <text
     xml:space="preserve"
     style="font-style:normal;font-variant:normal;font-weight:normal;font-stretch:normal;font-size:26.6667px;font-family:'Bauhaus 93';-inkscape-font-specification:'Bauhaus 93, ';text-align:center;text-anchor:middle;fill:#000000;fill-opacity:1;stroke:none;stroke-width:2;stroke-miterlimit:3.2"
     x="145.88254"
     y="321.02484"
     id="text40"><tspan
       sodipodi:role="line"
       id="tspan40"
       x="145.88254"
       y="321.02484" /></text>
  <text
     xml:space="preserve"
     style="font-style:normal;font-variant:normal;font-weight:normal;font-stretch:normal;font-size:26.6667px;font-family:'Bauhaus 93';-inkscape-font-specification:'Bauhaus 93, ';text-align:center;text-anchor:middle;fill:#000000;fill-opacity:1;stroke:none;stroke-width:2;stroke-miterlimit:3.2"
     x="175.88252"
     y="321.02484"
     id="text42"><tspan
       sodipodi:role="line"
       id="tspan42"
       x="175.88252"
       y="321.02484" /></text>
  <text
     xml:space="preserve"
     style="font-style:normal;font-variant:normal;font-weight:normal;font-stretch:normal;font-size:26.6667px;font-family:'Bauhaus 93';-inkscape-font-specification:'Bauhaus 93, ';text-align:center;text-anchor:middle;fill:#000000;fill-opacity:1;stroke:none;stroke-width:2;stroke-miterlimit:3.2"
     x="205.88252"
     y="321.02484"
     id="text44"><tspan
       sodipodi:role="line"
       id="tspan44"
       x="205.88252"
       y="321.02484" /></text>
  <text
     xml:space="preserve"
     style="font-style:normal;font-variant:normal;font-weight:normal;font-stretch:normal;font-size:26.6667px;font-family:'Bauhaus 93';-inkscape-font-specification:'Bauhaus 93, ';text-align:center;text-anchor:middle;fill:#000000;fill-opacity:1;stroke:none;stroke-width:2;stroke-miterlimit:3.2"
     x="235.88254"
     y="321.02484"
     id="text46"><tspan
       sodipodi:role="line"
       id="tspan46"
       x="235.88254"
       y="321.02484" /></text>
  <text
     xml:space="preserve"
     style="font-style:normal;font-variant:normal;font-weight:normal;font-stretch:normal;font-size:26.6667px;font-family:'Bauhaus 93';-inkscape-font-specification:'Bauhaus 93, ';text-align:center;text-anchor:middle;fill:#000000;fill-opacity:1;stroke:none;stroke-width:2;stroke-miterlimit:3.2"
     x="265.88251"
     y="321.02484"
     id="text48"><tspan
       sodipodi:role="line"
       id="tspan48"
       x="265.88251"
       y="321.02484" /></text>
  <text
     xml:space="preserve"
     style="font-style:normal;font-variant:normal;font-weight:normal;font-stretch:normal;font-size:26.6667px;font-family:'Bauhaus 93';-inkscape-font-specification:'Bauhaus 93, ';text-align:center;text-anchor:middle;fill:#000000;fill-opacity:1;stroke:none;stroke-width:2;stroke-miterlimit:3.2"
     x="295.88251"
     y="321.02484"
     id="text50"><tspan
       sodipodi:role="line"
       id="tspan50"
       x="295.88251"
       y="321.02484" /></text>
  <circle
     style="fill:none;stroke:#000000;stroke-width:2;stroke-miterlimit:3.2"
     id="circle50"
     cx="309.16876"
     cy="249.83102"
     r="12.997893" />
  <path
     d="m 305.01144,242.34197 v 14.21873 h -4.03124 v -14.21873 z m 5.03124,8.66665 v -3.12499 q 0,-2.72916 1.35417,-4.31249 1.36458,-1.58333 3.70832,-1.58333 2.34375,0 3.70833,1.58333 1.36458,1.58333 1.36458,4.31249 v 3.12499 q 0,2.72917 -1.36458,4.32291 -1.36458,1.58334 -3.70833,1.58334 -2.34374,0 -3.70832,-1.58334 -1.35417,-1.59374 -1.35417,-4.32291 z m 4.05208,-3.95832 v 4.79166 q 0,1.30208 1.01041,1.30208 1.02084,0 1.02084,-1.30208 v -4.79166 q 0,-1.30208 -1.02084,-1.30208 -1.01041,0 -1.01041,1.30208 z"
     id="text51"
     style="-inkscape-font-specification:'Bauhaus 93, ';fill:#000000;stroke-width:2;stroke-miterlimit:3.2"
     aria-label="10" />
  <circle
     style="fill:none;stroke:#000000;stroke-width:2;stroke-miterlimit:3.2"
     id="circle51"
     cx="69.168755"
     cy="279.83081"
     r="12.997893" />
  <path
     d="m 65.011425,272.34176 v 14.21873 h -4.031244 v -14.21873 z m 12.124981,0 v 14.21873 h -4.031244 v -14.21873 z"
     id="text52"
     style="-inkscape-font-specification:'Bauhaus 93, ';fill:#000000;stroke-width:2;stroke-miterlimit:3.2"
     aria-label="11" />
  <circle
     style="fill:none;stroke:#000000;stroke-width:2;stroke-miterlimit:3.2"
     id="circle52"
     cx="99.168747"
     cy="279.83081"
     r="12.997893" />
  <path
     d="m 95.011425,272.34176 v 14.21873 h -4.031244 v -14.21873 z m 15.135395,10.10415 v 4.11458 h -9.18749 l 4.5625,-8.56249 0.15624,-0.29167 q 0.1875,-0.34375 0.1875,-0.67708 0,-0.84375 -0.98958,-0.84375 -0.38541,0 -0.67708,0.29167 -0.28125,0.28125 -0.28125,0.66666 0,0.4375 0.375,0.79167 l -1.82291,3.24999 q -1.14583,-0.70833 -1.76042,-1.80208 -0.61458,-1.09374 -0.61458,-2.41666 0,-2.05208 1.44791,-3.51041 1.44792,-1.46875 3.5,-1.46875 2.0625,0 3.49999,1.44792 1.44792,1.44791 1.44792,3.52082 0,1.1875 -0.53125,2.20833 l -1.6875,3.28125 z"
     id="text53"
     style="-inkscape-font-specification:'Bauhaus 93, ';fill:#000000;stroke-width:2;stroke-miterlimit:3.2"
     aria-label="12" />
  <circle
     style="fill:none;stroke:#000000;stroke-width:2;stroke-miterlimit:3.2"
     id="circle53"
     cx="129.16875"
     cy="279.83081"
     r="12.997893" />
  <path
     d="m 125.01141,272.34176 v 14.21873 h -4.03124 v -14.21873 z m 6.33332,0 h 7.53124 l -2.32291,5.46874 q 1.25,0.84375 1.8125,1.85416 0.57291,1 0.57291,2.375 0,2.05208 -1.51041,3.46874 -1.51042,1.40625 -3.71875,1.40625 -1.21875,0 -2.41666,-0.45833 v -4.02083 q 0.90625,0.5625 1.57291,0.5625 0.72917,0 1.21875,-0.52083 0.5,-0.52083 0.5,-1.29167 0,-0.88541 -0.73958,-1.40624 -0.73958,-0.53125 -1.97916,-0.53125 l 1.05208,-2.80208 h -1.57292 z"
     id="text54"
     style="-inkscape-font-specification:'Bauhaus 93, ';fill:#000000;stroke-width:2;stroke-miterlimit:3.2"
     aria-label="13" />
  <circle
     style="fill:none;stroke:#000000;stroke-width:2;stroke-miterlimit:3.2"
     id="circle54"
     cx="159.16875"
     cy="279.83081"
     r="12.997893" />
  <path
     d="m 155.01141,272.34176 v 14.21873 h -4.03124 v -14.21873 z m 15.33331,0 v 14.21873 h -3.99999 v -10.85415 l -1.77084,3.52082 h 0.875 v 3.09375 h -5.55207 l 4.20833,-9.97915 z"
     id="text55"
     style="-inkscape-font-specification:'Bauhaus 93, ';fill:#000000;stroke-width:2;stroke-miterlimit:3.2"
     aria-label="14" />
  <circle
     style="fill:none;stroke:#000000;stroke-width:2;stroke-miterlimit:3.2"
     id="circle55"
     cx="189.16875"
     cy="279.83081"
     r="12.997893" />
  <path
     d="m 185.01143,272.34176 v 14.21873 h -4.03125 v -14.21873 z m 13.96872,0 v 4.08333 h -3.49999 l -0.1875,0.64583 q 1.91666,0.55208 2.83333,1.59374 1.26041,1.41667 1.26041,3.39583 0,2.09375 -1.54166,3.47916 -1.53125,1.375 -3.86458,1.375 -1.57291,0 -3.10416,-0.82291 v -3.5 q 1.21875,0.59375 2.14583,0.59375 0.95833,0 1.51041,-0.4375 0.5625,-0.4375 0.5625,-1.1875 0,-0.84374 -0.86458,-1.42708 -0.85416,-0.58333 -2.11458,-0.58333 -0.47917,0 -1.27083,0.17708 l 1.53125,-7.3854 z"
     id="text56"
     style="-inkscape-font-specification:'Bauhaus 93, ';fill:#000000;stroke-width:2;stroke-miterlimit:3.2"
     aria-label="15" />
  <circle
     style="fill:none;stroke:#000000;stroke-width:2;stroke-miterlimit:3.2"
     id="circle56"
     cx="219.16875"
     cy="279.83081"
     r="12.997893" />
  <path
     d="m 215.01139,272.34176 v 14.21873 h -4.03124 v -14.21873 z m 7.83333,-0.41667 3.73957,1.32292 -2.77083,7.77082 q -0.125,0.33333 -0.125,0.59375 0,0.5625 0.41667,0.96875 0.41667,0.40624 0.98958,0.40624 0.57292,0 0.96875,-0.40624 0.40625,-0.41667 0.40625,-1 0,-0.58334 -0.40625,-0.98958 -0.39583,-0.40625 -0.96875,-0.40625 -0.13541,0 -0.40625,0.0417 l 1.69792,-4.08332 q 2.20833,0.95833 3.17707,2.20833 0.97917,1.23958 0.97917,3.08332 0,2.3125 -1.58333,3.89583 -1.57291,1.58333 -3.86458,1.58333 -2.16666,0 -3.79166,-1.58333 -1.61458,-1.59375 -1.61458,-3.71874 0,-0.97917 0.76042,-3.08333 z"
     id="text57"
     style="-inkscape-font-specification:'Bauhaus 93, ';fill:#000000;stroke-width:2;stroke-miterlimit:3.2"
     aria-label="16" />
  <circle
     style="fill:none;stroke:#000000;stroke-width:2;stroke-miterlimit:3.2"
     id="circle57"
     cx="249.16876"
     cy="279.83081"
     r="12.997893" />
  <path
     d="m 245.01141,272.34176 v 14.21873 h -4.03124 v -14.21873 z m 14.90623,0 -4.13541,14.21873 h -4.32291 l 3.21874,-10.1354 h -4.35416 v -4.08333 z"
     id="text58"
     style="-inkscape-font-specification:'Bauhaus 93, ';fill:#000000;stroke-width:2;stroke-miterlimit:3.2"
     aria-label="17" />
  <circle
     style="fill:none;stroke:#000000;stroke-width:2;stroke-miterlimit:3.2"
     id="circle58"
     cx="279.16907"
     cy="279.83093"
     r="12.997893" />
  <circle
     style="fill:none;stroke:#000000;stroke-width:2;stroke-miterlimit:3.2"
     id="circle59"
     cx="309.16876"
     cy="279.8309"
     r="12.997893" />
  <path
     d="m 305.01144,272.34185 v 14.21873 h -4.03124 v -14.21873 z m 12.3854,14.63539 -3.73958,-1.32291 2.77083,-7.77082 q 0.11458,-0.33334 0.11458,-0.60417 0,-0.5625 -0.41666,-0.96875 -0.41667,-0.40625 -0.98959,-0.40625 -0.57291,0 -0.97916,0.41667 -0.39583,0.40625 -0.39583,0.98958 0,0.59375 0.39583,1 0.40625,0.40625 0.98958,0.40625 0.125,0 0.39583,-0.0417 l -1.68749,4.08333 q -2.21875,-0.96875 -3.19792,-2.20833 -0.96874,-1.23958 -0.96874,-3.09374 0,-2.30208 1.57291,-3.88542 1.58333,-1.58333 3.87499,-1.58333 2.16667,0 3.78125,1.59375 1.625,1.58333 1.625,3.70833 0,0.98958 -0.76042,3.08333 z"
     id="text60"
     style="-inkscape-font-specification:'Bauhaus 93, ';fill:#000000;stroke-width:2;stroke-miterlimit:3.2"
     aria-label="19" />
  <path
     d="m 274.39724,272.34176 v 14.21873 H 270.366 v -14.21873 z m 13.59373,6.06249 q 0.88542,0.91666 1.21875,1.6875 0.33333,0.77083 0.33333,1.87499 0,2.11458 -1.44791,3.53125 -1.4375,1.41666 -3.59375,1.41666 -2.16666,0 -3.61457,-1.41666 -1.4375,-1.41667 -1.4375,-3.53125 0,-1.07291 0.34375,-1.87499 0.35416,-0.80209 1.20833,-1.6875 -0.77083,-1.02083 -0.77083,-2.27083 0,-1.80208 1.19791,-2.96875 1.19792,-1.17708 3.05208,-1.17708 1.875,0 3.07291,1.16667 1.20833,1.16666 1.20833,2.98958 0,1.22916 -0.77083,2.26041 z m -3.54166,-3.36458 q -0.46875,0 -0.8125,0.34375 -0.33333,0.34375 -0.33333,0.80208 0,0.53125 0.33333,0.875 0.33334,0.34375 0.85417,0.34375 0.46875,0 0.80208,-0.35417 0.34375,-0.35416 0.34375,-0.83333 0,-0.5 -0.34375,-0.83333 -0.34375,-0.34375 -0.84375,-0.34375 z m 0.0312,5.30208 q -0.70833,0 -1.21875,0.49999 -0.5,0.48959 -0.5,1.1875 0,0.76042 0.48959,1.27083 0.48958,0.5 1.22916,0.5 0.73958,0 1.22917,-0.5 0.48958,-0.51041 0.48958,-1.27083 0,-0.6875 -0.51042,-1.1875 -0.51041,-0.49999 -1.20833,-0.49999 z"
     id="text61"
     style="-inkscape-font-specification:'Bauhaus 93, ';fill:#000000;stroke-width:2;stroke-miterlimit:3.2"
     aria-label="18" />
  <circle
     style="fill:none;stroke:#000000;stroke-width:2;stroke-miterlimit:3.2"
     id="circle61"
     cx="99.168747"
     cy="309.83035"
     r="12.997893" />
  <path
     d="m 98.021837,312.44545 v 4.11458 h -9.187486 l 4.562493,-8.56249 0.15625,-0.29166 q 0.1875,-0.34375 0.1875,-0.67709 0,-0.84375 -0.989582,-0.84375 -0.385416,0 -0.677082,0.29167 -0.28125,0.28125 -0.28125,0.66667 0,0.4375 0.375,0.79166 l -1.822914,3.25 q -1.145832,-0.70834 -1.760414,-1.80208 -0.614582,-1.09375 -0.614582,-2.41667 0,-2.05208 1.447914,-3.51041 1.447914,-1.46875 3.499994,-1.46875 2.062497,0 3.499995,1.44792 1.447914,1.44791 1.447914,3.52083 0,1.18749 -0.531249,2.20833 l -1.687497,3.28124 z m 2.020833,-1.4375 v -3.12499 q 0,-2.72916 1.35416,-4.31249 1.36458,-1.58334 3.70833,-1.58334 2.34375,0 3.70833,1.58334 1.36458,1.58333 1.36458,4.31249 v 3.12499 q 0,2.72917 -1.36458,4.32291 -1.36458,1.58333 -3.70833,1.58333 -2.34375,0 -3.70833,-1.58333 -1.35416,-1.59374 -1.35416,-4.32291 z m 4.05207,-3.95832 v 4.79166 q 0,1.30208 1.01042,1.30208 1.02083,0 1.02083,-1.30208 v -4.79166 q 0,-1.30208 -1.02083,-1.30208 -1.01042,0 -1.01042,1.30208 z"
     id="text62"
     style="-inkscape-font-specification:'Bauhaus 93, ';fill:#000000;stroke-width:2;stroke-miterlimit:3.2"
     aria-label="20" />
  <circle
     style="fill:none;stroke:#000000;stroke-width:2;stroke-miterlimit:3.2"
     id="circle62"
     cx="129.16875"
     cy="309.83035"
     r="12.997893" />
  <path
     d="m 128.02182,312.44545 v 4.11458 h -9.18748 l 4.56249,-8.56249 0.15625,-0.29166 q 0.1875,-0.34375 0.1875,-0.67709 0,-0.84375 -0.98958,-0.84375 -0.38542,0 -0.67709,0.29167 -0.28125,0.28125 -0.28125,0.66667 0,0.4375 0.375,0.79166 l -1.82291,3.25 q -1.14583,-0.70834 -1.76041,-1.80208 -0.61459,-1.09375 -0.61459,-2.41667 0,-2.05208 1.44792,-3.51041 1.44791,-1.46875 3.49999,-1.46875 2.0625,0 3.5,1.44792 1.44791,1.44791 1.44791,3.52083 0,1.18749 -0.53125,2.20833 l -1.68749,3.28124 z m 9.11457,-10.10415 v 14.21873 h -4.03124 V 302.3413 Z"
     id="text63"
     style="-inkscape-font-specification:'Bauhaus 93, ';fill:#000000;stroke-width:2;stroke-miterlimit:3.2"
     aria-label="21" />
  <circle
     style="fill:none;stroke:#000000;stroke-width:2;stroke-miterlimit:3.2"
     id="circle63"
     cx="159.16875"
     cy="309.83035"
     r="12.997893" />
  <path
     d="m 158.02182,312.44545 v 4.11458 h -9.18748 l 4.56249,-8.56249 0.15625,-0.29166 q 0.1875,-0.34375 0.1875,-0.67709 0,-0.84375 -0.98958,-0.84375 -0.38542,0 -0.67709,0.29167 -0.28125,0.28125 -0.28125,0.66667 0,0.4375 0.375,0.79166 l -1.82291,3.25 q -1.14583,-0.70834 -1.76041,-1.80208 -0.61459,-1.09375 -0.61459,-2.41667 0,-2.05208 1.44792,-3.51041 1.44791,-1.46875 3.49999,-1.46875 2.0625,0 3.5,1.44792 1.44791,1.44791 1.44791,3.52083 0,1.18749 -0.53125,2.20833 l -1.68749,3.28124 z m 12.12498,0 v 4.11458 h -9.18748 l 4.56249,-8.56249 0.15625,-0.29166 q 0.1875,-0.34375 0.1875,-0.67709 0,-0.84375 -0.98958,-0.84375 -0.38542,0 -0.67708,0.29167 -0.28125,0.28125 -0.28125,0.66667 0,0.4375 0.375,0.79166 l -1.82292,3.25 q -1.14583,-0.70834 -1.76041,-1.80208 -0.61458,-1.09375 -0.61458,-2.41667 0,-2.05208 1.44791,-3.51041 1.44791,-1.46875 3.49999,-1.46875 2.0625,0 3.5,1.44792 1.44791,1.44791 1.44791,3.52083 0,1.18749 -0.53125,2.20833 l -1.68749,3.28124 z"
     id="text64"
     style="-inkscape-font-specification:'Bauhaus 93, ';fill:#000000;stroke-width:2;stroke-miterlimit:3.2"
     aria-label="22" />
  <circle
     style="fill:none;stroke:#000000;stroke-width:2;stroke-miterlimit:3.2"
     id="circle64"
     cx="189.16875"
     cy="309.83035"
     r="12.997893" />
  <path
     d="m 188.02184,312.44545 v 4.11458 h -9.18749 l 4.56249,-8.56249 0.15625,-0.29166 q 0.1875,-0.34375 0.1875,-0.67709 0,-0.84375 -0.98958,-0.84375 -0.38541,0 -0.67708,0.29167 -0.28125,0.28125 -0.28125,0.66667 0,0.4375 0.375,0.79166 l -1.82291,3.25 q -1.14584,-0.70834 -1.76042,-1.80208 -0.61458,-1.09375 -0.61458,-2.41667 0,-2.05208 1.44791,-3.51041 1.44792,-1.46875 3.5,-1.46875 2.0625,0 3.49999,1.44792 1.44792,1.44791 1.44792,3.52083 0,1.18749 -0.53125,2.20833 l -1.6875,3.28124 z m 3.32291,-10.10415 h 7.53124 l -2.32292,5.46874 q 1.25,0.84375 1.8125,1.85417 0.57292,0.99999 0.57292,2.37499 0,2.05208 -1.51042,3.46875 -1.51041,1.40624 -3.71874,1.40624 -1.21875,0 -2.41666,-0.45833 v -4.02083 q 0.90624,0.5625 1.57291,0.5625 0.72916,0 1.21875,-0.52083 0.5,-0.52083 0.5,-1.29166 0,-0.88542 -0.73959,-1.40625 -0.73958,-0.53125 -1.97916,-0.53125 l 1.05208,-2.80208 h -1.57291 z"
     id="text65"
     style="-inkscape-font-specification:'Bauhaus 93, ';fill:#000000;stroke-width:2;stroke-miterlimit:3.2"
     aria-label="23" />
  <circle
     style="fill:none;stroke:#000000;stroke-width:2;stroke-miterlimit:3.2"
     id="circle65"
     cx="219.16875"
     cy="309.83035"
     r="12.997893" />
  <path
     d="m 218.02181,312.44545 v 4.11458 h -9.18749 l 4.56249,-8.56249 0.15625,-0.29166 q 0.1875,-0.34375 0.1875,-0.67709 0,-0.84375 -0.98958,-0.84375 -0.38541,0 -0.67708,0.29167 -0.28125,0.28125 -0.28125,0.66667 0,0.4375 0.375,0.79166 l -1.82291,3.25 q -1.14584,-0.70834 -1.76042,-1.80208 -0.61458,-1.09375 -0.61458,-2.41667 0,-2.05208 1.44791,-3.51041 1.44792,-1.46875 3.5,-1.46875 2.06249,0 3.49999,1.44792 1.44792,1.44791 1.44792,3.52083 0,1.18749 -0.53125,2.20833 l -1.6875,3.28124 z M 230.3447,302.3413 v 14.21873 h -3.99999 v -10.85415 l -1.77083,3.52083 h 0.875 v 3.09374 h -5.55208 l 4.20833,-9.97915 z"
     id="text66"
     style="-inkscape-font-specification:'Bauhaus 93, ';fill:#000000;stroke-width:2;stroke-miterlimit:3.2"
     aria-label="24" />
  <circle
     style="fill:none;stroke:#000000;stroke-width:2;stroke-miterlimit:3.2"
     id="circle66"
     cx="249.16876"
     cy="309.83035"
     r="12.997893" />
  <path
     d="m 248.02182,312.44545 v 4.11458 h -9.18748 l 4.56249,-8.56249 0.15625,-0.29166 q 0.1875,-0.34375 0.1875,-0.67709 0,-0.84375 -0.98958,-0.84375 -0.38542,0 -0.67709,0.29167 -0.28125,0.28125 -0.28125,0.66667 0,0.4375 0.375,0.79166 l -1.82291,3.25 q -1.14583,-0.70834 -1.76041,-1.80208 -0.61459,-1.09375 -0.61459,-2.41667 0,-2.05208 1.44792,-3.51041 1.44791,-1.46875 3.49999,-1.46875 2.0625,0 3.5,1.44792 1.44791,1.44791 1.44791,3.52083 0,1.18749 -0.53125,2.20833 l -1.68749,3.28124 z m 10.95832,-10.10415 v 4.08333 h -3.5 l -0.1875,0.64583 q 1.91667,0.55208 2.83333,1.59375 1.26042,1.41666 1.26042,3.39583 0,2.09374 -1.54167,3.47916 -1.53124,1.37499 -3.86457,1.37499 -1.57292,0 -3.10417,-0.82291 v -3.5 q 1.21875,0.59375 2.14583,0.59375 0.95834,0 1.51042,-0.4375 0.5625,-0.4375 0.5625,-1.18749 0,-0.84375 -0.86458,-1.42709 -0.85417,-0.58333 -2.11458,-0.58333 -0.47917,0 -1.27084,0.17709 l 1.53125,-7.38541 z"
     id="text67"
     style="-inkscape-font-specification:'Bauhaus 93, ';fill:#000000;stroke-width:2;stroke-miterlimit:3.2"
     aria-label="25" />
  <circle
     style="fill:none;stroke:#000000;stroke-width:2;stroke-miterlimit:3.2"
     id="circle67"
     cx="279.16907"
     cy="309.83047"
     r="12.997893" />
  <circle
     style="fill:none;stroke:#000000;stroke-width:2;stroke-miterlimit:3.2"
     id="circle68"
     cx="309.16876"
     cy="309.83044"
     r="12.997893" />
  <path
     d="m 308.02185,312.44554 v 4.11458 h -9.18748 l 4.56249,-8.56249 0.15625,-0.29166 q 0.1875,-0.34375 0.1875,-0.67709 0,-0.84374 -0.98958,-0.84374 -0.38542,0 -0.67709,0.29166 -0.28124,0.28125 -0.28124,0.66667 0,0.4375 0.37499,0.79166 l -1.82291,3.25 q -1.14583,-0.70833 -1.76041,-1.80208 -0.61459,-1.09375 -0.61459,-2.41667 0,-2.05208 1.44792,-3.51041 1.44791,-1.46874 3.49999,-1.46874 2.0625,0 3.5,1.44791 1.44791,1.44791 1.44791,3.52083 0,1.1875 -0.53125,2.20833 l -1.68749,3.28124 z m 11.89582,-10.10415 -4.13541,14.21873 h -4.32291 l 3.21874,-10.1354 h -4.35416 v -4.08333 z"
     id="text68"
     style="-inkscape-font-specification:'Bauhaus 93, ';fill:#000000;stroke-width:2;stroke-miterlimit:3.2"
     aria-label="27" />
  <path
     d="m 277.40766,312.44545 v 4.11458 h -9.18749 l 4.56249,-8.56249 0.15625,-0.29166 q 0.1875,-0.34375 0.1875,-0.67709 0,-0.84375 -0.98958,-0.84375 -0.38542,0 -0.67708,0.29167 -0.28125,0.28125 -0.28125,0.66667 0,0.4375 0.375,0.79166 l -1.82292,3.25 q -1.14583,-0.70834 -1.76041,-1.80208 -0.61458,-1.09375 -0.61458,-2.41667 0,-2.05208 1.44791,-3.51041 1.44792,-1.46875 3.5,-1.46875 2.06249,0 3.49999,1.44792 1.44792,1.44791 1.44792,3.52083 0,1.18749 -0.53125,2.20833 l -1.6875,3.28124 z m 4.8229,-10.52082 3.73958,1.32292 -2.77083,7.77082 q -0.125,0.33333 -0.125,0.59375 0,0.5625 0.41667,0.96875 0.41667,0.40625 0.98958,0.40625 0.57292,0 0.96875,-0.40625 0.40625,-0.41667 0.40625,-1 0,-0.58333 -0.40625,-0.98958 -0.39583,-0.40625 -0.96875,-0.40625 -0.13542,0 -0.40625,0.0417 l 1.69792,-4.08332 q 2.20833,0.95833 3.17707,2.20833 0.97917,1.23958 0.97917,3.08333 0,2.31249 -1.58333,3.89582 -1.57292,1.58333 -3.86458,1.58333 -2.16666,0 -3.79166,-1.58333 -1.61458,-1.59374 -1.61458,-3.71874 0,-0.97917 0.76042,-3.08333 z"
     id="text69"
     style="-inkscape-font-specification:'Bauhaus 93, ';fill:#000000;stroke-width:2;stroke-miterlimit:3.2"
     aria-label="26" />
  <rect
     style="fill:none;fill-opacity:1;stroke:#000000;stroke-width:2;stroke-miterlimit:3.2;stroke-opacity:1"
     id="rect69"
     width="313.54837"
     height="205.10466"
     x="15.596384"
     y="16.379671"
     ry="22.342867" />
  <path
     style="fill:none;fill-opacity:1;stroke:#000000;stroke-width:2;stroke-miterlimit:3.2;stroke-opacity:1"
     d="m 86.493672,16.922945 c 0,0 -72.211851,63.567276 48.541778,204.558775"
     id="path70" />
  <path
     style="fill:none;fill-opacity:1;stroke:#000000;stroke-width:2;stroke-miterlimit:3.2;stroke-opacity:1"
     d="m 64.337471,71.518389 c 0,0 91.529589,-49.696803 263.072219,0.21929"
     id="path71" />
  <path
     style="fill:none;stroke:#000000;stroke-width:2.01341;stroke-dasharray:none;stroke-opacity:1"
     d="m 212.28813,172.18194 14.17725,-0.93445 7.52252,-16.09554 7.27503,14.07442 15.58507,3.47439 -12.44116,11.85784 6.39216,19.84009 -16.39216,-9.07272 -15.5953,7.93402 5.20904,-16.56349 z"
     id="path2-9" />
  <path
     style="fill:none;stroke:#000000;stroke-width:2.01341;stroke-dasharray:none;stroke-opacity:1"
     d="m 216.45572,147.14947 -10.40048,-36.15786 41.13882,2.57869"
     id="path3-2" />
  <path
     style="fill:none;stroke:#000000;stroke-width:2.01341;stroke-dasharray:none;stroke-opacity:1"
     d="m 221.21629,111.44144 c 0,0 14.5093,-42.139839 49.95748,-32.405978"
     id="path4" />
  <path
     style="fill:none;stroke:#000000;stroke-width:2.01341;stroke-dasharray:none;stroke-opacity:1"
     d="m 270.35063,78.822677 c 23.97088,15.559652 15.88052,38.530543 15.88052,38.530543 l -4.16658,32.46983"
     id="path5" />
  <path
     style="fill:none;stroke:#000000;stroke-width:2.01341;stroke-dasharray:none;stroke-opacity:1"
     d="m 229.92402,92.991089 c 0,0 -11.69596,-16.608827 -3.84203,-17.13944 0,0 10.43695,-0.372573 16.19038,6.245672"
     id="path6" />
  <path
     style="fill:none;stroke:#000000;stroke-width:2.01341;stroke-dasharray:none;stroke-opacity:1"
     d="m 278.03183,84.656078 2.82091,-4.337956 -13.02409,-4.529806 c 0,0 -0.58128,-6.414383 8.31663,-7.666272 l 4.94668,12.026002 15.88208,5.771468 c 0,0 -2.38525,8.883585 -8.9342,6.620682 l -6.42283,-12.116069"
     id="path7" />
  <path
     style="fill:none;stroke:#000000;stroke-width:0.503352;stroke-dasharray:none;stroke-opacity:1"
     d="m 238.66753,97.554267 c -0.75906,-7.020504 -2.82288,-3.777358 -2.82288,-3.777358 0,0 3.56754,-9.376113 4.7586,5.896946 0,0 -0.72788,8.985895 -2.86099,8.517795"
     id="path11" />
  <path
     style="fill:none;stroke:#000000;stroke-width:0.503352;stroke-dasharray:none;stroke-opacity:1"
     d="m 237.98704,108.29358 c 0,0 -4.91787,-5.14702 -0.98001,-11.383692"
     id="path12" />
  <path
     style="fill:none;stroke:#000000;stroke-width:0.503352;stroke-dasharray:none;stroke-opacity:1"
     d="m 238.75177,97.895893 c 0,0 -0.58642,-1.421749 -1.76426,-0.815967"
     id="path13" />
  <ellipse
     style="fill:none;stroke:#000000;stroke-width:0.503352;stroke-dasharray:none;stroke-opacity:1"
     id="path14"
     cx="237.18559"
     cy="99.555542"
     rx="0.92109114"
     ry="1.8293629" />
  <path
     style="fill:none;stroke:#000000;stroke-width:0.503352;stroke-dasharray:none;stroke-opacity:1"
     d="m 248.1474,97.554267 c -0.75907,-7.020504 -2.82288,-3.777358 -2.82288,-3.777358 0,0 3.56754,-9.376113 4.75859,5.896946 0,0 -0.72787,8.985895 -2.86098,8.517795"
     id="path15" />
  <path
     style="fill:none;stroke:#000000;stroke-width:0.503352;stroke-dasharray:none;stroke-opacity:1"
     d="m 247.46691,108.29358 c 0,0 -4.91787,-5.14702 -0.98001,-11.383692"
     id="path16" />
  <path
     style="fill:none;stroke:#000000;stroke-width:0.503352;stroke-dasharray:none;stroke-opacity:1"
     d="m 248.23164,97.895893 c 0,0 -0.58642,-1.421749 -1.76426,-0.815967"
     id="path17" />
  <ellipse
     style="fill:none;stroke:#000000;stroke-width:0.503352;stroke-dasharray:none;stroke-opacity:1"
     id="ellipse17"
     cx="246.66545"
     cy="99.555542"
     rx="0.92109114"
     ry="1.8293629" />
  <path
     style="fill:none;fill-opacity:1;stroke:#000000;stroke-width:2.01341;stroke-dasharray:none;stroke-opacity:1"
     d="m 245.38612,80.984937 c 0,0 37.41964,24.317433 40.9252,35.946103"
     id="path19" />
  <path
     style="fill:#000000;fill-opacity:1;stroke:#000000;stroke-width:0.377515;stroke-dasharray:none;stroke-opacity:1"
     d="m 237.53356,107.18016 c -1.15991,-1.74324 -1.62766,-3.11813 -1.69088,-4.97005 -0.023,-0.67481 -0.005,-1.41805 0.0396,-1.65163 l 0.0815,-0.42469 0.15998,0.47296 c 0.41316,1.22149 1.42557,1.42841 1.97299,0.40326 0.18739,-0.3509 0.21592,-0.54156 0.21592,-1.442497 0,-0.894162 -0.0292,-1.092948 -0.2111,-1.433049 -0.24562,-0.45948 -0.53588,-0.689889 -0.87166,-0.691914 -0.18866,-10e-4 -0.20895,-0.02062 -0.097,-0.09299 0.0779,-0.05037 0.27628,-0.09212 0.44093,-0.09287 0.23539,-0.001 0.37131,0.08262 0.63593,0.391723 0.3041,0.355287 0.35861,0.383135 0.56542,0.288904 0.26376,-0.120116 0.26241,-0.178875 -0.0455,-1.975623 -0.36413,-2.125025 -0.99123,-3.236634 -1.82589,-3.236634 -0.24617,0 -0.24651,-0.001 -0.0844,-0.259531 0.54521,-0.869289 1.08222,-1.318795 1.43991,-1.205265 0.72352,0.229633 1.4722,2.820213 1.84166,6.372487 0.0836,0.804581 0.16702,1.590276 0.18521,1.746002 0.0418,0.357537 -0.25954,2.773137 -0.52385,4.199847 -0.38902,2.09983 -1.03509,3.85764 -1.53927,4.188 -0.20062,0.13145 -0.22654,0.10936 -0.68952,-0.58644 z"
     id="path20" />
  <path
     style="fill:#000000;fill-opacity:1;stroke:#000000;stroke-width:0.377515;stroke-dasharray:none;stroke-opacity:1"
     d="m 246.96029,107.11767 c -1.21456,-1.81592 -1.80316,-3.80376 -1.67668,-5.66259 0.0597,-0.87785 0.22196,-1.665658 0.24293,-1.17973 0.0157,0.36622 0.33251,0.98431 0.62037,1.21074 0.83662,0.65809 1.69795,-0.31515 1.69795,-1.918577 0,-1.174117 -0.37164,-1.923502 -1.04943,-2.116151 l -0.27187,-0.07724 0.27278,-0.07299 c 0.38075,-0.101868 0.73099,0.0465 0.95354,0.403946 0.1544,0.24797 0.23288,0.294104 0.4251,0.249808 0.12967,-0.02987 0.2538,-0.07237 0.27585,-0.09437 0.0692,-0.06924 -0.26301,-2.223993 -0.456,-2.957766 -0.35125,-1.335543 -0.96208,-2.177621 -1.57961,-2.177621 -0.12212,0 -0.22198,-0.02487 -0.22198,-0.05525 0,-0.03037 0.15641,-0.279118 0.34757,-0.552674 0.42045,-0.601657 0.88241,-0.943796 1.15676,-0.856727 0.83238,0.264194 1.5852,3.033386 1.98896,7.316171 0.10011,1.06235 0.0912,1.333481 -0.09,2.725121 -0.25158,1.93252 -0.56408,3.47418 -0.94302,4.65224 -0.30585,0.95086 -0.79182,1.80156 -1.05807,1.85218 -0.10375,0.0198 -0.31374,-0.20784 -0.63517,-0.68841 z"
     id="path21" />
  <path
     style="fill:none;fill-opacity:1;stroke:#000000;stroke-width:2.49982;stroke-miterlimit:3.2;stroke-opacity:1"
     d="m 215.04245,147.31548 65.97029,2.72451 7.83748,70.17777 h -87.29856 z"
     id="path73" />
  <path
     style="fill:none;fill-opacity:1;stroke:#000000;stroke-width:2;stroke-miterlimit:3.2;stroke-opacity:1"
     d="M 103.69247,182.22656 H 207.6605"
     id="path74" />
  <path
     style="fill:none;fill-opacity:1;stroke:#000000;stroke-width:2;stroke-miterlimit:3.2;stroke-opacity:1"
     d="m 283.80966,182.22656 46.04568,0"
     id="path75"
     sodipodi:nodetypes="cc" />
  <ellipse
     style="fill:none;fill-opacity:1;stroke:#000000;stroke-width:2;stroke-miterlimit:3.2;stroke-opacity:1"
     id="path76"
     cx="280.12415"
     cy="38.059132"
     rx="41.819878"
     ry="15.958103" />
  <ellipse
     style="fill:#ffffff;fill-opacity:1;stroke:#000000;stroke-width:1.80686;stroke-miterlimit:3.2;stroke-opacity:1"
     id="path77"
     cx="49.479252"
     cy="87.333191"
     rx="22.494751"
     ry="9.4453449" />
  <ellipse
     style="fill:#ffffff;fill-opacity:1;stroke:#000000;stroke-width:1.80686;stroke-miterlimit:3.2;stroke-opacity:1"
     id="ellipse77"
     cx="53.242527"
     cy="110.69476"
     rx="22.494751"
     ry="9.4453449" />
  <ellipse
     style="fill:#ffffff;fill-opacity:1;stroke:#000000;stroke-width:1.80686;stroke-miterlimit:3.2;stroke-opacity:1"
     id="ellipse78"
     cx="62.689198"
     cy="133.17296"
     rx="22.494751"
     ry="9.4453449" />
  <ellipse
     style="fill:#ffffff;fill-opacity:1;stroke:#000000;stroke-width:1.80686;stroke-miterlimit:3.2;stroke-opacity:1"
     id="ellipse79"
     cx="72.873474"
     cy="156.08226"
     rx="22.494751"
     ry="9.4453449" />
  <ellipse
     style="fill:#ffffff;fill-opacity:1;stroke:#000000;stroke-width:1.80686;stroke-miterlimit:3.2;stroke-opacity:1"
     id="ellipse80"
     cx="86.26165"
     cy="177.38841"
     rx="22.494751"
     ry="9.4453449" />
  <ellipse
     style="fill:#ffffff;fill-opacity:1;stroke:#000000;stroke-width:1.80686;stroke-miterlimit:3.2;stroke-opacity:1"
     id="ellipse81"
     cx="102.51102"
     cy="199.31499"
     rx="22.494751"
     ry="9.4453449" />
  <ellipse
     style="fill:#ffffff;fill-opacity:1;stroke:#000000;stroke-width:2;stroke-miterlimit:3.2;stroke-opacity:1"
     id="path81"
     cx="67.84568"
     cy="46.849899"
     rx="43.432453"
     ry="27.767422" />
</svg>
