<?xml version="1.0" encoding="UTF-8" standalone="no"?>
<svg
   viewBox="0.0 0.0 348.0 348.0"
   fill="none"
   version="1.1"
   id="svg6"
   sodipodi:docname="Sbemail Songs.svg"
   inkscape:version="1.2.1 (9c6d41e410, 2022-07-14)"
   xmlns:inkscape="http://www.inkscape.org/namespaces/inkscape"
   xmlns:sodipodi="http://sodipodi.sourceforge.net/DTD/sodipodi-0.dtd"
   xmlns="http://www.w3.org/2000/svg"
   xmlns:svg="http://www.w3.org/2000/svg">
  <defs
     id="defs10" />
  <sodipodi:namedview
     id="namedview8"
     pagecolor="#505050"
     bordercolor="#eeeeee"
     borderopacity="1"
     inkscape:showpageshadow="0"
     inkscape:pageopacity="0"
     inkscape:pagecheckerboard="0"
     inkscape:deskcolor="#505050"
     showgrid="false"
     inkscape:zoom="2.2298851"
     inkscape:cx="174.44845"
     inkscape:cy="179.82989"
     inkscape:window-width="1920"
     inkscape:window-height="974"
     inkscape:window-x="-11"
     inkscape:window-y="-11"
     inkscape:window-maximized="1"
     inkscape:current-layer="svg6" />
  <path
     d="M5.079 5.776h336.913v337.67H5.08z"
     stroke-width="2"
     stroke="#000"
     id="path2" />
  <path
     d="M282.734 40.554c0-8.376 6.966-15.165 15.56-15.165 4.126 0 8.084 1.597 11.001 4.441 2.918 2.844 4.558 6.702 4.558 10.724 0 8.376-6.966 15.165-15.56 15.165-8.593 0-15.559-6.79-15.559-15.165z"
     stroke-width="2"
     stroke="#000"
     id="path4" />
  <rect
     style="fill:#000000;fill-opacity:0;stroke:#000000;stroke-width:3;stroke-linejoin:round;stroke-dasharray:none"
     id="rect845"
     width="318.98462"
     height="248.98463"
     x="14.358199"
     y="66.827271"
     ry="64.577316" />
  <g
     aria-label="COMPY 386"
     id="text789"
     style="font-weight:bold;font-size:18.6667px;font-family:'Square721 BT';-inkscape-font-specification:'Square721 BT Bold';fill:#000000;stroke:#000000;stroke-linejoin:round">
    <path
       d="m 15.114303,327.25295 q 0,-2.60677 0.993492,-3.62761 1.002606,-1.02083 3.52735,-1.02083 h 1.58594 q 2.506515,0 3.518236,0.88411 1.01172,0.87501 1.01172,2.98048 v 0.59245 h -1.549482 v -0.3737 q 0,-1.54037 -0.628907,-2.10547 -0.628908,-0.56511 -2.460942,-0.56511 h -1.048179 q -1.230471,0 -1.795576,0.15495 -0.555991,0.14583 -0.929689,0.5013 -0.373699,0.34636 -0.528647,0.91146 -0.145834,0.55599 -0.145834,2.04167 v 3.86459 q 0,1.47657 0.145834,2.04167 0.154948,0.55599 0.528647,0.90235 0.373698,0.35547 0.902345,0.51042 0.537761,0.14583 1.82292,0.14583 h 1.048179 q 1.877607,0 2.4974,-0.59245 0.619793,-0.59245 0.619793,-2.26953 0,-0.25521 -0.0091,-0.39193 0,-0.13672 -0.0091,-0.25521 h 1.540367 v 0.89323 q 0,2.26042 -0.984377,3.14454 -0.975262,0.88411 -3.545579,0.88411 h -1.58594 q -2.524744,0 -3.52735,-1.02083 -0.993492,-1.02084 -0.993492,-3.62761 z"
       style="font-weight:normal"
       id="path1655" />
    <path
       d="m 34.027097,324.01727 h -0.838543 q -1.430992,0 -2.023441,0.15495 -0.592449,0.15495 -1.020835,0.51953 -0.401043,0.34636 -0.565105,0.93881 -0.164063,0.58333 -0.164063,2.01432 v 3.84636 q 0,1.42188 0.164063,2.00521 0.164062,0.57422 0.565105,0.92058 0.428386,0.36458 1.020835,0.51953 0.592449,0.15495 2.023441,0.15495 h 0.838543 q 1.430993,0 2.032556,-0.15495 0.601564,-0.15495 1.02995,-0.51953 0.391928,-0.33724 0.546876,-0.90235 0.164063,-0.5651 0.164063,-2.02344 v -3.86459 q 0,-1.43099 -0.164063,-2.01432 -0.164063,-0.59245 -0.565105,-0.93881 -0.419272,-0.35547 -1.011721,-0.5013 -0.592449,-0.15495 -2.032556,-0.15495 z m -6.161469,3.23568 q 0,-2.59766 1.075523,-3.61849 1.075522,-1.02995 3.819017,-1.02995 h 1.713545 q 2.770838,0 3.828132,1.01172 1.066408,1.01172 1.066408,3.63672 v 4.60288 q 0,2.60677 -1.084638,3.62761 -1.075522,1.02083 -3.809902,1.02083 h -1.713545 q -2.743495,0 -3.819017,-1.02083 -1.075523,-1.02084 -1.075523,-3.62761 z"
       style="font-weight:normal"
       id="path1657" />
    <path
       d="m 42.202893,336.34021 v -13.57164 h 2.470057 l 4.648446,12.09507 4.602873,-12.09507 h 2.488285 v 13.57164 H 54.91776 V 324.0355 l -4.684904,12.30471 H 48.382592 L 43.697688,324.0355 v 12.30471 z"
       style="font-weight:normal"
       id="path1659" />
    <path
       d="m 67.851379,327.91832 v -1.9961 q 0,-0.98437 -0.464844,-1.34896 -0.45573,-0.36458 -1.996098,-0.36458 h -4.20183 v 5.4323 h 4.20183 q 1.513024,0 1.986983,-0.3737 0.473959,-0.3737 0.473959,-1.34896 z m -8.157567,8.42189 v -13.57164 h 5.714855 q 2.287764,0 3.144536,0.6836 0.865887,0.67448 0.865887,2.41536 v 2.05079 q 0,1.78646 -0.856772,2.47006 -0.847658,0.68359 -3.153651,0.68359 h -4.22006 v 5.26824 z"
       style="font-weight:normal"
       id="path1661" />
    <path
       d="m 76.236809,336.34021 h -1.476565 v -6.00652 l -5.614594,-7.56512 h 1.768232 l 4.57553,6.32553 4.575529,-6.32553 h 1.777347 l -5.605479,7.53777 z"
       style="font-weight:normal"
       id="path1663" />
    <path
       d="m 88.687355,331.8376 h 1.513023 v 1.22135 q 0,1.19402 0.638022,1.6224 0.638022,0.42839 2.953131,0.42839 1.613284,0 2.251306,-0.16406 0.638022,-0.16407 0.920574,-0.56511 0.127605,-0.20052 0.182292,-0.62891 0.05469,-0.42838 0.05469,-1.54036 0,-1.27605 -0.510418,-1.67709 -0.510417,-0.41016 -1.859378,-0.41016 h -2.069014 v -1.38542 h 1.886722 q 1.348961,0 1.832035,-0.45573 0.483073,-0.46484 0.483073,-1.96875 0,-1.01172 -0.109375,-1.35808 -0.10026,-0.35546 -0.364584,-0.5651 -0.227865,-0.19141 -0.938803,-0.28255 -0.701825,-0.0912 -2.041671,-0.0912 -1.950524,0 -2.506515,0.3737 -0.55599,0.36458 -0.55599,1.40365 v 1.23047 h -1.513024 v -1.19401 q 0,-1.74089 1.020835,-2.47917 1.02995,-0.7474 3.518236,-0.7474 1.604169,0 2.388025,0.0911 0.79297,0.082 1.230471,0.30079 0.783855,0.37369 1.102866,1.0664 0.319011,0.6836 0.319011,2.16016 0,1.6224 -0.419271,2.26954 -0.419272,0.63802 -1.48568,0.86589 1.184898,0.23698 1.649743,0.89323 0.473959,0.64713 0.473959,2.11458 0,0.92058 -0.08203,1.53126 -0.08203,0.60156 -0.273438,1.03906 -0.364584,0.86589 -1.312502,1.22136 -0.938804,0.34635 -3.235683,0.34635 -2.141931,0 -2.907557,-0.17317 -0.756512,-0.1823 -1.239586,-0.62891 -0.510417,-0.46485 -0.756512,-1.13933 -0.236979,-0.67448 -0.236979,-1.65885 z"
       style="font-weight:normal"
       id="path1665" />
    <path
       d="m 106.37879,328.66572 q 2.05078,0 2.625,-0.42839 0.57422,-0.4375 0.57422,-1.83203 0,-0.8112 -0.0638,-1.16667 -0.0638,-0.35547 -0.21875,-0.58334 -0.21875,-0.33724 -0.92057,-0.48307 -0.70183,-0.15495 -2.12371,-0.15495 -1.26693,0 -1.94141,0.11849 -0.66536,0.10938 -0.92969,0.3737 -0.20963,0.19141 -0.29166,0.57422 -0.082,0.3737 -0.082,1.40365 0,1.33073 0.58333,1.75912 0.59245,0.41927 2.78907,0.41927 z m -0.10938,6.42579 q 1.33985,0 1.98699,-0.10026 0.64713,-0.10938 0.94791,-0.34636 0.32813,-0.2552 0.45573,-0.67448 0.13672,-0.41927 0.13672,-1.38542 0,-0.78385 -0.0729,-1.16666 -0.0729,-0.39193 -0.2461,-0.65626 -0.26432,-0.41927 -0.90234,-0.58333 -0.63803,-0.16406 -2.306,-0.16406 -1.42187,0 -2.04167,0.10026 -0.61068,0.10026 -0.90234,0.34635 -0.29167,0.2461 -0.41927,0.71094 -0.12761,0.45573 -0.12761,1.2487 0,0.97526 0.10026,1.40365 0.10026,0.41927 0.32813,0.66537 0.30078,0.31901 0.98437,0.46484 0.6836,0.13672 2.07813,0.13672 z m -3.09896,-5.806 q -0.9388,-0.24609 -1.32162,-0.875 -0.3737,-0.62891 -0.3737,-2.04167 0,-1.11198 0.10938,-1.64974 0.11849,-0.54688 0.39193,-0.95704 0.42838,-0.63802 1.36719,-0.89323 0.94791,-0.26432 3.01693,-0.26432 1.56771,0 2.48828,0.16406 0.92058,0.15495 1.32162,0.5013 0.52865,0.44662 0.73828,1.06641 0.21875,0.61979 0.21875,1.92318 0,1.50391 -0.40104,2.17839 -0.40104,0.66537 -1.35807,0.84766 1.08463,0.28255 1.51302,0.94792 0.42839,0.65625 0.42839,2.1875 0,1.47657 -0.19141,2.17839 -0.19141,0.69271 -0.64714,1.10287 -0.48307,0.4375 -1.41276,0.61979 -0.92969,0.18229 -2.91667,0.18229 -1.98698,0 -2.91667,-0.26432 -0.92058,-0.26432 -1.431,-0.91146 -0.28255,-0.34636 -0.41015,-0.96615 -0.11849,-0.62891 -0.11849,-1.90495 0,-1.57683 0.41927,-2.23308 0.41927,-0.65625 1.48568,-0.9388 z"
       style="font-weight:normal"
       id="path1667" />
    <path
       d="m 114.01683,332.54854 v -6.23439 q 0,-2.03256 0.90234,-2.8711 0.91146,-0.83854 3.08985,-0.83854 h 2.10547 q 2.07813,0 2.98048,0.70182 0.90234,0.69271 0.90234,2.27865 v 0.72917 h -1.51302 v -0.42839 q 0,-1.09375 -0.59245,-1.46745 -0.59245,-0.38281 -2.65235,-0.38281 -1.41276,0 -2.07813,0.0911 -0.65625,0.082 -0.96615,0.28255 -0.32812,0.20963 -0.53776,0.69271 -0.20963,0.48307 -0.20963,1.06641 v 3.20834 q 0.36458,-0.7474 1.17578,-1.04818 0.82031,-0.3099 2.67058,-0.3099 2.55209,0 3.60938,0.63802 1.05729,0.63802 1.05729,2.1237 v 2.46095 q 0,0.97526 -0.28255,1.64974 -0.28255,0.67448 -0.83854,1.03906 -0.51042,0.32813 -1.27605,0.45573 -0.76562,0.13672 -2.84375,0.13672 -2.67058,0 -3.69141,-0.875 -1.01172,-0.875 -1.01172,-3.09896 z m 8.44923,0.60156 v -1.94141 q 0,-1.08464 -0.58334,-1.44922 -0.58333,-0.36459 -2.92578,-0.36459 -1.37631,0 -2.07813,0.15495 -0.70182,0.14584 -1.02084,0.48308 -0.22786,0.23698 -0.32812,0.70182 -0.10026,0.45573 -0.10026,1.36719 0,0.85677 0.0729,1.36719 0.082,0.5013 0.24609,0.70183 0.3737,0.49218 1.03906,0.6927 0.66537,0.19141 2.59766,0.19141 1.94141,0 2.50652,-0.36458 0.57422,-0.3737 0.57422,-1.54037 z"
       style="font-weight:normal"
       id="path1669" />
  </g>
  <g
     aria-label="song 1"
     id="text1168"
     style="font-weight:bold;font-size:18.6667px;font-family:'Commodore 64';-inkscape-font-specification:'Commodore 64 Bold';fill:#000000;stroke-linejoin:round">
    <path
       d="m 49.999998,130.93752 h 7.29168 v -1.82292 h -5.46876 v -1.82292 h -1.82292 v -1.82292 h 1.82292 v -1.82292 h 9.1146 v 1.82292 h -7.29168 v 1.82292 h 5.46876 v 1.82292 h 1.82292 v 1.82292 h -1.82292 v 1.82292 h -9.1146 z"
       id="path1586" />
    <path
       d="m 64.583358,125.46876 h 1.82292 v -1.82292 h 7.29168 v 1.82292 h 1.82292 v 5.46876 h -1.82292 v 1.82292 h -7.29168 v -1.82292 h -1.82292 z m 3.64584,0 v 5.46876 h 3.64584 v -5.46876 z"
       id="path1588" />
    <path
       d="m 79.166718,123.64584 h 9.114599 v 1.82292 h 1.82292 v 7.29168 h -3.64584 v -7.29168 h -3.645839 v 7.29168 h -3.64584 z"
       id="path1590" />
    <path
       d="m 93.750078,132.76044 h 7.291682 v -1.82292 h -5.468762 v -1.82292 h -1.82292 v -3.64584 h 1.82292 v -1.82292 h 9.114602 v 9.1146 h -1.82292 v 1.82292 h -9.114602 z m 3.64584,-7.29168 v 3.64584 h 3.645842 v -3.64584 z"
       id="path1592" />
    <path
       d="m 126.56264,125.46876 h -1.82292 v -1.82292 h 1.82292 V 120 h 3.64584 v 10.93752 h 3.64584 v 1.82292 H 122.9168 v -1.82292 h 3.64584 z"
       id="path1594" />
  </g>
  <g
     aria-label="song 2"
     id="text1168-9"
     style="font-weight:bold;font-size:18.6667px;font-family:'Commodore 64';-inkscape-font-specification:'Commodore 64 Bold';fill:#000000;stroke-linejoin:round">
    <path
       d="m 200,131.00665 h 7.29168 v -1.82292 h -5.46876 v -1.82292 H 200 v -1.82292 h 1.82292 v -1.82292 h 9.1146 v 1.82292 h -7.29168 v 1.82292 h 5.46876 v 1.82292 h 1.82292 v 1.82292 h -1.82292 v 1.82292 H 200 Z"
       id="path1611" />
    <path
       d="m 214.58336,125.53789 h 1.82292 v -1.82292 h 7.29168 v 1.82292 h 1.82292 v 5.46876 h -1.82292 v 1.82292 h -7.29168 v -1.82292 h -1.82292 z m 3.64584,0 v 5.46876 h 3.64584 v -5.46876 z"
       id="path1613" />
    <path
       d="m 229.16672,123.71497 h 9.1146 v 1.82292 h 1.82292 v 7.29168 h -3.64584 v -7.29168 h -3.64584 v 7.29168 h -3.64584 z"
       id="path1615" />
    <path
       d="m 243.75008,132.82957 h 7.29168 v -1.82292 H 245.573 v -1.82292 h -1.82292 v -3.64584 h 1.82292 v -1.82292 h 9.1146 v 9.1146 h -1.82292 v 1.82292 h -9.1146 z m 3.64584,-7.29168 v 3.64584 h 3.64584 v -3.64584 z"
       id="path1617" />
    <path
       d="m 282.0314,120.06913 v 1.82292 h 1.82292 v 3.64584 h -1.82292 v 1.82292 h -3.64584 v -1.82292 h 1.82292 v -3.64584 h -3.64584 v 1.82292 h -3.64584 v -1.82292 h 1.82292 v -1.82292 z m -3.64584,7.29168 v 1.82292 h -1.82292 v 1.82292 h 7.29168 v 1.82292 H 272.9168 v -3.64584 h 1.82292 v -1.82292 z"
       id="path1619" />
  </g>
  <g
     aria-label="song 3"
     id="text1215"
     style="font-weight:bold;font-size:18.6667px;font-family:'Commodore 64';-inkscape-font-specification:'Commodore 64 Bold';fill:#000000;stroke-linejoin:round">
    <path
       d="m 49.999998,185.93752 h 7.29168 v -1.82292 h -5.46876 v -1.82292 h -1.82292 v -1.82292 h 1.82292 v -1.82292 h 9.1146 v 1.82292 h -7.29168 v 1.82292 h 5.46876 v 1.82292 h 1.82292 v 1.82292 h -1.82292 v 1.82292 h -9.1146 z"
       id="path1600" />
    <path
       d="m 64.583358,180.46876 h 1.82292 v -1.82292 h 7.29168 v 1.82292 h 1.82292 v 5.46876 h -1.82292 v 1.82292 h -7.29168 v -1.82292 h -1.82292 z m 3.64584,0 v 5.46876 h 3.64584 v -5.46876 z"
       id="path1602" />
    <path
       d="m 79.166718,178.64584 h 9.114599 v 1.82292 h 1.82292 v 7.29168 h -3.64584 v -7.29168 h -3.645839 v 7.29168 h -3.64584 z"
       id="path1604" />
    <path
       d="m 93.750078,187.76044 h 7.291682 v -1.82292 h -5.468762 v -1.82292 h -1.82292 v -3.64584 h 1.82292 v -1.82292 h 9.114602 v 9.1146 h -1.82292 v 1.82292 h -9.114602 z m 3.64584,-7.29168 v 3.64584 h 3.645842 v -3.64584 z"
       id="path1606" />
    <path
       d="m 122.9168,184.1146 h 3.64584 v 1.82292 h 3.64584 v -3.64584 h -3.64584 v -1.82292 h 3.64584 v -3.64584 h -3.64584 v 1.82292 h -3.64584 v -1.82292 h 1.82292 V 175 h 7.29168 v 1.82292 h 1.82292 v 3.64584 h -1.82292 v 1.82292 h 1.82292 v 3.64584 h -1.82292 v 1.82292 h -7.29168 v -1.82292 h -1.82292 z"
       id="path1608" />
  </g>
  <g
     aria-label="song 4"
     id="text1219"
     style="font-weight:bold;font-size:18.6667px;font-family:'Commodore 64';-inkscape-font-specification:'Commodore 64 Bold';fill:#000000;stroke-linejoin:round">
    <path
       d="m 200,185.93752 h 7.29168 v -1.82292 h -5.46876 v -1.82292 H 200 v -1.82292 h 1.82292 v -1.82292 h 9.1146 v 1.82292 h -7.29168 v 1.82292 h 5.46876 v 1.82292 h 1.82292 v 1.82292 h -1.82292 v 1.82292 H 200 Z"
       id="path1625" />
    <path
       d="m 214.58336,180.46876 h 1.82292 v -1.82292 h 7.29168 v 1.82292 h 1.82292 v 5.46876 h -1.82292 v 1.82292 h -7.29168 v -1.82292 h -1.82292 z m 3.64584,0 v 5.46876 h 3.64584 v -5.46876 z"
       id="path1627" />
    <path
       d="m 229.16672,178.64584 h 9.1146 v 1.82292 h 1.82292 v 7.29168 h -3.64584 v -7.29168 h -3.64584 v 7.29168 h -3.64584 z"
       id="path1629" />
    <path
       d="m 243.75008,187.76044 h 7.29168 v -1.82292 H 245.573 v -1.82292 h -1.82292 v -3.64584 h 1.82292 v -1.82292 h 9.1146 v 9.1146 h -1.82292 v 1.82292 h -9.1146 z m 3.64584,-7.29168 v 3.64584 h 3.64584 v -3.64584 z"
       id="path1631" />
    <path
       d="m 272.9168,180.46876 h 3.64584 v -1.82292 h 1.82292 v -1.82292 h 1.82292 V 175 h 3.64584 v 7.29168 h 1.82292 v 1.82292 h -1.82292 v 3.64584 h -3.64584 v -3.64584 h -7.29168 z m 3.64584,1.82292 h 3.64584 v -1.82292 h -3.64584 z"
       id="path1633" />
  </g>
  <g
     aria-label="submit"
     id="text1223"
     style="font-weight:bold;font-size:18.6667px;font-family:'Commodore 64';-inkscape-font-specification:'Commodore 64 Bold';fill:#000000;stroke-linejoin:round">
    <path
       d="m 125,260.93752 h 7.29168 v -1.82292 h -5.46876 v -1.82292 H 125 v -1.82292 h 1.82292 v -1.82292 h 9.1146 v 1.82292 h -7.29168 v 1.82292 h 5.46876 v 1.82292 h 1.82292 v 1.82292 h -1.82292 v 1.82292 H 125 Z"
       id="path1642" />
    <path
       d="m 139.58336,253.64584 h 3.64584 v 7.29168 h 3.64584 v -7.29168 h 3.64584 v 9.1146 h -9.1146 v -1.82292 h -1.82292 z"
       id="path1644" />
    <path
       d="m 154.16672,251.82292 h 3.64584 v 3.64584 h 5.46876 v 1.82292 h 1.82292 v 3.64584 h -1.82292 v 1.82292 h -9.1146 z m 3.64584,5.46876 v 3.64584 h 3.64584 v -3.64584 z"
       id="path1646" />
    <path
       d="m 168.75008,253.64584 h 3.64584 v 1.82292 h 3.64584 v -1.82292 h 3.64584 v 1.82292 h 1.82292 v 7.29168 h -3.64584 v -3.64584 h -1.82292 v 1.82292 h -1.82292 v -1.82292 h -1.82292 v 3.64584 h -3.64584 z"
       id="path1648" />
    <path
       d="m 186.97928,255.46876 h -1.82292 v -1.82292 h 5.46876 v 7.29168 h 1.82292 v 1.82292 h -7.29168 v -1.82292 h 1.82292 z m 0,-5.46876 h 3.64584 v 1.82292 h -3.64584 z"
       id="path1650" />
    <path
       d="m 197.9168,253.64584 h 3.64584 v -1.82292 h 3.64584 v 1.82292 h 3.64584 v 1.82292 h -3.64584 v 5.46876 h 3.64584 v 1.82292 h -5.46876 v -1.82292 h -1.82292 v -5.46876 h -3.64584 z"
       id="path1652" />
  </g>
  <rect
     style="fill:none;fill-opacity:1;stroke:#000000;stroke-width:1.00178;stroke-linejoin:round;stroke-dasharray:none;stroke-opacity:1"
     id="rect1277"
     width="30.998224"
     height="30.998222"
     x="79.810165"
     y="140.50089"
     ry="0" />
  <circle
     style="fill:none;fill-opacity:1;stroke:#000000;stroke-width:1;stroke-linejoin:round;stroke-dasharray:none;stroke-opacity:1"
     id="path1331"
     cx="61.038658"
     cy="156.73453"
     r="10.53866" />
  <circle
     style="fill:none;fill-opacity:1;stroke:#000000;stroke-width:1;stroke-linejoin:round;stroke-dasharray:none;stroke-opacity:1"
     id="circle1355"
     cx="128.75516"
     cy="156.73453"
     r="10.53866" />
  <path
     style="fill:none;fill-opacity:1;stroke:#000000;stroke-width:1;stroke-linejoin:round;stroke-dasharray:none;stroke-opacity:1"
     d="m 65.298968,162.78866 -8.969072,-5.38145 8.969072,-5.38144 -1.793815,4.93299 z"
     id="path1420" />
  <path
     style="fill:none;fill-opacity:1;stroke:#000000;stroke-width:1;stroke-linejoin:round;stroke-dasharray:none;stroke-opacity:1"
     d="m 125.94323,162.78866 8.96907,-5.38145 -8.96907,-5.38144 1.79381,4.93299 z"
     id="path1420-5" />
  <g
     aria-label="A"
     id="text1498"
     style="font-weight:bold;font-size:26.6667px;font-family:'Commodore 64';-inkscape-font-specification:'Commodore 64 Bold';fill:#000000;stroke-linejoin:round">
    <path
       d="m 87.635092,152.01006 h 2.60417 v -2.60417 h 2.60417 v -2.60417 h 5.20834 v 2.60417 h 2.604168 v 2.60417 h 2.60417 v 13.02085 h -5.208338 v -7.81251 h -5.20834 v 7.81251 h -5.20834 z m 5.20834,0 v 2.60417 h 5.20834 v -2.60417 z"
       id="path1597" />
  </g>
  <rect
     style="fill:none;fill-opacity:1;stroke:#000000;stroke-width:1.00178;stroke-linejoin:round;stroke-dasharray:none;stroke-opacity:1"
     id="rect1544"
     width="30.998224"
     height="30.998222"
     x="229.81017"
     y="140.50089"
     ry="0" />
  <circle
     style="fill:none;fill-opacity:1;stroke:#000000;stroke-width:1;stroke-linejoin:round;stroke-dasharray:none;stroke-opacity:1"
     id="circle1546"
     cx="211.03867"
     cy="156.73453"
     r="10.53866" />
  <circle
     style="fill:none;fill-opacity:1;stroke:#000000;stroke-width:1;stroke-linejoin:round;stroke-dasharray:none;stroke-opacity:1"
     id="circle1548"
     cx="278.75516"
     cy="156.73453"
     r="10.53866" />
  <path
     style="fill:none;fill-opacity:1;stroke:#000000;stroke-width:1;stroke-linejoin:round;stroke-dasharray:none;stroke-opacity:1"
     d="m 215.29897,162.78866 -8.96907,-5.38145 8.96907,-5.38144 -1.79382,4.93299 z"
     id="path1550" />
  <path
     style="fill:none;fill-opacity:1;stroke:#000000;stroke-width:1;stroke-linejoin:round;stroke-dasharray:none;stroke-opacity:1"
     d="m 275.94323,162.78866 8.96907,-5.38145 -8.96907,-5.38144 1.79381,4.93299 z"
     id="path1552" />
  <g
     aria-label="B"
     id="text1556"
     style="font-weight:bold;font-size:26.6667px;font-family:'Commodore 64';-inkscape-font-specification:'Commodore 64 Bold';fill:#000000;stroke-linejoin:round">
    <path
       d="m 237.6351,146.80172 h 13.02085 v 2.60417 h 2.60417 v 5.20834 h -2.60417 v 2.60417 h 2.60417 v 5.20834 h -2.60417 v 2.60417 H 237.6351 Z m 5.20834,10.41668 v 5.20834 h 5.20834 v -5.20834 z m 0,-7.81251 v 5.20834 h 5.20834 v -5.20834 z"
       id="path1622" />
  </g>
  <rect
     style="fill:none;fill-opacity:1;stroke:#000000;stroke-width:1.00178;stroke-linejoin:round;stroke-dasharray:none;stroke-opacity:1"
     id="rect1558"
     width="30.998224"
     height="30.998222"
     x="229.81017"
     y="200.50089"
     ry="0" />
  <circle
     style="fill:none;fill-opacity:1;stroke:#000000;stroke-width:1;stroke-linejoin:round;stroke-dasharray:none;stroke-opacity:1"
     id="circle1560"
     cx="211.03867"
     cy="216.73453"
     r="10.53866" />
  <circle
     style="fill:none;fill-opacity:1;stroke:#000000;stroke-width:1;stroke-linejoin:round;stroke-dasharray:none;stroke-opacity:1"
     id="circle1562"
     cx="278.75516"
     cy="216.73453"
     r="10.53866" />
  <path
     style="fill:none;fill-opacity:1;stroke:#000000;stroke-width:1;stroke-linejoin:round;stroke-dasharray:none;stroke-opacity:1"
     d="m 215.29897,222.78868 -8.96907,-5.38145 8.96907,-5.38144 -1.79382,4.93299 z"
     id="path1564" />
  <path
     style="fill:none;fill-opacity:1;stroke:#000000;stroke-width:1;stroke-linejoin:round;stroke-dasharray:none;stroke-opacity:1"
     d="m 275.94323,222.78868 8.96907,-5.38145 -8.96907,-5.38144 1.79381,4.93299 z"
     id="path1566" />
  <g
     aria-label="D"
     id="text1570"
     style="font-weight:bold;font-size:26.6667px;font-family:'Commodore 64';-inkscape-font-specification:'Commodore 64 Bold';fill:#000000;stroke-linejoin:round">
    <path
       d="m 237.6351,206.80172 h 10.41668 v 2.60417 h 2.60417 v 2.60417 h 2.60417 v 7.81251 h -2.60417 v 2.60417 h -2.60417 v 2.60417 H 237.6351 Z m 5.20834,2.60417 v 13.02085 h 2.60417 v -2.60417 h 2.60417 v -7.81251 h -2.60417 v -2.60417 z"
       id="path1636" />
  </g>
  <rect
     style="fill:none;fill-opacity:1;stroke:#000000;stroke-width:1.00178;stroke-linejoin:round;stroke-dasharray:none;stroke-opacity:1"
     id="rect1572"
     width="30.998224"
     height="30.998222"
     x="79.810158"
     y="200.50089"
     ry="0" />
  <circle
     style="fill:none;fill-opacity:1;stroke:#000000;stroke-width:1;stroke-linejoin:round;stroke-dasharray:none;stroke-opacity:1"
     id="circle1574"
     cx="61.038658"
     cy="216.73453"
     r="10.53866" />
  <circle
     style="fill:none;fill-opacity:1;stroke:#000000;stroke-width:1;stroke-linejoin:round;stroke-dasharray:none;stroke-opacity:1"
     id="circle1576"
     cx="128.75514"
     cy="216.73453"
     r="10.53866" />
  <path
     style="fill:none;fill-opacity:1;stroke:#000000;stroke-width:1;stroke-linejoin:round;stroke-dasharray:none;stroke-opacity:1"
     d="m 65.298963,222.78868 -8.96907,-5.38145 8.96907,-5.38144 -1.79382,4.93299 z"
     id="path1578" />
  <path
     style="fill:none;fill-opacity:1;stroke:#000000;stroke-width:1;stroke-linejoin:round;stroke-dasharray:none;stroke-opacity:1"
     d="m 125.94322,222.78868 8.96907,-5.38145 -8.96907,-5.38144 1.79381,4.93299 z"
     id="path1580" />
  <g
     aria-label="C"
     id="text1584"
     style="font-weight:bold;font-size:26.6667px;font-family:'Commodore 64';-inkscape-font-specification:'Commodore 64 Bold';fill:#000000;stroke-linejoin:round">
    <path
       d="m 87.635092,209.40589 h 2.60417 v -2.60417 h 10.416678 v 2.60417 h 2.60417 v 2.60417 h -5.208338 v -2.60417 h -5.20834 v 13.02085 h 5.20834 v -2.60417 h 5.208338 v 2.60417 h -2.60417 v 2.60417 H 90.239262 v -2.60417 h -2.60417 z"
       id="path1639" />
  </g>
</svg>
