<?xml version="1.0" encoding="UTF-8" standalone="no"?>
<svg
   viewBox="0.0 0.0 348.0 348.0"
   fill="none"
   version="1.1"
   id="svg6"
   sodipodi:docname="Sbemail Songs 2.svg"
   inkscape:version="1.2.1 (9c6d41e410, 2022-07-14)"
   xmlns:inkscape="http://www.inkscape.org/namespaces/inkscape"
   xmlns:sodipodi="http://sodipodi.sourceforge.net/DTD/sodipodi-0.dtd"
   xmlns="http://www.w3.org/2000/svg"
   xmlns:svg="http://www.w3.org/2000/svg">
  <defs
     id="defs10" />
  <sodipodi:namedview
     id="namedview8"
     pagecolor="#505050"
     bordercolor="#eeeeee"
     borderopacity="1"
     inkscape:showpageshadow="0"
     inkscape:pageopacity="0"
     inkscape:pagecheckerboard="0"
     inkscape:deskcolor="#505050"
     showgrid="false"
     inkscape:zoom="2.2298851"
     inkscape:cx="174"
     inkscape:cy="180.7268"
     inkscape:window-width="1920"
     inkscape:window-height="974"
     inkscape:window-x="-11"
     inkscape:window-y="-11"
     inkscape:window-maximized="1"
     inkscape:current-layer="svg6"
     showguides="false" />
  <path
     d="M5.079 5.776h336.913v337.67H5.08z"
     stroke-width="2"
     stroke="#000"
     id="path2" />
  <path
     d="M282.734 40.554c0-8.376 6.966-15.165 15.56-15.165 4.126 0 8.084 1.597 11.001 4.441 2.918 2.844 4.558 6.702 4.558 10.724 0 8.376-6.966 15.165-15.56 15.165-8.593 0-15.559-6.79-15.559-15.165z"
     stroke-width="2"
     stroke="#000"
     id="path4" />
  <rect
     style="fill:none;stroke:#000000;stroke-width:1.94151;stroke-linejoin:round;stroke-dasharray:none;stroke-opacity:1"
     id="rect791"
     width="48.322582"
     height="48.322582"
     x="15.970755"
     y="15.970755" />
  <rect
     style="fill:none;stroke:#000000;stroke-width:1.94151;stroke-linejoin:round;stroke-dasharray:none;stroke-opacity:1"
     id="rect903"
     width="48.322582"
     height="48.322582"
     x="74.216057"
     y="15.970755" />
  <rect
     style="fill:none;stroke:#000000;stroke-width:1.94151;stroke-linejoin:round;stroke-dasharray:none;stroke-opacity:1"
     id="rect905"
     width="48.322582"
     height="48.322582"
     x="132.46135"
     y="15.970755" />
  <rect
     style="fill:none;stroke:#000000;stroke-width:1.94151;stroke-linejoin:round;stroke-dasharray:none;stroke-opacity:1"
     id="rect907"
     width="48.322582"
     height="48.322582"
     x="190.70667"
     y="15.970755" />
  <rect
     style="fill:none;stroke:#000000;stroke-width:1.94151;stroke-linejoin:round;stroke-dasharray:none;stroke-opacity:1"
     id="rect909"
     width="48.322582"
     height="48.322582"
     x="15.970755"
     y="74.216057" />
  <rect
     style="fill:none;stroke:#000000;stroke-width:1.94151;stroke-linejoin:round;stroke-dasharray:none;stroke-opacity:1"
     id="rect911"
     width="48.322582"
     height="48.322582"
     x="74.216057"
     y="74.216057" />
  <rect
     style="fill:none;stroke:#000000;stroke-width:1.94151;stroke-linejoin:round;stroke-dasharray:none;stroke-opacity:1"
     id="rect913"
     width="48.322582"
     height="48.322582"
     x="132.46135"
     y="74.216057" />
  <rect
     style="fill:none;stroke:#000000;stroke-width:1.94151;stroke-linejoin:round;stroke-dasharray:none;stroke-opacity:1"
     id="rect915"
     width="48.322582"
     height="48.322582"
     x="190.70667"
     y="74.216057" />
  <rect
     style="fill:none;stroke:#000000;stroke-width:1.94151;stroke-linejoin:round;stroke-dasharray:none;stroke-opacity:1"
     id="rect917"
     width="48.322582"
     height="48.322582"
     x="15.970755"
     y="132.46136" />
  <rect
     style="fill:none;stroke:#000000;stroke-width:1.94151;stroke-linejoin:round;stroke-dasharray:none;stroke-opacity:1"
     id="rect919"
     width="48.322582"
     height="48.322582"
     x="74.216057"
     y="132.46136" />
  <rect
     style="fill:none;stroke:#000000;stroke-width:1.94151;stroke-linejoin:round;stroke-dasharray:none;stroke-opacity:1"
     id="rect921"
     width="48.322582"
     height="48.322582"
     x="132.46135"
     y="132.46136" />
  <rect
     style="fill:none;stroke:#000000;stroke-width:1.94151;stroke-linejoin:round;stroke-dasharray:none;stroke-opacity:1"
     id="rect923"
     width="48.322582"
     height="48.322582"
     x="190.70667"
     y="132.46136" />
  <rect
     style="fill:none;stroke:#000000;stroke-width:1.94151;stroke-linejoin:round;stroke-dasharray:none;stroke-opacity:1"
     id="rect925"
     width="48.322582"
     height="48.322582"
     x="15.970755"
     y="190.70665" />
  <rect
     style="fill:none;stroke:#000000;stroke-width:1.94151;stroke-linejoin:round;stroke-dasharray:none;stroke-opacity:1"
     id="rect927"
     width="48.322582"
     height="48.322582"
     x="74.216057"
     y="190.70665" />
  <rect
     style="fill:none;stroke:#000000;stroke-width:1.94151;stroke-linejoin:round;stroke-dasharray:none;stroke-opacity:1"
     id="rect929"
     width="48.322582"
     height="48.322582"
     x="132.46135"
     y="190.70665" />
  <rect
     style="fill:none;stroke:#000000;stroke-width:1.94151;stroke-linejoin:round;stroke-dasharray:none;stroke-opacity:1"
     id="rect931"
     width="48.322582"
     height="48.322582"
     x="190.70667"
     y="190.70665" />
  <rect
     style="fill:none;stroke:#000000;stroke-width:2.31967;stroke-linejoin:round;stroke-dasharray:none;stroke-opacity:1"
     id="rect933"
     width="312.68033"
     height="77.680328"
     x="16.159838"
     y="251.15984" />
  <rect
     style="fill:none;stroke:#000000;stroke-width:2.41935;stroke-linejoin:round;stroke-dasharray:none;stroke-opacity:1"
     id="rect1661"
     width="72.58065"
     height="72.58065"
     x="251.20967"
     y="76.209679" />
  <circle
     style="fill:none;stroke:#000000;stroke-width:2;stroke-linejoin:round;stroke-dasharray:none;stroke-opacity:1"
     id="path1717"
     cx="291"
     cy="201"
     r="40" />
  <path
     sodipodi:type="star"
     style="fill:none;stroke:#000000;stroke-width:2;stroke-linejoin:round;stroke-dasharray:none;stroke-opacity:1"
     id="path3223"
     inkscape:flatsided="true"
     sodipodi:sides="3"
     sodipodi:cx="272.21133"
     sodipodi:cy="184.31442"
     sodipodi:r1="29.16328"
     sodipodi:r2="14.58164"
     sodipodi:arg1="0"
     sodipodi:arg2="1.0471976"
     inkscape:rounded="0"
     inkscape:randomized="0"
     d="m 301.37461,184.31442 -43.74492,25.25614 v -50.51228 z"
     inkscape:transform-center-x="-7.968479"
     transform="matrix(1.0929445,0,0,0.9522359,-10.482013,24.491161)" />
  <g
     aria-label="01"
     id="text3304"
     style="font-size:40.5283px;font-family:'Commodore 64';-inkscape-font-specification:'Commodore 64, ';fill:#000000;stroke-width:2.53302;stroke-linejoin:round">
    <path
       d="m 261.41237,101.26713 h 3.95784 v -3.95784 h 15.83137 v 3.95784 h 3.95784 v 19.78921 h -3.95784 v 3.95784 h -15.83137 v -3.95784 h -3.95784 z m 7.91568,11.87353 v 7.91568 h 7.91569 v -11.87352 h -3.95784 v -3.95785 h 3.95784 v -3.95784 h -7.91569 v 7.91569 h 3.95785 v 3.95784 z"
       id="path4249" />
    <path
       d="m 300.99079,109.18282 h -3.95784 v -3.95785 h 3.95784 v -7.91568 h 7.91568 v 23.74705 h 7.91569 v 3.95784 h -23.74705 v -3.95784 h 7.91568 z"
       id="path4251" />
  </g>
  <g
     aria-label="0"
     id="text3358"
     style="font-size:32px;font-family:'Commodore 64';-inkscape-font-specification:'Commodore 64, ';fill:#000000;stroke-width:2;stroke-linejoin:round">
    <path
       d="m 30,33.125 h 3.125 V 30 h 12.5 v 3.125 H 48.75 V 48.75 h -3.125 v 3.125 h -12.5 V 48.75 H 30 Z m 6.25,9.375 v 6.25 H 42.5 V 39.375 H 39.375 V 36.25 H 42.5 v -3.125 h -6.25 v 6.25 h 3.125 V 42.5 Z"
       id="path4214" />
  </g>
  <g
     aria-label="1"
     id="text3366"
     style="font-size:32px;font-family:'Commodore 64';-inkscape-font-specification:'Commodore 64, ';fill:#000000;stroke-width:2;stroke-linejoin:round">
    <path
       d="M 96.25,39.375 H 93.125 V 36.25 H 96.25 V 30 h 6.25 v 18.75 h 6.25 v 3.125 H 90 V 48.75 h 6.25 z"
       id="path4209" />
  </g>
  <g
     aria-label="2"
     id="text3370"
     style="font-size:32px;font-family:'Commodore 64';-inkscape-font-specification:'Commodore 64, ';fill:#000000;stroke-width:2;stroke-linejoin:round">
    <path
       d="m 165.625,30 v 3.125 h 3.125 v 6.25 h -3.125 V 42.5 h -6.25 v -3.125 h 3.125 v -6.25 h -6.25 V 36.25 H 150 v -3.125 h 3.125 V 30 Z m -6.25,12.5 v 3.125 h -3.125 v 3.125 h 12.5 v 3.125 H 150 v -6.25 h 3.125 V 42.5 Z"
       id="path4229" />
  </g>
  <g
     aria-label="3"
     id="text3374"
     style="font-size:32px;font-family:'Commodore 64';-inkscape-font-specification:'Commodore 64, ';fill:#000000;stroke-width:2;stroke-linejoin:round">
    <path
       d="m 205,45.625 h 6.25 v 3.125 h 6.25 V 42.5 h -6.25 v -3.125 h 6.25 v -6.25 h -6.25 V 36.25 H 205 v -3.125 h 3.125 V 30 h 12.5 v 3.125 h 3.125 v 6.25 h -3.125 V 42.5 h 3.125 v 6.25 h -3.125 v 3.125 h -12.5 V 48.75 H 205 Z"
       id="path4234" />
  </g>
  <g
     aria-label="4"
     id="text3378"
     style="font-size:32px;font-family:'Commodore 64';-inkscape-font-specification:'Commodore 64, ';fill:#000000;stroke-width:2;stroke-linejoin:round">
    <path
       d="m 30,94.375 h 6.25 V 91.25 h 3.125 V 88.125 H 42.5 V 85 h 6.25 v 12.5 h 3.125 v 3.125 H 48.75 v 6.25 H 42.5 v -6.25 H 30 Z m 6.25,3.125 h 6.25 v -3.125 h -6.25 z"
       id="path4219" />
  </g>
  <g
     aria-label="5"
     id="text3382"
     style="font-size:32px;font-family:'Commodore 64';-inkscape-font-specification:'Commodore 64, ';fill:#000000;stroke-width:2;stroke-linejoin:round">
    <path
       d="m 90,100.625 h 6.25 v 3.125 h 6.25 V 94.375 H 90 V 85 h 18.75 v 3.125 h -12.5 v 3.125 h 9.375 v 3.125 h 3.125 v 9.375 h -3.125 v 3.125 h -12.5 V 103.75 H 90 Z"
       id="path4224" />
  </g>
  <g
     aria-label="6"
     id="text3386"
     style="font-size:32px;font-family:'Commodore 64';-inkscape-font-specification:'Commodore 64, ';fill:#000000;stroke-width:2;stroke-linejoin:round">
    <path
       d="m 150,88.125 h 3.125 V 85 h 12.5 v 3.125 h 3.125 v 3.125 h -6.25 v -3.125 h -6.25 v 6.25 h 9.375 V 97.5 h 3.125 v 6.25 h -3.125 v 3.125 h -12.5 V 103.75 H 150 Z m 6.25,9.375 v 6.25 h 6.25 V 97.5 Z"
       id="path4239" />
  </g>
  <g
     aria-label="7"
     id="text3390"
     style="font-size:32px;font-family:'Commodore 64';-inkscape-font-specification:'Commodore 64, ';fill:#000000;stroke-width:2;stroke-linejoin:round">
    <path
       d="m 205,85 h 18.75 v 6.25 h -3.125 v 3.125 H 217.5 v 12.5 h -6.25 v -12.5 h 3.125 V 91.25 h 3.125 v -3.125 h -6.25 V 91.25 H 205 Z"
       id="path4244" />
  </g>
  <g
     aria-label="8"
     id="text3394"
     style="font-size:32px;font-family:'Commodore 64';-inkscape-font-specification:'Commodore 64, ';fill:#000000;stroke-width:2;stroke-linejoin:round">
    <path
       d="m 30,157.5 h 3.125 v -3.125 H 30 v -6.25 h 3.125 V 145 h 12.5 v 3.125 h 3.125 v 6.25 h -3.125 v 3.125 h 3.125 v 6.25 h -3.125 v 3.125 h -12.5 V 163.75 H 30 Z m 6.25,0 v 6.25 h 6.25 v -6.25 z m 0,-9.375 v 6.25 h 6.25 v -6.25 z"
       id="path4258" />
  </g>
  <g
     aria-label="9"
     id="text3398"
     style="font-size:32px;font-family:'Commodore 64';-inkscape-font-specification:'Commodore 64, ';fill:#000000;stroke-width:2;stroke-linejoin:round">
    <path
       d="m 90,160.625 h 6.25 v 3.125 h 6.25 v -6.25 h -9.375 v -3.125 H 90 v -6.25 h 3.125 V 145 h 12.5 v 3.125 h 3.125 v 15.625 h -3.125 v 3.125 h -12.5 V 163.75 H 90 Z m 6.25,-12.5 v 6.25 h 6.25 v -6.25 z"
       id="path4263" />
  </g>
  <g
     aria-label="A"
     id="text3402"
     style="font-size:32px;font-family:'Commodore 64';-inkscape-font-specification:'Commodore 64, ';fill:#000000;stroke-width:2;stroke-linejoin:round">
    <path
       d="m 150,151.25 h 3.125 v -3.125 h 3.125 V 145 h 6.25 v 3.125 h 3.125 v 3.125 h 3.125 v 15.625 H 162.5 V 157.5 h -6.25 v 9.375 H 150 Z m 6.25,0 v 3.125 h 6.25 v -3.125 z"
       id="path4268" />
  </g>
  <g
     aria-label="B"
     id="text3406"
     style="font-size:32px;font-family:'Commodore 64';-inkscape-font-specification:'Commodore 64, ';fill:#000000;stroke-width:2;stroke-linejoin:round">
    <path
       d="m 205,145 h 15.625 v 3.125 h 3.125 v 6.25 h -3.125 v 3.125 h 3.125 v 6.25 h -3.125 v 3.125 H 205 Z m 6.25,12.5 v 6.25 h 6.25 v -6.25 z m 0,-9.375 v 6.25 h 6.25 v -6.25 z"
       id="path4273" />
  </g>
  <g
     aria-label="C"
     id="text3410"
     style="font-size:32px;font-family:'Commodore 64';-inkscape-font-specification:'Commodore 64, ';fill:#000000;stroke-width:2;stroke-linejoin:round">
    <path
       d="m 30,203.125 h 3.125 V 200 h 12.5 v 3.125 h 3.125 v 3.125 H 42.5 v -3.125 h -6.25 v 15.625 h 6.25 v -3.125 h 6.25 v 3.125 h -3.125 v 3.125 h -12.5 V 218.75 H 30 Z"
       id="path4278" />
  </g>
  <g
     aria-label="D"
     id="text3414"
     style="font-size:32px;font-family:'Commodore 64';-inkscape-font-specification:'Commodore 64, ';fill:#000000;stroke-width:2;stroke-linejoin:round">
    <path
       d="m 90,200 h 12.5 v 3.125 h 3.125 v 3.125 h 3.125 v 9.375 h -3.125 v 3.125 H 102.5 v 3.125 H 90 Z m 6.25,3.125 v 15.625 h 3.125 v -3.125 h 3.125 v -9.375 h -3.125 v -3.125 z"
       id="path4283" />
  </g>
  <g
     aria-label="E"
     id="text3418"
     style="font-size:32px;font-family:'Commodore 64';-inkscape-font-specification:'Commodore 64, ';fill:#000000;stroke-width:2;stroke-linejoin:round">
    <path
       d="m 150,200 h 18.75 v 3.125 h -12.5 v 6.25 h 6.25 v 3.125 h -6.25 v 6.25 h 12.5 v 3.125 H 150 Z"
       id="path4288" />
  </g>
  <g
     aria-label="F"
     id="text3422"
     style="font-size:32px;font-family:'Commodore 64';-inkscape-font-specification:'Commodore 64, ';fill:#000000;stroke-width:2;stroke-linejoin:round">
    <path
       d="m 205,200 h 18.75 v 3.125 h -12.5 v 6.25 h 6.25 v 3.125 h -6.25 v 9.375 H 205 Z"
       id="path4293" />
  </g>
</svg>
