<svg xmlns="http://www.w3.org/2000/svg" viewBox="0 0 600 600"><path fill="none" stroke="#000" stroke-width="5.43" d="M5.27 5.28h589.69v589.68H5.26z"/><path fill="none" stroke="#000" stroke-linejoin="round" stroke-width="4" d="M396.65 34.86h175.18v87.6H396.65z"/><path d="M296.1 93.01h-8.52v16.16h-7.4V93.01h-27.5v-8.87l27.8-32.39h7.1v35.1h8.53zm-15.92-6.17V60.93l-22.25 25.91zm64.82-6.4q0 15.47-4.86 22.72-4.82 7.2-15 7.2-10.33 0-15.11-7.32-4.75-7.33-4.75-22.52 0-15.31 4.82-22.6 4.82-7.33 15.04-7.33 10.34 0 15.08 7.45 4.78 7.4 4.78 22.4zm-10.14 17.51q1.35-3.12 1.81-7.33.5-4.24.5-10.18 0-5.86-.5-10.18-.46-4.32-1.85-7.32-1.35-2.97-3.7-4.48-2.31-1.5-5.98-1.5-3.62 0-6.01 1.5-2.36 1.5-3.74 4.55-1.31 2.86-1.82 7.44-.46 4.6-.46 10.07 0 6.02.43 10.06.42 4.05 1.8 7.25 1.28 3.01 3.6 4.6 2.35 1.57 6.2 1.57 3.63 0 6.02-1.5 2.39-1.5 3.7-4.55z" aria-label="40" style="-inkscape-font-specification:sans-serif"/><path fill="none" stroke="#000" stroke-linecap="round" stroke-linejoin="round" stroke-width="4" d="m396.8 122.31 38.19-87.3m3.7 87.3 38.2-87.3m3.69 87.3 38.2-87.3m-291.09-.51h144.63v89.39H227.69zm295.21 87.81 38.19-87.3"/><path fill="none" stroke="#000" stroke-linejoin="round" stroke-width="4" d="M29.99 35.77h175.18v87.6H30z"/><path fill="none" stroke="#000" stroke-linecap="round" stroke-linejoin="round" stroke-width="4" d="m30.13 123.22 38.2-87.3m3.7 87.3 38.2-87.3m3.69 87.3 38.2-87.3m4.11 87.3 38.2-87.3"/><rect width="552.29" height="368.43" x="23.07" y="166.56" fill="none" stroke="#000" stroke-width="4" ry="26.26"/><path fill="none" stroke="#000" stroke-width="4" d="m204.7 485.22 30.8-144.8 132.26 4.68 17.16 165.03s-98.62 45.61-180.23-24.91z"/><path fill="none" stroke="#000" stroke-width="4" d="m227.3 388.2 28.16-1.86 14.95-31.97 14.45 27.96 30.96 6.9-24.71 23.56 12.7 39.41-32.57-18.02-30.98 15.76 10.35-32.9zm8.28-49.73-20.67-71.84 81.73 5.13m-51.6-4.23s28.82-83.72 99.24-64.38"/><path fill="none" stroke="#000" stroke-width="4" d="M342.65 202.72c47.62 30.92 31.55 76.55 31.55 76.55l-8.28 64.5m-103.59-112.9s-23.23-33-7.63-34.05c0 0 20.74-.74 32.17 12.41"/><path fill="none" stroke="#000" stroke-width="4" d="m357.9 214.31 5.61-8.61-25.87-9s-1.16-12.75 16.52-15.23l9.83 23.89 31.55 11.46s-4.74 17.65-17.75 13.16l-12.76-24.07M282.9 522.44l-2.88 11.06m28.07-10.67v11.75m26.38-11.65 1.09 11.58"/><path fill="none" stroke="#000" d="M279.7 239.94c-1.5-13.95-5.6-7.5-5.6-7.5s7.08-18.63 9.45 11.7c0 0-1.45 17.86-5.68 16.93"/><path fill="none" stroke="#000" d="M278.35 261.27s-9.77-10.22-1.94-22.61"/><path fill="none" stroke="#000" d="M279.87 240.62s-1.16-2.83-3.5-1.62"/><ellipse cx="276.76" cy="243.91" fill="none" stroke="#000" rx="1.83" ry="3.63"/><path fill="none" stroke="#000" d="M298.54 239.94c-1.5-13.95-5.61-7.5-5.61-7.5s7.09-18.63 9.45 11.7c0 0-1.44 17.86-5.68 16.93"/><path fill="none" stroke="#000" d="M297.19 261.27s-9.77-10.22-1.95-22.61"/><path fill="none" stroke="#000" d="M298.7 240.62s-1.16-2.83-3.5-1.62"/><ellipse cx="295.59" cy="243.91" fill="none" stroke="#000" rx="1.83" ry="3.63"/><path fill="none" stroke="#000" stroke-width="4" d="M293.05 207.02s74.34 48.31 81.3 71.41"/><path stroke="#000" stroke-width=".75" d="M277.45 259.06c-2.3-3.46-3.23-6.2-3.36-9.87-.04-1.34 0-2.82.08-3.28l.16-.85.32.94c.82 2.43 2.83 2.84 3.92.8.37-.7.43-1.07.43-2.86 0-1.78-.06-2.17-.42-2.85-.49-.91-1.06-1.37-1.73-1.37-.38 0-.42-.05-.2-.19.16-.1.56-.18.88-.18.47 0 .74.16 1.27.77.6.71.7.77 1.12.58.52-.24.52-.36-.1-3.93-.71-4.22-1.96-6.43-3.62-6.43-.49 0-.49 0-.17-.51 1.09-1.73 2.15-2.62 2.86-2.4 1.44.46 2.93 5.6 3.66 12.66l.37 3.47c.08.71-.51 5.51-1.04 8.35-.77 4.17-2.06 7.66-3.06 8.32-.4.26-.45.21-1.37-1.17zm18.73-.12c-2.41-3.61-3.58-7.56-3.33-11.25.12-1.75.44-3.31.48-2.35.03.73.66 1.96 1.23 2.4 1.67 1.32 3.38-.62 3.38-3.8 0-2.34-.74-3.82-2.09-4.2l-.54-.16.54-.15c.76-.2 1.46.1 1.9.8.3.5.46.6.84.5.26-.06.5-.14.55-.18.14-.14-.52-4.42-.9-5.88-.7-2.65-1.92-4.33-3.14-4.33-.25 0-.44-.05-.44-.1 0-.07.3-.56.69-1.1.83-1.2 1.75-1.88 2.3-1.7 1.65.52 3.14 6.02 3.95 14.53.2 2.1.18 2.65-.18 5.41-.5 3.84-1.12 6.9-1.88 9.25-.6 1.88-1.57 3.57-2.1 3.67-.2.04-.62-.4-1.26-1.36z"/><rect width="225" height="43.82" x="50" y="458.09" fill="#fff" fill-rule="evenodd" stroke="#000" stroke-width="3" ry="12.05"/><rect width="249.37" height="46.5" x="312.82" y="456.75" fill="#fff" fill-opacity=".95" fill-rule="evenodd" stroke="#000" stroke-width="3" ry="12.79"/><g style="-inkscape-font-specification:&quot;Arial Heavy&quot;"><path d="m75.5 483.02 5.58-.35q.182 1.36.739 2.072.906 1.152 2.59 1.152 1.256 0 1.929-.582.686-.596.686-1.373 0-.738-.647-1.32-.648-.584-3.004-1.101-3.86-.868-5.504-2.305-1.657-1.438-1.657-3.665 0-1.463.841-2.758.855-1.308 2.551-2.046 1.71-.751 4.675-.751 3.639 0 5.542 1.36 1.917 1.346 2.28 4.299l-5.53.323q-.22-1.282-.932-1.864-.7-.583-1.943-.583-1.023 0-1.54.44-.519.427-.519 1.049 0 .453.428.816.414.375 1.968.7 3.846.828 5.503 1.682 1.67.842 2.422 2.098.764 1.256.764 2.81 0 1.826-1.01 3.367t-2.823 2.344q-1.813.79-4.571.79-4.843 0-6.708-1.865-1.865-1.865-2.11-4.74zm20.019-12.704h5.27v3.587h-5.27zm0 5.232h5.27V489.3h-5.27zm23.114-5.232V489.3H113.7v-2.033q-1.036 1.295-1.891 1.748-1.14.596-2.538.596-2.81 0-4.3-2.137-1.475-2.136-1.475-5.192 0-3.42 1.631-5.232 1.645-1.813 4.17-1.813 1.23 0 2.227.415 1.01.414 1.787 1.243v-6.579zm-5.283 12.07q0-1.62-.686-2.41-.687-.802-1.736-.802-.919 0-1.54.764-.622.764-.622 2.564 0 1.683.634 2.473.648.777 1.593.777 1.01 0 1.684-.79.673-.79.673-2.577zm17.715-12.07h5.865v6.643h6.41v-6.643h5.892V489.3h-5.892v-7.679h-6.41v7.679h-5.865zm21.068 12.147q0-3.147 2.124-5.18 2.123-2.046 5.736-2.046 4.13 0 6.242 2.396 1.696 1.93 1.696 4.752 0 3.173-2.11 5.206-2.099 2.02-5.815 2.02-3.315 0-5.361-1.684-2.512-2.084-2.512-5.464zm5.283-.013q0 1.839.738 2.72.751.88 1.878.88 1.14 0 1.865-.868.738-.867.738-2.784 0-1.787-.738-2.654-.739-.881-1.826-.881-1.153 0-1.904.893-.75.881-.75 2.694zm18.919-6.902h2.512v3.859h-2.512v9.893h-5.283v-9.893h-1.969v-3.86h1.969v-.62q0-.842.181-1.852.181-1.01.673-1.645.505-.647 1.399-1.036.906-.401 2.641-.401 1.386 0 4.028.323l-.583 3.186q-.945-.155-1.528-.155-.712 0-1.023.246-.31.233-.44.75-.065.286-.065 1.205zm10.981 0h2.512v3.859h-2.512v9.893h-5.283v-9.893h-1.969v-3.86h1.969v-.62q0-.842.18-1.852.182-1.01.674-1.645.505-.647 1.399-1.036.906-.401 2.641-.401 1.386 0 4.028.323l-.583 3.186q-.945-.155-1.528-.155-.712 0-1.023.246-.31.233-.44.75-.065.286-.065 1.205zm4.494 0h4.92v2.007q1.062-1.256 2.137-1.787 1.087-.53 2.615-.53 1.645 0 2.603.582.958.583 1.567 1.735 1.243-1.347 2.266-1.826 1.023-.492 2.525-.492 2.215 0 3.458 1.321 1.243 1.308 1.243 4.105v8.637h-5.284v-7.834q0-.933-.362-1.386-.531-.712-1.32-.712-.933 0-1.503.673-.57.674-.57 2.163v7.096h-5.283v-7.575q0-.907-.104-1.23-.168-.518-.582-.83-.415-.323-.972-.323-.906 0-1.489.686-.582.687-.582 2.254v7.018h-5.284zm31.285 4.454-5.038-.53q.285-1.321.816-2.072.544-.764 1.554-1.321.725-.402 1.994-.622 1.27-.22 2.745-.22 2.37 0 3.808.272 1.437.259 2.395 1.1.674.583 1.062 1.658.388 1.062.388 2.033v6.073q0 .972.117 1.528.13.544.544 1.399h-4.947q-.298-.53-.388-.803-.09-.285-.182-.88-1.035.997-2.058 1.424-1.399.57-3.25.57-2.461 0-3.743-1.14-1.269-1.14-1.269-2.81 0-1.567.92-2.577.919-1.01 3.392-1.502 2.965-.595 3.846-.828.88-.247 1.865-.635 0-.971-.402-1.36-.401-.388-1.411-.388-1.295 0-1.943.414-.505.324-.815 1.217zm4.57 2.772q-1.087.388-2.265.686-1.606.427-2.033.842-.44.427-.44.97 0 .622.427 1.024.44.388 1.282.388.88 0 1.631-.427.764-.427 1.075-1.036.324-.622.324-1.606zm8.315-7.226h4.907v2.24q1.1-1.372 2.227-1.955 1.127-.596 2.745-.596 2.189 0 3.419 1.308 1.243 1.295 1.243 4.014v8.741h-5.296v-7.562q0-1.295-.48-1.826-.478-.544-1.346-.544-.958 0-1.554.725-.596.725-.596 2.603v6.604h-5.27z" aria-label="Sid Hoffman" font-family="Arial" font-size="26.52" font-weight="900" style="-inkscape-font-specification:&quot;Arial Black, Bold&quot;"/></g><g style="-inkscape-font-specification:&quot;Arial Heavy&quot;"><path d="m343.002 482.536 5.05-.316q.165 1.23.669 1.875.82 1.043 2.344 1.043 1.136 0 1.746-.527.62-.54.62-1.243 0-.668-.585-1.195-.586-.527-2.719-.996-3.492-.785-4.98-2.086-1.5-1.3-1.5-3.316 0-1.325.761-2.496.774-1.184 2.309-1.852 1.547-.68 4.23-.68 3.293 0 5.016 1.23 1.734 1.22 2.062 3.891l-5.003.293q-.2-1.16-.844-1.687-.633-.527-1.758-.527-.926 0-1.395.398-.468.387-.468.95 0 .41.386.738.375.34 1.782.632 3.48.75 4.98 1.524 1.512.761 2.192 1.898.691 1.137.691 2.543 0 1.653-.914 3.047-.914 1.395-2.555 2.121-1.64.715-4.136.715-4.383 0-6.07-1.688-1.688-1.687-1.911-4.289zm18.118-11.496h4.769v3.246h-4.77zm0 4.735h4.769v12.445h-4.77zm20.917-4.735v17.18h-4.465v-1.84q-.937 1.172-1.71 1.582-1.032.54-2.297.54-2.543 0-3.891-1.934-1.336-1.934-1.336-4.7 0-3.093 1.477-4.734 1.488-1.64 3.773-1.64 1.113 0 2.016.374.914.375 1.617 1.125v-5.953zm-4.781 10.922q0-1.465-.621-2.18-.621-.726-1.57-.726-.832 0-1.395.691-.562.692-.562 2.32 0 1.524.574 2.239.586.703 1.441.703.914 0 1.524-.715.609-.715.609-2.332zm16.031-10.922h13.125v3.692h-7.793v3h6.656v3.468h-6.656v7.02h-5.332zm14.895 4.735h4.465v2.039q.644-1.324 1.324-1.817.691-.504 1.699-.504 1.055 0 2.309.657l-1.477 3.398q-.844-.351-1.336-.351-.937 0-1.453.773-.738 1.09-.738 4.078v4.172h-4.793zm24.808 7.405h-9.562q.129 1.15.62 1.712.692.808 1.806.808.703 0 1.336-.351.386-.223.832-.785l4.699.433q-1.078 1.875-2.602 2.696-1.523.808-4.37.808-2.474 0-3.891-.691-1.418-.703-2.356-2.215-.926-1.523-.926-3.574 0-2.918 1.864-4.723 1.875-1.805 5.168-1.805 2.671 0 4.218.809 1.547.809 2.356 2.344.808 1.535.808 3.996zm-4.851-2.284q-.14-1.383-.75-1.98-.598-.598-1.582-.598-1.137 0-1.817.902-.433.562-.55 1.676zm7.043-5.121h4.441v2.027q.996-1.242 2.016-1.77 1.02-.539 2.484-.539 1.98 0 3.094 1.184 1.125 1.172 1.125 3.633v7.91h-4.793v-6.844q0-1.172-.434-1.652-.433-.492-1.218-.492-.868 0-1.407.656t-.539 2.355v5.977h-4.77zm25.288 7.582 4.536.515q-.375 1.418-1.23 2.461-.856 1.032-2.192 1.606-1.324.574-3.375.574-1.98 0-3.305-.363-1.312-.375-2.261-1.196-.95-.832-1.489-1.945-.539-1.113-.539-2.953 0-1.922.657-3.2.48-.937 1.312-1.675.832-.75 1.711-1.113 1.395-.575 3.574-.575 3.047 0 4.64 1.09 1.606 1.09 2.25 3.188l-4.487.597q-.211-.796-.774-1.195-.55-.41-1.488-.41-1.184 0-1.922.855-.727.844-.727 2.567 0 1.535.727 2.332.727.797 1.852.797.937 0 1.57-.48.644-.481.96-1.477zm6.317-12.317h4.77v6.328q.972-1.007 1.933-1.441.961-.434 2.274-.434 1.945 0 3.058 1.184 1.125 1.184 1.125 3.633v7.91h-4.793v-6.844q0-1.172-.433-1.652-.434-.492-1.219-.492-.867 0-1.406.656-.54.656-.54 2.355v5.977h-4.769zm16.043 4.735h4.453v1.816q.961-1.137 1.934-1.617.984-.48 2.367-.48 1.488 0 2.356.527.867.527 1.418 1.57 1.125-1.219 2.05-1.652.926-.446 2.285-.446 2.004 0 3.13 1.196 1.124 1.183 1.124 3.715v7.816h-4.78v-7.09q0-.844-.329-1.254-.48-.644-1.195-.644-.844 0-1.36.61-.515.608-.515 1.956v6.422h-4.782v-6.855q0-.82-.093-1.114-.153-.468-.528-.75-.375-.293-.879-.293-.82 0-1.347.621-.528.621-.528 2.04v6.351h-4.78zm28.313 4.031-4.559-.48q.258-1.196.738-1.876.493-.69 1.407-1.195.656-.363 1.804-.562 1.149-.2 2.485-.2 2.144 0 3.445.247 1.3.234 2.168.996.61.527.96 1.5.352.96.352 1.84v5.496q0 .878.106 1.382.117.493.492 1.266h-4.476q-.27-.48-.352-.727-.082-.257-.164-.796-.938.902-1.863 1.289-1.266.515-2.942.515-2.226 0-3.386-1.031-1.149-1.031-1.149-2.543 0-1.418.832-2.332.832-.914 3.07-1.36 2.684-.538 3.48-.75.798-.222 1.688-.574 0-.879-.363-1.23-.363-.352-1.277-.352-1.172 0-1.758.375-.457.293-.738 1.102zm4.136 2.508q-.984.351-2.05.62-1.454.388-1.84.763-.399.386-.399.878 0 .563.387.926.398.352 1.16.352.797 0 1.477-.387.691-.387.972-.937.293-.563.293-1.454zm7.524-6.539h4.441v2.027q.996-1.242 2.016-1.77 1.02-.539 2.484-.539 1.98 0 3.094 1.184 1.125 1.172 1.125 3.633v7.91h-4.793v-6.844q0-1.172-.434-1.652-.433-.492-1.218-.492-.868 0-1.407.656t-.539 2.355v5.977h-4.77z" aria-label="Sid Frenchman" font-family="Arial" font-size="24" font-weight="900" style="-inkscape-font-specification:&quot;Arial Black, Bold&quot;"/></g></svg>