<?xml version="1.0" encoding="UTF-8" standalone="no"?>
<svg
   viewBox="0 0 600 600"
   version="1.1"
   id="svg63"
   sodipodi:docname="Sid Hoffrenchman.svg"
   inkscape:version="1.3 (0e150ed, 2023-07-21)"
   xmlns:inkscape="http://www.inkscape.org/namespaces/inkscape"
   xmlns:sodipodi="http://sodipodi.sourceforge.net/DTD/sodipodi-0.dtd"
   xmlns="http://www.w3.org/2000/svg"
   xmlns:svg="http://www.w3.org/2000/svg">
  <defs
     id="defs67" />
  <sodipodi:namedview
     id="namedview65"
     pagecolor="#505050"
     bordercolor="#eeeeee"
     borderopacity="1"
     inkscape:pageshadow="0"
     inkscape:pageopacity="0"
     inkscape:pagecheckerboard="0"
     showgrid="false"
     inkscape:zoom="1.3333333"
     inkscape:cx="279.37501"
     inkscape:cy="454.12501"
     inkscape:window-width="1920"
     inkscape:window-height="998"
     inkscape:window-x="0"
     inkscape:window-y="0"
     inkscape:window-maximized="1"
     inkscape:current-layer="svg63"
     inkscape:showpageshadow="0"
     inkscape:deskcolor="#505050" />
  <path
     fill="none"
     stroke="#000"
     stroke-width="5.43"
     d="M5.27 5.28h589.69v589.68H5.26z"
     id="path39" />
  <path
     fill="none"
     stroke="#000"
     stroke-linejoin="round"
     stroke-width="4"
     d="M396.65 34.86h175.18v87.6H396.65z"
     id="path45" />
  <g
     style="line-height:1.25;-inkscape-font-specification:'Special Elite';text-align:center"
     text-anchor="middle"
     word-spacing="0"
     id="g49">
    <path
       d="M296.1 93.01h-8.52v16.16h-7.4V93.01h-27.5v-8.87l27.8-32.39h7.1v35.1h8.53zm-15.92-6.17V60.93l-22.25 25.91zm64.82-6.4q0 15.47-4.86 22.72-4.82 7.2-15 7.2-10.33 0-15.11-7.32-4.75-7.33-4.75-22.52 0-15.31 4.82-22.6 4.82-7.33 15.04-7.33 10.34 0 15.08 7.45 4.78 7.4 4.78 22.4zm-10.14 17.51q1.35-3.12 1.81-7.33.5-4.24.5-10.18 0-5.86-.5-10.18-.46-4.32-1.85-7.32-1.35-2.97-3.7-4.48-2.31-1.5-5.98-1.5-3.62 0-6.01 1.5-2.36 1.5-3.74 4.55-1.31 2.86-1.82 7.44-.46 4.6-.46 10.07 0 6.02.43 10.06.42 4.05 1.8 7.25 1.28 3.01 3.6 4.6 2.35 1.57 6.2 1.57 3.63 0 6.02-1.5 2.39-1.5 3.7-4.55z"
       style="-inkscape-font-specification:sans-serif"
       stroke-width="4.23"
       aria-label="40"
       font-family="sans-serif"
       font-size="78.98"
       font-weight="400"
       letter-spacing="0"
       id="path47" />
  </g>
  <path
     fill="none"
     stroke="#000"
     stroke-linecap="round"
     stroke-linejoin="round"
     stroke-width="4"
     d="m396.8 122.31 38.19-87.3m3.7 87.3 38.2-87.3m3.69 87.3 38.2-87.3m-291.09-.51h144.63v89.39H227.69zm295.21 87.81 38.19-87.3"
     id="path51" />
  <path
     fill="none"
     stroke="#000"
     stroke-linejoin="round"
     stroke-width="4"
     d="M29.99 35.77h175.18v87.6H30z"
     id="path53" />
  <path
     fill="none"
     stroke="#000"
     stroke-linecap="round"
     stroke-linejoin="round"
     stroke-width="4"
     d="m30.13 123.22 38.2-87.3m3.7 87.3 38.2-87.3m3.69 87.3 38.2-87.3m4.11 87.3 38.2-87.3"
     id="path55" />
  <rect
     style="fill:none;stroke:#000000;stroke-opacity:1;stroke-width:4;stroke-dasharray:none"
     id="rect1"
     width="552.28558"
     height="368.42502"
     x="23.073074"
     y="166.56262"
     ry="26.257736" />
  <path
     style="fill:none;stroke:#000000;stroke-width:4;stroke-dasharray:none;stroke-opacity:1"
     d="m 204.6943,485.21847 30.8112,-144.79832 132.25365,4.67995 17.16403,165.03262 c 0,0 -98.61955,45.60805 -180.22888,-24.91425 z"
     id="path1" />
  <path
     style="fill:none;stroke:#000000;stroke-width:4;stroke-dasharray:none;stroke-opacity:1"
     d="m 227.2977,388.19908 28.16565,-1.85646 14.94484,-31.97667 14.45316,27.96135 30.9625,6.90252 -24.71659,23.55771 12.69919,39.41588 -32.56595,-18.02458 -30.98286,15.76236 10.34866,-32.90634 z"
     id="path2" />
  <path
     style="fill:none;stroke:#000000;stroke-width:4;stroke-dasharray:none;stroke-opacity:1"
     d="m 235.57737,338.46758 -20.6624,-71.83406 81.72963,5.12304"
     id="path3" />
  <path
     style="fill:none;stroke:#000000;stroke-width:4;stroke-dasharray:none;stroke-opacity:1"
     d="m 245.03509,267.52719 c 0,0 28.82533,-83.71832 99.24948,-64.38025"
     id="path4" />
  <path
     style="fill:none;stroke:#000000;stroke-width:4;stroke-dasharray:none;stroke-opacity:1"
     d="m 342.64926,202.7242 c 47.62243,30.91202 31.54948,76.54781 31.54948,76.54781 l -8.27765,64.50714"
     id="path5" />
  <path
     style="fill:none;stroke:#000000;stroke-width:4;stroke-dasharray:none;stroke-opacity:1"
     d="m 262.33457,230.87227 c 0,0 -23.23613,-32.99639 -7.63289,-34.05055 0,0 20.73487,-0.74018 32.16509,12.40814"
     id="path6" />
  <path
     style="fill:none;stroke:#000000;stroke-width:4;stroke-dasharray:none;stroke-opacity:1"
     d="m 357.90931,214.31328 5.60426,-8.61813 -25.87468,-8.99927 c 0,0 -1.1548,-12.74331 16.52248,-15.23041 l 9.82745,23.8918 31.5526,11.46605 c 0,0 -4.73872,17.64885 -17.74937,13.15317 l -12.76012,-24.07072"
     id="path7" />
  <path
     style="fill:none;stroke:#000000;stroke-width:4;stroke-dasharray:none;stroke-opacity:1"
     d="m 282.89374,522.43919 -2.87475,11.05792"
     id="path8" />
  <path
     style="fill:none;stroke:#000000;stroke-width:4;stroke-dasharray:none;stroke-opacity:1"
     d="m 308.08924,522.82527 v 11.75771"
     id="path9" />
  <path
     style="fill:none;stroke:#000000;stroke-width:4;stroke-dasharray:none;stroke-opacity:1"
     d="m 334.46673,522.92749 1.09177,11.58632"
     id="path10" />
  <path
     style="fill:none;stroke:#000000;stroke-width:1;stroke-dasharray:none;stroke-opacity:1"
     d="m 279.7051,239.93784 c -1.50801,-13.94749 -5.60815,-7.50439 -5.60815,-7.50439 0,0 7.08756,-18.62732 9.45381,11.71535 0,0 -1.44606,17.85206 -5.68387,16.92213"
     id="path11" />
  <path
     style="fill:none;stroke:#000000;stroke-width:1;stroke-dasharray:none;stroke-opacity:1"
     d="m 278.3532,261.27342 c 0,0 -9.77022,-10.22549 -1.94697,-22.61574"
     id="path12" />
  <path
     style="fill:none;stroke:#000000;stroke-width:1;stroke-dasharray:none;stroke-opacity:1"
     d="m 279.87248,240.61655 c 0,0 -1.16503,-2.82456 -3.50504,-1.62106"
     id="path13" />
  <ellipse
     style="fill:none;stroke:#000000;stroke-width:1;stroke-dasharray:none;stroke-opacity:1"
     id="path14"
     cx="276.76099"
     cy="243.91371"
     rx="1.8299123"
     ry="3.6343565" />
  <path
     style="fill:none;stroke:#000000;stroke-width:1;stroke-dasharray:none;stroke-opacity:1"
     d="m 298.53855,239.93784 c -1.50801,-13.94749 -5.60815,-7.50439 -5.60815,-7.50439 0,0 7.08756,-18.62732 9.45381,11.71535 0,0 -1.44606,17.85206 -5.68387,16.92213"
     id="path15" />
  <path
     style="fill:none;stroke:#000000;stroke-width:1;stroke-dasharray:none;stroke-opacity:1"
     d="m 297.18665,261.27342 c 0,0 -9.77022,-10.22549 -1.94697,-22.61574"
     id="path16" />
  <path
     style="fill:none;stroke:#000000;stroke-width:1;stroke-dasharray:none;stroke-opacity:1"
     d="m 298.70593,240.61655 c 0,0 -1.16503,-2.82456 -3.50504,-1.62106"
     id="path17" />
  <ellipse
     style="fill:none;stroke:#000000;stroke-width:1;stroke-dasharray:none;stroke-opacity:1"
     id="ellipse17"
     cx="295.59445"
     cy="243.91371"
     rx="1.8299123"
     ry="3.6343565" />
  <path
     style="fill:none;fill-opacity:1;stroke:#000000;stroke-width:4;stroke-dasharray:none;stroke-opacity:1"
     d="m 293.05279,207.01991 c 0,0 74.34081,48.31092 81.30521,71.41335"
     id="path19" />
  <path
     style="fill:#000000;fill-opacity:1;stroke:#000000;stroke-width:0.75;stroke-dasharray:none;stroke-opacity:1"
     d="m 277.45227,259.0614 c -2.30435,-3.46324 -3.23363,-6.1947 -3.35923,-9.87389 -0.0458,-1.34063 -0.0104,-2.81719 0.0786,-3.28125 l 0.16184,-0.84375 0.31784,0.93964 c 0.82083,2.42671 2.83213,2.83779 3.9197,0.80114 0.37226,-0.69711 0.42896,-1.07589 0.42896,-2.86578 0,-1.7764 -0.0582,-2.17132 -0.41937,-2.84699 -0.48798,-0.91284 -1.06465,-1.37059 -1.73173,-1.37463 -0.37481,-0.002 -0.4151,-0.0409 -0.19265,-0.18463 0.15468,-0.1 0.54889,-0.18305 0.87601,-0.18463 0.46765,-0.002 0.73766,0.16407 1.26338,0.77825 0.60415,0.70582 0.71244,0.76115 1.1233,0.57395 0.52401,-0.23875 0.52132,-0.35536 -0.0904,-3.92493 -0.72342,-4.22174 -1.96926,-6.43014 -3.62747,-6.43014 -0.48906,0 -0.48973,-0.002 -0.16762,-0.51563 1.08316,-1.72699 2.15004,-2.62 2.86065,-2.39446 1.4374,0.45621 2.92478,5.60285 3.65878,12.66009 0.16624,1.59843 0.33183,3.15937 0.36796,3.46875 0.083,0.71031 -0.51563,5.50932 -1.04073,8.34375 -0.77285,4.17167 -2.05638,7.66389 -3.05802,8.32019 -0.39857,0.26115 -0.45008,0.21733 -1.36988,-1.16505 z"
     id="path20" />
  <path
     style="fill:#000000;fill-opacity:1;stroke:#000000;stroke-width:0.75;stroke-dasharray:none;stroke-opacity:1"
     d="m 296.18016,258.93726 c -2.41295,-3.60767 -3.5823,-7.55686 -3.33103,-11.24975 0.11867,-1.744 0.44096,-3.30912 0.48263,-2.34375 0.0314,0.72758 0.66058,1.95551 1.23248,2.40536 1.6621,1.30741 3.37327,-0.62612 3.37327,-3.81161 0,-2.33258 -0.73832,-3.82138 -2.08487,-4.20409 l -0.54013,-0.15351 0.54195,-0.14501 c 0.75642,-0.2024 1.45221,0.0924 1.89436,0.8025 0.30673,0.49264 0.46266,0.58428 0.84455,0.49629 0.2576,-0.0593 0.50421,-0.14375 0.54801,-0.18756 0.13746,-0.13746 -0.52252,-4.41836 -0.90591,-5.87613 -0.69783,-2.6533 -1.91135,-4.32624 -3.13819,-4.32624 -0.24256,0 -0.44102,-0.0494 -0.44102,-0.10985 0,-0.0604 0.31074,-0.55451 0.69053,-1.09799 0.83528,-1.19528 1.75306,-1.87501 2.29809,-1.70203 1.65367,0.52486 3.1493,6.02636 3.95144,14.53487 0.19897,2.11056 0.18119,2.64921 -0.17874,5.41394 -0.49982,3.83933 -1.12065,6.9021 -1.87348,9.24254 -0.60763,1.88903 -1.5731,3.57912 -2.10206,3.67969 -0.20615,0.0392 -0.62331,-0.41293 -1.26188,-1.36767 z"
     id="path21" />
  <rect
     style="fill:#ffffff;fill-opacity:1;fill-rule:evenodd;stroke-width:3;stroke:#000000;stroke-opacity:1;stroke-dasharray:none"
     id="rect36"
     width="225"
     height="43.816551"
     x="50"
     y="458.09174"
     ry="12.049552" />
  <rect
     style="fill:#ffffff;fill-opacity:0.95166051;fill-rule:evenodd;stroke-width:3;stroke-dasharray:none;stroke:#000000;stroke-opacity:1"
     id="rect36-1"
     width="249.36885"
     height="46.5"
     x="312.81558"
     y="456.75"
     ry="12.7875" />
  <text
     xml:space="preserve"
     style="font-style:normal;font-variant:normal;font-weight:900;font-stretch:normal;font-size:26.5167px;line-height:1.25;font-family:Arial;-inkscape-font-specification:'Arial Heavy';fill:#000000;fill-opacity:1;stroke-width:0.809862"
     x="74.580727"
     y="489.3049"
     id="text46041"><tspan
       sodipodi:role="line"
       id="tspan46039"
       x="74.580727"
       y="489.3049"
       style="font-size:26.5167px;stroke-width:0.809862;fill:#000000;fill-opacity:1">Sid Hoffman</tspan></text>
  <text
     xml:space="preserve"
     style="font-style:normal;font-variant:normal;font-weight:900;font-stretch:normal;font-size:24px;line-height:1.25;font-family:Arial;-inkscape-font-specification:'Arial Heavy';fill:#000000;fill-opacity:1;stroke-width:0.746265"
     x="342.16797"
     y="488.22266"
     id="text53873"><tspan
       sodipodi:role="line"
       id="tspan53871"
       x="342.16797"
       y="488.22266"
       style="font-size:24px;stroke-width:0.746265;fill:#000000;fill-opacity:1">Sid Frenchman</tspan></text>
</svg>
